G04 #@! TF.FileFunction,Legend,Bot*
%FSLAX46Y46*%
G04 Gerber Fmt 4.6, Leading zero omitted, Abs format (unit mm)*
G04 Created by KiCad (PCBNEW 4.0.7) date 08/21/18 13:20:54*
%MOMM*%
%LPD*%
G01*
G04 APERTURE LIST*
%ADD10C,0.100000*%
%ADD11C,0.250000*%
%ADD12C,0.300000*%
%ADD13C,0.120000*%
%ADD14C,0.150000*%
G04 APERTURE END LIST*
D10*
D11*
X151764999Y-132175000D02*
X151193570Y-132175000D01*
X151879284Y-132517857D02*
X151479284Y-131317857D01*
X151079284Y-132517857D01*
X150736428Y-132460714D02*
X150564999Y-132517857D01*
X150279285Y-132517857D01*
X150164999Y-132460714D01*
X150107856Y-132403571D01*
X150050713Y-132289286D01*
X150050713Y-132175000D01*
X150107856Y-132060714D01*
X150164999Y-132003571D01*
X150279285Y-131946429D01*
X150507856Y-131889286D01*
X150622142Y-131832143D01*
X150679285Y-131775000D01*
X150736428Y-131660714D01*
X150736428Y-131546429D01*
X150679285Y-131432143D01*
X150622142Y-131375000D01*
X150507856Y-131317857D01*
X150222142Y-131317857D01*
X150050713Y-131375000D01*
X148964999Y-131317857D02*
X149536428Y-131317857D01*
X149593571Y-131889286D01*
X149536428Y-131832143D01*
X149422142Y-131775000D01*
X149136428Y-131775000D01*
X149022142Y-131832143D01*
X148964999Y-131889286D01*
X148907856Y-132003571D01*
X148907856Y-132289286D01*
X148964999Y-132403571D01*
X149022142Y-132460714D01*
X149136428Y-132517857D01*
X149422142Y-132517857D01*
X149536428Y-132460714D01*
X149593571Y-132403571D01*
X147879285Y-131317857D02*
X148107856Y-131317857D01*
X148222142Y-131375000D01*
X148279285Y-131432143D01*
X148393571Y-131603571D01*
X148450714Y-131832143D01*
X148450714Y-132289286D01*
X148393571Y-132403571D01*
X148336428Y-132460714D01*
X148222142Y-132517857D01*
X147993571Y-132517857D01*
X147879285Y-132460714D01*
X147822142Y-132403571D01*
X147764999Y-132289286D01*
X147764999Y-132003571D01*
X147822142Y-131889286D01*
X147879285Y-131832143D01*
X147993571Y-131775000D01*
X148222142Y-131775000D01*
X148336428Y-131832143D01*
X148393571Y-131889286D01*
X148450714Y-132003571D01*
X147022142Y-131317857D02*
X146907857Y-131317857D01*
X146793571Y-131375000D01*
X146736428Y-131432143D01*
X146679285Y-131546429D01*
X146622142Y-131775000D01*
X146622142Y-132060714D01*
X146679285Y-132289286D01*
X146736428Y-132403571D01*
X146793571Y-132460714D01*
X146907857Y-132517857D01*
X147022142Y-132517857D01*
X147136428Y-132460714D01*
X147193571Y-132403571D01*
X147250714Y-132289286D01*
X147307857Y-132060714D01*
X147307857Y-131775000D01*
X147250714Y-131546429D01*
X147193571Y-131432143D01*
X147136428Y-131375000D01*
X147022142Y-131317857D01*
X145879285Y-131317857D02*
X145765000Y-131317857D01*
X145650714Y-131375000D01*
X145593571Y-131432143D01*
X145536428Y-131546429D01*
X145479285Y-131775000D01*
X145479285Y-132060714D01*
X145536428Y-132289286D01*
X145593571Y-132403571D01*
X145650714Y-132460714D01*
X145765000Y-132517857D01*
X145879285Y-132517857D01*
X145993571Y-132460714D01*
X146050714Y-132403571D01*
X146107857Y-132289286D01*
X146165000Y-132060714D01*
X146165000Y-131775000D01*
X146107857Y-131546429D01*
X146050714Y-131432143D01*
X145993571Y-131375000D01*
X145879285Y-131317857D01*
X143650714Y-131889286D02*
X143479285Y-131946429D01*
X143422142Y-132003571D01*
X143364999Y-132117857D01*
X143364999Y-132289286D01*
X143422142Y-132403571D01*
X143479285Y-132460714D01*
X143593571Y-132517857D01*
X144050714Y-132517857D01*
X144050714Y-131317857D01*
X143650714Y-131317857D01*
X143536428Y-131375000D01*
X143479285Y-131432143D01*
X143422142Y-131546429D01*
X143422142Y-131660714D01*
X143479285Y-131775000D01*
X143536428Y-131832143D01*
X143650714Y-131889286D01*
X144050714Y-131889286D01*
X142850714Y-132517857D02*
X142850714Y-131717857D01*
X142850714Y-131946429D02*
X142793571Y-131832143D01*
X142736428Y-131775000D01*
X142622142Y-131717857D01*
X142507857Y-131717857D01*
X141650714Y-132460714D02*
X141765000Y-132517857D01*
X141993571Y-132517857D01*
X142107857Y-132460714D01*
X142165000Y-132346429D01*
X142165000Y-131889286D01*
X142107857Y-131775000D01*
X141993571Y-131717857D01*
X141765000Y-131717857D01*
X141650714Y-131775000D01*
X141593571Y-131889286D01*
X141593571Y-132003571D01*
X142165000Y-132117857D01*
X140565000Y-132517857D02*
X140565000Y-131889286D01*
X140622143Y-131775000D01*
X140736429Y-131717857D01*
X140965000Y-131717857D01*
X141079286Y-131775000D01*
X140565000Y-132460714D02*
X140679286Y-132517857D01*
X140965000Y-132517857D01*
X141079286Y-132460714D01*
X141136429Y-132346429D01*
X141136429Y-132232143D01*
X141079286Y-132117857D01*
X140965000Y-132060714D01*
X140679286Y-132060714D01*
X140565000Y-132003571D01*
X139993572Y-132517857D02*
X139993572Y-131317857D01*
X139879286Y-132060714D02*
X139536429Y-132517857D01*
X139536429Y-131717857D02*
X139993572Y-132175000D01*
X138850714Y-132517857D02*
X138965000Y-132460714D01*
X139022143Y-132403571D01*
X139079286Y-132289286D01*
X139079286Y-131946429D01*
X139022143Y-131832143D01*
X138965000Y-131775000D01*
X138850714Y-131717857D01*
X138679286Y-131717857D01*
X138565000Y-131775000D01*
X138507857Y-131832143D01*
X138450714Y-131946429D01*
X138450714Y-132289286D01*
X138507857Y-132403571D01*
X138565000Y-132460714D01*
X138679286Y-132517857D01*
X138850714Y-132517857D01*
X137422143Y-131717857D02*
X137422143Y-132517857D01*
X137936429Y-131717857D02*
X137936429Y-132346429D01*
X137879286Y-132460714D01*
X137765000Y-132517857D01*
X137593572Y-132517857D01*
X137479286Y-132460714D01*
X137422143Y-132403571D01*
X137022143Y-131717857D02*
X136565000Y-131717857D01*
X136850715Y-131317857D02*
X136850715Y-132346429D01*
X136793572Y-132460714D01*
X136679286Y-132517857D01*
X136565000Y-132517857D01*
X134850715Y-131889286D02*
X134679286Y-131946429D01*
X134622143Y-132003571D01*
X134565000Y-132117857D01*
X134565000Y-132289286D01*
X134622143Y-132403571D01*
X134679286Y-132460714D01*
X134793572Y-132517857D01*
X135250715Y-132517857D01*
X135250715Y-131317857D01*
X134850715Y-131317857D01*
X134736429Y-131375000D01*
X134679286Y-131432143D01*
X134622143Y-131546429D01*
X134622143Y-131660714D01*
X134679286Y-131775000D01*
X134736429Y-131832143D01*
X134850715Y-131889286D01*
X135250715Y-131889286D01*
X133879286Y-132517857D02*
X133993572Y-132460714D01*
X134050715Y-132403571D01*
X134107858Y-132289286D01*
X134107858Y-131946429D01*
X134050715Y-131832143D01*
X133993572Y-131775000D01*
X133879286Y-131717857D01*
X133707858Y-131717857D01*
X133593572Y-131775000D01*
X133536429Y-131832143D01*
X133479286Y-131946429D01*
X133479286Y-132289286D01*
X133536429Y-132403571D01*
X133593572Y-132460714D01*
X133707858Y-132517857D01*
X133879286Y-132517857D01*
X132450715Y-132517857D02*
X132450715Y-131889286D01*
X132507858Y-131775000D01*
X132622144Y-131717857D01*
X132850715Y-131717857D01*
X132965001Y-131775000D01*
X132450715Y-132460714D02*
X132565001Y-132517857D01*
X132850715Y-132517857D01*
X132965001Y-132460714D01*
X133022144Y-132346429D01*
X133022144Y-132232143D01*
X132965001Y-132117857D01*
X132850715Y-132060714D01*
X132565001Y-132060714D01*
X132450715Y-132003571D01*
X131879287Y-132517857D02*
X131879287Y-131717857D01*
X131879287Y-131946429D02*
X131822144Y-131832143D01*
X131765001Y-131775000D01*
X131650715Y-131717857D01*
X131536430Y-131717857D01*
X130622144Y-132517857D02*
X130622144Y-131317857D01*
X130622144Y-132460714D02*
X130736430Y-132517857D01*
X130965001Y-132517857D01*
X131079287Y-132460714D01*
X131136430Y-132403571D01*
X131193573Y-132289286D01*
X131193573Y-131946429D01*
X131136430Y-131832143D01*
X131079287Y-131775000D01*
X130965001Y-131717857D01*
X130736430Y-131717857D01*
X130622144Y-131775000D01*
X149622142Y-133653571D02*
X149736428Y-133596429D01*
X149964999Y-133596429D01*
X150079285Y-133653571D01*
X150193571Y-133767857D01*
X150250714Y-133882143D01*
X150250714Y-134110714D01*
X150193571Y-134225000D01*
X150079285Y-134339286D01*
X149964999Y-134396429D01*
X149736428Y-134396429D01*
X149622142Y-134339286D01*
X149850714Y-133196429D02*
X150136428Y-133253571D01*
X150422142Y-133425000D01*
X150593571Y-133710714D01*
X150650714Y-133996429D01*
X150593571Y-134282143D01*
X150422142Y-134567857D01*
X150136428Y-134739286D01*
X149850714Y-134796429D01*
X149564999Y-134739286D01*
X149279285Y-134567857D01*
X149107856Y-134282143D01*
X149050714Y-133996429D01*
X149107856Y-133710714D01*
X149279285Y-133425000D01*
X149564999Y-133253571D01*
X149850714Y-133196429D01*
X147622142Y-134567857D02*
X147622142Y-133367857D01*
X146936427Y-134567857D02*
X147450713Y-133882143D01*
X146936427Y-133367857D02*
X147622142Y-134053571D01*
X145907856Y-134567857D02*
X145907856Y-133939286D01*
X145964999Y-133825000D01*
X146079285Y-133767857D01*
X146307856Y-133767857D01*
X146422142Y-133825000D01*
X145907856Y-134510714D02*
X146022142Y-134567857D01*
X146307856Y-134567857D01*
X146422142Y-134510714D01*
X146479285Y-134396429D01*
X146479285Y-134282143D01*
X146422142Y-134167857D01*
X146307856Y-134110714D01*
X146022142Y-134110714D01*
X145907856Y-134053571D01*
X145336428Y-133767857D02*
X145336428Y-134567857D01*
X145336428Y-133882143D02*
X145279285Y-133825000D01*
X145164999Y-133767857D01*
X144993571Y-133767857D01*
X144879285Y-133825000D01*
X144822142Y-133939286D01*
X144822142Y-134567857D01*
X143793571Y-134510714D02*
X143907857Y-134567857D01*
X144136428Y-134567857D01*
X144250714Y-134510714D01*
X144307857Y-134396429D01*
X144307857Y-133939286D01*
X144250714Y-133825000D01*
X144136428Y-133767857D01*
X143907857Y-133767857D01*
X143793571Y-133825000D01*
X143736428Y-133939286D01*
X143736428Y-134053571D01*
X144307857Y-134167857D01*
X142365000Y-134510714D02*
X142193571Y-134567857D01*
X141907857Y-134567857D01*
X141793571Y-134510714D01*
X141736428Y-134453571D01*
X141679285Y-134339286D01*
X141679285Y-134225000D01*
X141736428Y-134110714D01*
X141793571Y-134053571D01*
X141907857Y-133996429D01*
X142136428Y-133939286D01*
X142250714Y-133882143D01*
X142307857Y-133825000D01*
X142365000Y-133710714D01*
X142365000Y-133596429D01*
X142307857Y-133482143D01*
X142250714Y-133425000D01*
X142136428Y-133367857D01*
X141850714Y-133367857D01*
X141679285Y-133425000D01*
X141336428Y-133767857D02*
X140879285Y-133767857D01*
X141165000Y-133367857D02*
X141165000Y-134396429D01*
X141107857Y-134510714D01*
X140993571Y-134567857D01*
X140879285Y-134567857D01*
X140307857Y-134567857D02*
X140422143Y-134510714D01*
X140479286Y-134453571D01*
X140536429Y-134339286D01*
X140536429Y-133996429D01*
X140479286Y-133882143D01*
X140422143Y-133825000D01*
X140307857Y-133767857D01*
X140136429Y-133767857D01*
X140022143Y-133825000D01*
X139965000Y-133882143D01*
X139907857Y-133996429D01*
X139907857Y-134339286D01*
X139965000Y-134453571D01*
X140022143Y-134510714D01*
X140136429Y-134567857D01*
X140307857Y-134567857D01*
X139393572Y-134567857D02*
X139393572Y-133367857D01*
X139393572Y-133825000D02*
X139279286Y-133767857D01*
X139050715Y-133767857D01*
X138936429Y-133825000D01*
X138879286Y-133882143D01*
X138822143Y-133996429D01*
X138822143Y-134339286D01*
X138879286Y-134453571D01*
X138936429Y-134510714D01*
X139050715Y-134567857D01*
X139279286Y-134567857D01*
X139393572Y-134510714D01*
X138136429Y-134567857D02*
X138250715Y-134510714D01*
X138307858Y-134453571D01*
X138365001Y-134339286D01*
X138365001Y-133996429D01*
X138307858Y-133882143D01*
X138250715Y-133825000D01*
X138136429Y-133767857D01*
X137965001Y-133767857D01*
X137850715Y-133825000D01*
X137793572Y-133882143D01*
X137736429Y-133996429D01*
X137736429Y-134339286D01*
X137793572Y-134453571D01*
X137850715Y-134510714D01*
X137965001Y-134567857D01*
X138136429Y-134567857D01*
X137222144Y-134567857D02*
X137222144Y-133767857D01*
X137222144Y-133367857D02*
X137279287Y-133425000D01*
X137222144Y-133482143D01*
X137165001Y-133425000D01*
X137222144Y-133367857D01*
X137222144Y-133482143D01*
X135793572Y-133482143D02*
X135736429Y-133425000D01*
X135622143Y-133367857D01*
X135336429Y-133367857D01*
X135222143Y-133425000D01*
X135165000Y-133482143D01*
X135107857Y-133596429D01*
X135107857Y-133710714D01*
X135165000Y-133882143D01*
X135850714Y-134567857D01*
X135107857Y-134567857D01*
X134365000Y-133367857D02*
X134250715Y-133367857D01*
X134136429Y-133425000D01*
X134079286Y-133482143D01*
X134022143Y-133596429D01*
X133965000Y-133825000D01*
X133965000Y-134110714D01*
X134022143Y-134339286D01*
X134079286Y-134453571D01*
X134136429Y-134510714D01*
X134250715Y-134567857D01*
X134365000Y-134567857D01*
X134479286Y-134510714D01*
X134536429Y-134453571D01*
X134593572Y-134339286D01*
X134650715Y-134110714D01*
X134650715Y-133825000D01*
X134593572Y-133596429D01*
X134536429Y-133482143D01*
X134479286Y-133425000D01*
X134365000Y-133367857D01*
X132822143Y-134567857D02*
X133507858Y-134567857D01*
X133165000Y-134567857D02*
X133165000Y-133367857D01*
X133279286Y-133539286D01*
X133393572Y-133653571D01*
X133507858Y-133710714D01*
X132136429Y-133882143D02*
X132250715Y-133825000D01*
X132307858Y-133767857D01*
X132365001Y-133653571D01*
X132365001Y-133596429D01*
X132307858Y-133482143D01*
X132250715Y-133425000D01*
X132136429Y-133367857D01*
X131907858Y-133367857D01*
X131793572Y-133425000D01*
X131736429Y-133482143D01*
X131679286Y-133596429D01*
X131679286Y-133653571D01*
X131736429Y-133767857D01*
X131793572Y-133825000D01*
X131907858Y-133882143D01*
X132136429Y-133882143D01*
X132250715Y-133939286D01*
X132307858Y-133996429D01*
X132365001Y-134110714D01*
X132365001Y-134339286D01*
X132307858Y-134453571D01*
X132250715Y-134510714D01*
X132136429Y-134567857D01*
X131907858Y-134567857D01*
X131793572Y-134510714D01*
X131736429Y-134453571D01*
X131679286Y-134339286D01*
X131679286Y-134110714D01*
X131736429Y-133996429D01*
X131793572Y-133939286D01*
X131907858Y-133882143D01*
D12*
X150642857Y-123099571D02*
X150642857Y-121599571D01*
X150071429Y-121599571D01*
X149928571Y-121671000D01*
X149857143Y-121742429D01*
X149785714Y-121885286D01*
X149785714Y-122099571D01*
X149857143Y-122242429D01*
X149928571Y-122313857D01*
X150071429Y-122385286D01*
X150642857Y-122385286D01*
X148357143Y-121671000D02*
X148500000Y-121599571D01*
X148714286Y-121599571D01*
X148928571Y-121671000D01*
X149071429Y-121813857D01*
X149142857Y-121956714D01*
X149214286Y-122242429D01*
X149214286Y-122456714D01*
X149142857Y-122742429D01*
X149071429Y-122885286D01*
X148928571Y-123028143D01*
X148714286Y-123099571D01*
X148571429Y-123099571D01*
X148357143Y-123028143D01*
X148285714Y-122956714D01*
X148285714Y-122456714D01*
X148571429Y-122456714D01*
X147357143Y-121599571D02*
X147071429Y-121599571D01*
X146928571Y-121671000D01*
X146785714Y-121813857D01*
X146714286Y-122099571D01*
X146714286Y-122599571D01*
X146785714Y-122885286D01*
X146928571Y-123028143D01*
X147071429Y-123099571D01*
X147357143Y-123099571D01*
X147500000Y-123028143D01*
X147642857Y-122885286D01*
X147714286Y-122599571D01*
X147714286Y-122099571D01*
X147642857Y-121813857D01*
X147500000Y-121671000D01*
X147357143Y-121599571D01*
X150714286Y-120468143D02*
X150500000Y-120539571D01*
X150142857Y-120539571D01*
X150000000Y-120468143D01*
X149928571Y-120396714D01*
X149857143Y-120253857D01*
X149857143Y-120111000D01*
X149928571Y-119968143D01*
X150000000Y-119896714D01*
X150142857Y-119825286D01*
X150428571Y-119753857D01*
X150571429Y-119682429D01*
X150642857Y-119611000D01*
X150714286Y-119468143D01*
X150714286Y-119325286D01*
X150642857Y-119182429D01*
X150571429Y-119111000D01*
X150428571Y-119039571D01*
X150071429Y-119039571D01*
X149857143Y-119111000D01*
X149214286Y-120539571D02*
X149214286Y-119039571D01*
X148857143Y-119039571D01*
X148642858Y-119111000D01*
X148500000Y-119253857D01*
X148428572Y-119396714D01*
X148357143Y-119682429D01*
X148357143Y-119896714D01*
X148428572Y-120182429D01*
X148500000Y-120325286D01*
X148642858Y-120468143D01*
X148857143Y-120539571D01*
X149214286Y-120539571D01*
X147785715Y-120111000D02*
X147071429Y-120111000D01*
X147928572Y-120539571D02*
X147428572Y-119039571D01*
X146928572Y-120539571D01*
X150714286Y-117908143D02*
X150500000Y-117979571D01*
X150142857Y-117979571D01*
X150000000Y-117908143D01*
X149928571Y-117836714D01*
X149857143Y-117693857D01*
X149857143Y-117551000D01*
X149928571Y-117408143D01*
X150000000Y-117336714D01*
X150142857Y-117265286D01*
X150428571Y-117193857D01*
X150571429Y-117122429D01*
X150642857Y-117051000D01*
X150714286Y-116908143D01*
X150714286Y-116765286D01*
X150642857Y-116622429D01*
X150571429Y-116551000D01*
X150428571Y-116479571D01*
X150071429Y-116479571D01*
X149857143Y-116551000D01*
X148357143Y-117836714D02*
X148428572Y-117908143D01*
X148642858Y-117979571D01*
X148785715Y-117979571D01*
X149000000Y-117908143D01*
X149142858Y-117765286D01*
X149214286Y-117622429D01*
X149285715Y-117336714D01*
X149285715Y-117122429D01*
X149214286Y-116836714D01*
X149142858Y-116693857D01*
X149000000Y-116551000D01*
X148785715Y-116479571D01*
X148642858Y-116479571D01*
X148428572Y-116551000D01*
X148357143Y-116622429D01*
X147000000Y-117979571D02*
X147714286Y-117979571D01*
X147714286Y-116479571D01*
X150642857Y-115419571D02*
X150642857Y-113919571D01*
X150285714Y-113919571D01*
X150071429Y-113991000D01*
X149928571Y-114133857D01*
X149857143Y-114276714D01*
X149785714Y-114562429D01*
X149785714Y-114776714D01*
X149857143Y-115062429D01*
X149928571Y-115205286D01*
X150071429Y-115348143D01*
X150285714Y-115419571D01*
X150642857Y-115419571D01*
X149142857Y-115419571D02*
X149142857Y-113919571D01*
X147571428Y-115419571D02*
X148071428Y-114705286D01*
X148428571Y-115419571D02*
X148428571Y-113919571D01*
X147857143Y-113919571D01*
X147714285Y-113991000D01*
X147642857Y-114062429D01*
X147571428Y-114205286D01*
X147571428Y-114419571D01*
X147642857Y-114562429D01*
X147714285Y-114633857D01*
X147857143Y-114705286D01*
X148428571Y-114705286D01*
X150357143Y-111359571D02*
X150071429Y-111359571D01*
X149928571Y-111431000D01*
X149785714Y-111573857D01*
X149714286Y-111859571D01*
X149714286Y-112359571D01*
X149785714Y-112645286D01*
X149928571Y-112788143D01*
X150071429Y-112859571D01*
X150357143Y-112859571D01*
X150500000Y-112788143D01*
X150642857Y-112645286D01*
X150714286Y-112359571D01*
X150714286Y-111859571D01*
X150642857Y-111573857D01*
X150500000Y-111431000D01*
X150357143Y-111359571D01*
X149071428Y-111359571D02*
X149071428Y-112573857D01*
X149000000Y-112716714D01*
X148928571Y-112788143D01*
X148785714Y-112859571D01*
X148500000Y-112859571D01*
X148357142Y-112788143D01*
X148285714Y-112716714D01*
X148214285Y-112573857D01*
X148214285Y-111359571D01*
X147714285Y-111359571D02*
X146857142Y-111359571D01*
X147285713Y-112859571D02*
X147285713Y-111359571D01*
X149857143Y-108871000D02*
X150000000Y-108799571D01*
X150214286Y-108799571D01*
X150428571Y-108871000D01*
X150571429Y-109013857D01*
X150642857Y-109156714D01*
X150714286Y-109442429D01*
X150714286Y-109656714D01*
X150642857Y-109942429D01*
X150571429Y-110085286D01*
X150428571Y-110228143D01*
X150214286Y-110299571D01*
X150071429Y-110299571D01*
X149857143Y-110228143D01*
X149785714Y-110156714D01*
X149785714Y-109656714D01*
X150071429Y-109656714D01*
X149142857Y-110299571D02*
X149142857Y-108799571D01*
X148285714Y-110299571D01*
X148285714Y-108799571D01*
X147571428Y-110299571D02*
X147571428Y-108799571D01*
X147214285Y-108799571D01*
X147000000Y-108871000D01*
X146857142Y-109013857D01*
X146785714Y-109156714D01*
X146714285Y-109442429D01*
X146714285Y-109656714D01*
X146785714Y-109942429D01*
X146857142Y-110085286D01*
X147000000Y-110228143D01*
X147214285Y-110299571D01*
X147571428Y-110299571D01*
X149928571Y-106239571D02*
X150642857Y-106239571D01*
X150714286Y-106953857D01*
X150642857Y-106882429D01*
X150500000Y-106811000D01*
X150142857Y-106811000D01*
X150000000Y-106882429D01*
X149928571Y-106953857D01*
X149857143Y-107096714D01*
X149857143Y-107453857D01*
X149928571Y-107596714D01*
X150000000Y-107668143D01*
X150142857Y-107739571D01*
X150500000Y-107739571D01*
X150642857Y-107668143D01*
X150714286Y-107596714D01*
X149428572Y-106239571D02*
X148928572Y-107739571D01*
X148428572Y-106239571D01*
D13*
X155110000Y-123631000D02*
X155110000Y-105731000D01*
X155110000Y-105731000D02*
X157770000Y-105731000D01*
X157770000Y-105731000D02*
X157770000Y-123631000D01*
X157770000Y-123631000D02*
X155110000Y-123631000D01*
X157770000Y-122681000D02*
X163770000Y-122681000D01*
X163770000Y-122681000D02*
X163770000Y-121921000D01*
X163770000Y-121921000D02*
X157770000Y-121921000D01*
X157770000Y-122621000D02*
X163770000Y-122621000D01*
X157770000Y-122501000D02*
X163770000Y-122501000D01*
X157770000Y-122381000D02*
X163770000Y-122381000D01*
X157770000Y-122261000D02*
X163770000Y-122261000D01*
X157770000Y-122141000D02*
X163770000Y-122141000D01*
X157770000Y-122021000D02*
X163770000Y-122021000D01*
X154780000Y-122681000D02*
X155110000Y-122681000D01*
X154780000Y-121921000D02*
X155110000Y-121921000D01*
X155110000Y-121031000D02*
X157770000Y-121031000D01*
X157770000Y-120141000D02*
X163770000Y-120141000D01*
X163770000Y-120141000D02*
X163770000Y-119381000D01*
X163770000Y-119381000D02*
X157770000Y-119381000D01*
X154712929Y-120141000D02*
X155110000Y-120141000D01*
X154712929Y-119381000D02*
X155110000Y-119381000D01*
X155110000Y-118491000D02*
X157770000Y-118491000D01*
X157770000Y-117601000D02*
X163770000Y-117601000D01*
X163770000Y-117601000D02*
X163770000Y-116841000D01*
X163770000Y-116841000D02*
X157770000Y-116841000D01*
X154712929Y-117601000D02*
X155110000Y-117601000D01*
X154712929Y-116841000D02*
X155110000Y-116841000D01*
X155110000Y-115951000D02*
X157770000Y-115951000D01*
X157770000Y-115061000D02*
X163770000Y-115061000D01*
X163770000Y-115061000D02*
X163770000Y-114301000D01*
X163770000Y-114301000D02*
X157770000Y-114301000D01*
X154712929Y-115061000D02*
X155110000Y-115061000D01*
X154712929Y-114301000D02*
X155110000Y-114301000D01*
X155110000Y-113411000D02*
X157770000Y-113411000D01*
X157770000Y-112521000D02*
X163770000Y-112521000D01*
X163770000Y-112521000D02*
X163770000Y-111761000D01*
X163770000Y-111761000D02*
X157770000Y-111761000D01*
X154712929Y-112521000D02*
X155110000Y-112521000D01*
X154712929Y-111761000D02*
X155110000Y-111761000D01*
X155110000Y-110871000D02*
X157770000Y-110871000D01*
X157770000Y-109981000D02*
X163770000Y-109981000D01*
X163770000Y-109981000D02*
X163770000Y-109221000D01*
X163770000Y-109221000D02*
X157770000Y-109221000D01*
X154712929Y-109981000D02*
X155110000Y-109981000D01*
X154712929Y-109221000D02*
X155110000Y-109221000D01*
X155110000Y-108331000D02*
X157770000Y-108331000D01*
X157770000Y-107441000D02*
X163770000Y-107441000D01*
X163770000Y-107441000D02*
X163770000Y-106681000D01*
X163770000Y-106681000D02*
X157770000Y-106681000D01*
X154712929Y-107441000D02*
X155110000Y-107441000D01*
X154712929Y-106681000D02*
X155110000Y-106681000D01*
X152400000Y-122301000D02*
X152400000Y-123571000D01*
X152400000Y-123571000D02*
X153670000Y-123571000D01*
D14*
X158388333Y-124023381D02*
X158388333Y-124737667D01*
X158435953Y-124880524D01*
X158531191Y-124975762D01*
X158674048Y-125023381D01*
X158769286Y-125023381D01*
X157388333Y-125023381D02*
X157959762Y-125023381D01*
X157674048Y-125023381D02*
X157674048Y-124023381D01*
X157769286Y-124166238D01*
X157864524Y-124261476D01*
X157959762Y-124309095D01*
M02*
