G04 #@! TF.FileFunction,Legend,Top*
%FSLAX46Y46*%
G04 Gerber Fmt 4.6, Leading zero omitted, Abs format (unit mm)*
G04 Created by KiCad (PCBNEW 4.0.7) date 08/21/18 13:20:54*
%MOMM*%
%LPD*%
G01*
G04 APERTURE LIST*
%ADD10C,0.100000*%
%ADD11C,0.250000*%
%ADD12C,0.300000*%
%ADD13C,0.120000*%
%ADD14C,0.150000*%
G04 APERTURE END LIST*
D10*
D11*
X130565001Y-132175000D02*
X131136430Y-132175000D01*
X130450716Y-132517857D02*
X130850716Y-131317857D01*
X131250716Y-132517857D01*
X131593572Y-132460714D02*
X131765001Y-132517857D01*
X132050715Y-132517857D01*
X132165001Y-132460714D01*
X132222144Y-132403571D01*
X132279287Y-132289286D01*
X132279287Y-132175000D01*
X132222144Y-132060714D01*
X132165001Y-132003571D01*
X132050715Y-131946429D01*
X131822144Y-131889286D01*
X131707858Y-131832143D01*
X131650715Y-131775000D01*
X131593572Y-131660714D01*
X131593572Y-131546429D01*
X131650715Y-131432143D01*
X131707858Y-131375000D01*
X131822144Y-131317857D01*
X132107858Y-131317857D01*
X132279287Y-131375000D01*
X133365001Y-131317857D02*
X132793572Y-131317857D01*
X132736429Y-131889286D01*
X132793572Y-131832143D01*
X132907858Y-131775000D01*
X133193572Y-131775000D01*
X133307858Y-131832143D01*
X133365001Y-131889286D01*
X133422144Y-132003571D01*
X133422144Y-132289286D01*
X133365001Y-132403571D01*
X133307858Y-132460714D01*
X133193572Y-132517857D01*
X132907858Y-132517857D01*
X132793572Y-132460714D01*
X132736429Y-132403571D01*
X134450715Y-131317857D02*
X134222144Y-131317857D01*
X134107858Y-131375000D01*
X134050715Y-131432143D01*
X133936429Y-131603571D01*
X133879286Y-131832143D01*
X133879286Y-132289286D01*
X133936429Y-132403571D01*
X133993572Y-132460714D01*
X134107858Y-132517857D01*
X134336429Y-132517857D01*
X134450715Y-132460714D01*
X134507858Y-132403571D01*
X134565001Y-132289286D01*
X134565001Y-132003571D01*
X134507858Y-131889286D01*
X134450715Y-131832143D01*
X134336429Y-131775000D01*
X134107858Y-131775000D01*
X133993572Y-131832143D01*
X133936429Y-131889286D01*
X133879286Y-132003571D01*
X135307858Y-131317857D02*
X135422143Y-131317857D01*
X135536429Y-131375000D01*
X135593572Y-131432143D01*
X135650715Y-131546429D01*
X135707858Y-131775000D01*
X135707858Y-132060714D01*
X135650715Y-132289286D01*
X135593572Y-132403571D01*
X135536429Y-132460714D01*
X135422143Y-132517857D01*
X135307858Y-132517857D01*
X135193572Y-132460714D01*
X135136429Y-132403571D01*
X135079286Y-132289286D01*
X135022143Y-132060714D01*
X135022143Y-131775000D01*
X135079286Y-131546429D01*
X135136429Y-131432143D01*
X135193572Y-131375000D01*
X135307858Y-131317857D01*
X136450715Y-131317857D02*
X136565000Y-131317857D01*
X136679286Y-131375000D01*
X136736429Y-131432143D01*
X136793572Y-131546429D01*
X136850715Y-131775000D01*
X136850715Y-132060714D01*
X136793572Y-132289286D01*
X136736429Y-132403571D01*
X136679286Y-132460714D01*
X136565000Y-132517857D01*
X136450715Y-132517857D01*
X136336429Y-132460714D01*
X136279286Y-132403571D01*
X136222143Y-132289286D01*
X136165000Y-132060714D01*
X136165000Y-131775000D01*
X136222143Y-131546429D01*
X136279286Y-131432143D01*
X136336429Y-131375000D01*
X136450715Y-131317857D01*
X138679286Y-131889286D02*
X138850715Y-131946429D01*
X138907858Y-132003571D01*
X138965001Y-132117857D01*
X138965001Y-132289286D01*
X138907858Y-132403571D01*
X138850715Y-132460714D01*
X138736429Y-132517857D01*
X138279286Y-132517857D01*
X138279286Y-131317857D01*
X138679286Y-131317857D01*
X138793572Y-131375000D01*
X138850715Y-131432143D01*
X138907858Y-131546429D01*
X138907858Y-131660714D01*
X138850715Y-131775000D01*
X138793572Y-131832143D01*
X138679286Y-131889286D01*
X138279286Y-131889286D01*
X139479286Y-132517857D02*
X139479286Y-131717857D01*
X139479286Y-131946429D02*
X139536429Y-131832143D01*
X139593572Y-131775000D01*
X139707858Y-131717857D01*
X139822143Y-131717857D01*
X140679286Y-132460714D02*
X140565000Y-132517857D01*
X140336429Y-132517857D01*
X140222143Y-132460714D01*
X140165000Y-132346429D01*
X140165000Y-131889286D01*
X140222143Y-131775000D01*
X140336429Y-131717857D01*
X140565000Y-131717857D01*
X140679286Y-131775000D01*
X140736429Y-131889286D01*
X140736429Y-132003571D01*
X140165000Y-132117857D01*
X141765000Y-132517857D02*
X141765000Y-131889286D01*
X141707857Y-131775000D01*
X141593571Y-131717857D01*
X141365000Y-131717857D01*
X141250714Y-131775000D01*
X141765000Y-132460714D02*
X141650714Y-132517857D01*
X141365000Y-132517857D01*
X141250714Y-132460714D01*
X141193571Y-132346429D01*
X141193571Y-132232143D01*
X141250714Y-132117857D01*
X141365000Y-132060714D01*
X141650714Y-132060714D01*
X141765000Y-132003571D01*
X142336428Y-132517857D02*
X142336428Y-131317857D01*
X142450714Y-132060714D02*
X142793571Y-132517857D01*
X142793571Y-131717857D02*
X142336428Y-132175000D01*
X143479286Y-132517857D02*
X143365000Y-132460714D01*
X143307857Y-132403571D01*
X143250714Y-132289286D01*
X143250714Y-131946429D01*
X143307857Y-131832143D01*
X143365000Y-131775000D01*
X143479286Y-131717857D01*
X143650714Y-131717857D01*
X143765000Y-131775000D01*
X143822143Y-131832143D01*
X143879286Y-131946429D01*
X143879286Y-132289286D01*
X143822143Y-132403571D01*
X143765000Y-132460714D01*
X143650714Y-132517857D01*
X143479286Y-132517857D01*
X144907857Y-131717857D02*
X144907857Y-132517857D01*
X144393571Y-131717857D02*
X144393571Y-132346429D01*
X144450714Y-132460714D01*
X144565000Y-132517857D01*
X144736428Y-132517857D01*
X144850714Y-132460714D01*
X144907857Y-132403571D01*
X145307857Y-131717857D02*
X145765000Y-131717857D01*
X145479285Y-131317857D02*
X145479285Y-132346429D01*
X145536428Y-132460714D01*
X145650714Y-132517857D01*
X145765000Y-132517857D01*
X147479285Y-131889286D02*
X147650714Y-131946429D01*
X147707857Y-132003571D01*
X147765000Y-132117857D01*
X147765000Y-132289286D01*
X147707857Y-132403571D01*
X147650714Y-132460714D01*
X147536428Y-132517857D01*
X147079285Y-132517857D01*
X147079285Y-131317857D01*
X147479285Y-131317857D01*
X147593571Y-131375000D01*
X147650714Y-131432143D01*
X147707857Y-131546429D01*
X147707857Y-131660714D01*
X147650714Y-131775000D01*
X147593571Y-131832143D01*
X147479285Y-131889286D01*
X147079285Y-131889286D01*
X148450714Y-132517857D02*
X148336428Y-132460714D01*
X148279285Y-132403571D01*
X148222142Y-132289286D01*
X148222142Y-131946429D01*
X148279285Y-131832143D01*
X148336428Y-131775000D01*
X148450714Y-131717857D01*
X148622142Y-131717857D01*
X148736428Y-131775000D01*
X148793571Y-131832143D01*
X148850714Y-131946429D01*
X148850714Y-132289286D01*
X148793571Y-132403571D01*
X148736428Y-132460714D01*
X148622142Y-132517857D01*
X148450714Y-132517857D01*
X149879285Y-132517857D02*
X149879285Y-131889286D01*
X149822142Y-131775000D01*
X149707856Y-131717857D01*
X149479285Y-131717857D01*
X149364999Y-131775000D01*
X149879285Y-132460714D02*
X149764999Y-132517857D01*
X149479285Y-132517857D01*
X149364999Y-132460714D01*
X149307856Y-132346429D01*
X149307856Y-132232143D01*
X149364999Y-132117857D01*
X149479285Y-132060714D01*
X149764999Y-132060714D01*
X149879285Y-132003571D01*
X150450713Y-132517857D02*
X150450713Y-131717857D01*
X150450713Y-131946429D02*
X150507856Y-131832143D01*
X150564999Y-131775000D01*
X150679285Y-131717857D01*
X150793570Y-131717857D01*
X151707856Y-132517857D02*
X151707856Y-131317857D01*
X151707856Y-132460714D02*
X151593570Y-132517857D01*
X151364999Y-132517857D01*
X151250713Y-132460714D01*
X151193570Y-132403571D01*
X151136427Y-132289286D01*
X151136427Y-131946429D01*
X151193570Y-131832143D01*
X151250713Y-131775000D01*
X151364999Y-131717857D01*
X151593570Y-131717857D01*
X151707856Y-131775000D01*
X132707858Y-133653571D02*
X132593572Y-133596429D01*
X132365001Y-133596429D01*
X132250715Y-133653571D01*
X132136429Y-133767857D01*
X132079286Y-133882143D01*
X132079286Y-134110714D01*
X132136429Y-134225000D01*
X132250715Y-134339286D01*
X132365001Y-134396429D01*
X132593572Y-134396429D01*
X132707858Y-134339286D01*
X132479286Y-133196429D02*
X132193572Y-133253571D01*
X131907858Y-133425000D01*
X131736429Y-133710714D01*
X131679286Y-133996429D01*
X131736429Y-134282143D01*
X131907858Y-134567857D01*
X132193572Y-134739286D01*
X132479286Y-134796429D01*
X132765001Y-134739286D01*
X133050715Y-134567857D01*
X133222144Y-134282143D01*
X133279286Y-133996429D01*
X133222144Y-133710714D01*
X133050715Y-133425000D01*
X132765001Y-133253571D01*
X132479286Y-133196429D01*
X134707858Y-134567857D02*
X134707858Y-133367857D01*
X135393573Y-134567857D02*
X134879287Y-133882143D01*
X135393573Y-133367857D02*
X134707858Y-134053571D01*
X136422144Y-134567857D02*
X136422144Y-133939286D01*
X136365001Y-133825000D01*
X136250715Y-133767857D01*
X136022144Y-133767857D01*
X135907858Y-133825000D01*
X136422144Y-134510714D02*
X136307858Y-134567857D01*
X136022144Y-134567857D01*
X135907858Y-134510714D01*
X135850715Y-134396429D01*
X135850715Y-134282143D01*
X135907858Y-134167857D01*
X136022144Y-134110714D01*
X136307858Y-134110714D01*
X136422144Y-134053571D01*
X136993572Y-133767857D02*
X136993572Y-134567857D01*
X136993572Y-133882143D02*
X137050715Y-133825000D01*
X137165001Y-133767857D01*
X137336429Y-133767857D01*
X137450715Y-133825000D01*
X137507858Y-133939286D01*
X137507858Y-134567857D01*
X138536429Y-134510714D02*
X138422143Y-134567857D01*
X138193572Y-134567857D01*
X138079286Y-134510714D01*
X138022143Y-134396429D01*
X138022143Y-133939286D01*
X138079286Y-133825000D01*
X138193572Y-133767857D01*
X138422143Y-133767857D01*
X138536429Y-133825000D01*
X138593572Y-133939286D01*
X138593572Y-134053571D01*
X138022143Y-134167857D01*
X139965000Y-134510714D02*
X140136429Y-134567857D01*
X140422143Y-134567857D01*
X140536429Y-134510714D01*
X140593572Y-134453571D01*
X140650715Y-134339286D01*
X140650715Y-134225000D01*
X140593572Y-134110714D01*
X140536429Y-134053571D01*
X140422143Y-133996429D01*
X140193572Y-133939286D01*
X140079286Y-133882143D01*
X140022143Y-133825000D01*
X139965000Y-133710714D01*
X139965000Y-133596429D01*
X140022143Y-133482143D01*
X140079286Y-133425000D01*
X140193572Y-133367857D01*
X140479286Y-133367857D01*
X140650715Y-133425000D01*
X140993572Y-133767857D02*
X141450715Y-133767857D01*
X141165000Y-133367857D02*
X141165000Y-134396429D01*
X141222143Y-134510714D01*
X141336429Y-134567857D01*
X141450715Y-134567857D01*
X142022143Y-134567857D02*
X141907857Y-134510714D01*
X141850714Y-134453571D01*
X141793571Y-134339286D01*
X141793571Y-133996429D01*
X141850714Y-133882143D01*
X141907857Y-133825000D01*
X142022143Y-133767857D01*
X142193571Y-133767857D01*
X142307857Y-133825000D01*
X142365000Y-133882143D01*
X142422143Y-133996429D01*
X142422143Y-134339286D01*
X142365000Y-134453571D01*
X142307857Y-134510714D01*
X142193571Y-134567857D01*
X142022143Y-134567857D01*
X142936428Y-134567857D02*
X142936428Y-133367857D01*
X142936428Y-133825000D02*
X143050714Y-133767857D01*
X143279285Y-133767857D01*
X143393571Y-133825000D01*
X143450714Y-133882143D01*
X143507857Y-133996429D01*
X143507857Y-134339286D01*
X143450714Y-134453571D01*
X143393571Y-134510714D01*
X143279285Y-134567857D01*
X143050714Y-134567857D01*
X142936428Y-134510714D01*
X144193571Y-134567857D02*
X144079285Y-134510714D01*
X144022142Y-134453571D01*
X143964999Y-134339286D01*
X143964999Y-133996429D01*
X144022142Y-133882143D01*
X144079285Y-133825000D01*
X144193571Y-133767857D01*
X144364999Y-133767857D01*
X144479285Y-133825000D01*
X144536428Y-133882143D01*
X144593571Y-133996429D01*
X144593571Y-134339286D01*
X144536428Y-134453571D01*
X144479285Y-134510714D01*
X144364999Y-134567857D01*
X144193571Y-134567857D01*
X145107856Y-134567857D02*
X145107856Y-133767857D01*
X145107856Y-133367857D02*
X145050713Y-133425000D01*
X145107856Y-133482143D01*
X145164999Y-133425000D01*
X145107856Y-133367857D01*
X145107856Y-133482143D01*
X146536428Y-133482143D02*
X146593571Y-133425000D01*
X146707857Y-133367857D01*
X146993571Y-133367857D01*
X147107857Y-133425000D01*
X147165000Y-133482143D01*
X147222143Y-133596429D01*
X147222143Y-133710714D01*
X147165000Y-133882143D01*
X146479286Y-134567857D01*
X147222143Y-134567857D01*
X147965000Y-133367857D02*
X148079285Y-133367857D01*
X148193571Y-133425000D01*
X148250714Y-133482143D01*
X148307857Y-133596429D01*
X148365000Y-133825000D01*
X148365000Y-134110714D01*
X148307857Y-134339286D01*
X148250714Y-134453571D01*
X148193571Y-134510714D01*
X148079285Y-134567857D01*
X147965000Y-134567857D01*
X147850714Y-134510714D01*
X147793571Y-134453571D01*
X147736428Y-134339286D01*
X147679285Y-134110714D01*
X147679285Y-133825000D01*
X147736428Y-133596429D01*
X147793571Y-133482143D01*
X147850714Y-133425000D01*
X147965000Y-133367857D01*
X149507857Y-134567857D02*
X148822142Y-134567857D01*
X149165000Y-134567857D02*
X149165000Y-133367857D01*
X149050714Y-133539286D01*
X148936428Y-133653571D01*
X148822142Y-133710714D01*
X150193571Y-133882143D02*
X150079285Y-133825000D01*
X150022142Y-133767857D01*
X149964999Y-133653571D01*
X149964999Y-133596429D01*
X150022142Y-133482143D01*
X150079285Y-133425000D01*
X150193571Y-133367857D01*
X150422142Y-133367857D01*
X150536428Y-133425000D01*
X150593571Y-133482143D01*
X150650714Y-133596429D01*
X150650714Y-133653571D01*
X150593571Y-133767857D01*
X150536428Y-133825000D01*
X150422142Y-133882143D01*
X150193571Y-133882143D01*
X150079285Y-133939286D01*
X150022142Y-133996429D01*
X149964999Y-134110714D01*
X149964999Y-134339286D01*
X150022142Y-134453571D01*
X150079285Y-134510714D01*
X150193571Y-134567857D01*
X150422142Y-134567857D01*
X150536428Y-134510714D01*
X150593571Y-134453571D01*
X150650714Y-134339286D01*
X150650714Y-134110714D01*
X150593571Y-133996429D01*
X150536428Y-133939286D01*
X150422142Y-133882143D01*
D12*
X146785714Y-123099571D02*
X146785714Y-121599571D01*
X147357142Y-121599571D01*
X147500000Y-121671000D01*
X147571428Y-121742429D01*
X147642857Y-121885286D01*
X147642857Y-122099571D01*
X147571428Y-122242429D01*
X147500000Y-122313857D01*
X147357142Y-122385286D01*
X146785714Y-122385286D01*
X149071428Y-121671000D02*
X148928571Y-121599571D01*
X148714285Y-121599571D01*
X148500000Y-121671000D01*
X148357142Y-121813857D01*
X148285714Y-121956714D01*
X148214285Y-122242429D01*
X148214285Y-122456714D01*
X148285714Y-122742429D01*
X148357142Y-122885286D01*
X148500000Y-123028143D01*
X148714285Y-123099571D01*
X148857142Y-123099571D01*
X149071428Y-123028143D01*
X149142857Y-122956714D01*
X149142857Y-122456714D01*
X148857142Y-122456714D01*
X150071428Y-121599571D02*
X150357142Y-121599571D01*
X150500000Y-121671000D01*
X150642857Y-121813857D01*
X150714285Y-122099571D01*
X150714285Y-122599571D01*
X150642857Y-122885286D01*
X150500000Y-123028143D01*
X150357142Y-123099571D01*
X150071428Y-123099571D01*
X149928571Y-123028143D01*
X149785714Y-122885286D01*
X149714285Y-122599571D01*
X149714285Y-122099571D01*
X149785714Y-121813857D01*
X149928571Y-121671000D01*
X150071428Y-121599571D01*
X147071429Y-120468143D02*
X147285715Y-120539571D01*
X147642858Y-120539571D01*
X147785715Y-120468143D01*
X147857144Y-120396714D01*
X147928572Y-120253857D01*
X147928572Y-120111000D01*
X147857144Y-119968143D01*
X147785715Y-119896714D01*
X147642858Y-119825286D01*
X147357144Y-119753857D01*
X147214286Y-119682429D01*
X147142858Y-119611000D01*
X147071429Y-119468143D01*
X147071429Y-119325286D01*
X147142858Y-119182429D01*
X147214286Y-119111000D01*
X147357144Y-119039571D01*
X147714286Y-119039571D01*
X147928572Y-119111000D01*
X148571429Y-120539571D02*
X148571429Y-119039571D01*
X148928572Y-119039571D01*
X149142857Y-119111000D01*
X149285715Y-119253857D01*
X149357143Y-119396714D01*
X149428572Y-119682429D01*
X149428572Y-119896714D01*
X149357143Y-120182429D01*
X149285715Y-120325286D01*
X149142857Y-120468143D01*
X148928572Y-120539571D01*
X148571429Y-120539571D01*
X150000000Y-120111000D02*
X150714286Y-120111000D01*
X149857143Y-120539571D02*
X150357143Y-119039571D01*
X150857143Y-120539571D01*
X147142857Y-117908143D02*
X147357143Y-117979571D01*
X147714286Y-117979571D01*
X147857143Y-117908143D01*
X147928572Y-117836714D01*
X148000000Y-117693857D01*
X148000000Y-117551000D01*
X147928572Y-117408143D01*
X147857143Y-117336714D01*
X147714286Y-117265286D01*
X147428572Y-117193857D01*
X147285714Y-117122429D01*
X147214286Y-117051000D01*
X147142857Y-116908143D01*
X147142857Y-116765286D01*
X147214286Y-116622429D01*
X147285714Y-116551000D01*
X147428572Y-116479571D01*
X147785714Y-116479571D01*
X148000000Y-116551000D01*
X149500000Y-117836714D02*
X149428571Y-117908143D01*
X149214285Y-117979571D01*
X149071428Y-117979571D01*
X148857143Y-117908143D01*
X148714285Y-117765286D01*
X148642857Y-117622429D01*
X148571428Y-117336714D01*
X148571428Y-117122429D01*
X148642857Y-116836714D01*
X148714285Y-116693857D01*
X148857143Y-116551000D01*
X149071428Y-116479571D01*
X149214285Y-116479571D01*
X149428571Y-116551000D01*
X149500000Y-116622429D01*
X150857143Y-117979571D02*
X150142857Y-117979571D01*
X150142857Y-116479571D01*
X147642857Y-115419571D02*
X147642857Y-113919571D01*
X148000000Y-113919571D01*
X148214285Y-113991000D01*
X148357143Y-114133857D01*
X148428571Y-114276714D01*
X148500000Y-114562429D01*
X148500000Y-114776714D01*
X148428571Y-115062429D01*
X148357143Y-115205286D01*
X148214285Y-115348143D01*
X148000000Y-115419571D01*
X147642857Y-115419571D01*
X149142857Y-115419571D02*
X149142857Y-113919571D01*
X150714286Y-115419571D02*
X150214286Y-114705286D01*
X149857143Y-115419571D02*
X149857143Y-113919571D01*
X150428571Y-113919571D01*
X150571429Y-113991000D01*
X150642857Y-114062429D01*
X150714286Y-114205286D01*
X150714286Y-114419571D01*
X150642857Y-114562429D01*
X150571429Y-114633857D01*
X150428571Y-114705286D01*
X149857143Y-114705286D01*
X147357142Y-111359571D02*
X147642856Y-111359571D01*
X147785714Y-111431000D01*
X147928571Y-111573857D01*
X147999999Y-111859571D01*
X147999999Y-112359571D01*
X147928571Y-112645286D01*
X147785714Y-112788143D01*
X147642856Y-112859571D01*
X147357142Y-112859571D01*
X147214285Y-112788143D01*
X147071428Y-112645286D01*
X146999999Y-112359571D01*
X146999999Y-111859571D01*
X147071428Y-111573857D01*
X147214285Y-111431000D01*
X147357142Y-111359571D01*
X148642857Y-111359571D02*
X148642857Y-112573857D01*
X148714285Y-112716714D01*
X148785714Y-112788143D01*
X148928571Y-112859571D01*
X149214285Y-112859571D01*
X149357143Y-112788143D01*
X149428571Y-112716714D01*
X149500000Y-112573857D01*
X149500000Y-111359571D01*
X150000000Y-111359571D02*
X150857143Y-111359571D01*
X150428572Y-112859571D02*
X150428572Y-111359571D01*
X147571428Y-108871000D02*
X147428571Y-108799571D01*
X147214285Y-108799571D01*
X147000000Y-108871000D01*
X146857142Y-109013857D01*
X146785714Y-109156714D01*
X146714285Y-109442429D01*
X146714285Y-109656714D01*
X146785714Y-109942429D01*
X146857142Y-110085286D01*
X147000000Y-110228143D01*
X147214285Y-110299571D01*
X147357142Y-110299571D01*
X147571428Y-110228143D01*
X147642857Y-110156714D01*
X147642857Y-109656714D01*
X147357142Y-109656714D01*
X148285714Y-110299571D02*
X148285714Y-108799571D01*
X149142857Y-110299571D01*
X149142857Y-108799571D01*
X149857143Y-110299571D02*
X149857143Y-108799571D01*
X150214286Y-108799571D01*
X150428571Y-108871000D01*
X150571429Y-109013857D01*
X150642857Y-109156714D01*
X150714286Y-109442429D01*
X150714286Y-109656714D01*
X150642857Y-109942429D01*
X150571429Y-110085286D01*
X150428571Y-110228143D01*
X150214286Y-110299571D01*
X149857143Y-110299571D01*
X149357144Y-106239571D02*
X148642858Y-106239571D01*
X148571429Y-106953857D01*
X148642858Y-106882429D01*
X148785715Y-106811000D01*
X149142858Y-106811000D01*
X149285715Y-106882429D01*
X149357144Y-106953857D01*
X149428572Y-107096714D01*
X149428572Y-107453857D01*
X149357144Y-107596714D01*
X149285715Y-107668143D01*
X149142858Y-107739571D01*
X148785715Y-107739571D01*
X148642858Y-107668143D01*
X148571429Y-107596714D01*
X149857143Y-106239571D02*
X150357143Y-107739571D01*
X150857143Y-106239571D01*
D13*
X135247000Y-114720000D02*
X134247000Y-114720000D01*
X134247000Y-116420000D02*
X135247000Y-116420000D01*
X134247000Y-114515000D02*
X135247000Y-114515000D01*
X135247000Y-112815000D02*
X134247000Y-112815000D01*
X140707000Y-120558000D02*
X140707000Y-121758000D01*
X138947000Y-121758000D02*
X138947000Y-120558000D01*
X141360000Y-121758000D02*
X141360000Y-120558000D01*
X143120000Y-120558000D02*
X143120000Y-121758000D01*
D14*
X143301000Y-113583000D02*
X143301000Y-118663000D01*
X143301000Y-118663000D02*
X138729000Y-118663000D01*
X138729000Y-118663000D02*
X138729000Y-113583000D01*
X138729000Y-113583000D02*
X143301000Y-113583000D01*
X141777000Y-113583000D02*
X141777000Y-114091000D01*
X141777000Y-114091000D02*
X140507000Y-114091000D01*
X140507000Y-114091000D02*
X140507000Y-113583000D01*
X131786334Y-114022143D02*
X131738715Y-114069762D01*
X131595858Y-114117381D01*
X131500620Y-114117381D01*
X131357762Y-114069762D01*
X131262524Y-113974524D01*
X131214905Y-113879286D01*
X131167286Y-113688810D01*
X131167286Y-113545952D01*
X131214905Y-113355476D01*
X131262524Y-113260238D01*
X131357762Y-113165000D01*
X131500620Y-113117381D01*
X131595858Y-113117381D01*
X131738715Y-113165000D01*
X131786334Y-113212619D01*
X132738715Y-114117381D02*
X132167286Y-114117381D01*
X132453000Y-114117381D02*
X132453000Y-113117381D01*
X132357762Y-113260238D01*
X132262524Y-113355476D01*
X132167286Y-113403095D01*
X131659334Y-116054143D02*
X131611715Y-116101762D01*
X131468858Y-116149381D01*
X131373620Y-116149381D01*
X131230762Y-116101762D01*
X131135524Y-116006524D01*
X131087905Y-115911286D01*
X131040286Y-115720810D01*
X131040286Y-115577952D01*
X131087905Y-115387476D01*
X131135524Y-115292238D01*
X131230762Y-115197000D01*
X131373620Y-115149381D01*
X131468858Y-115149381D01*
X131611715Y-115197000D01*
X131659334Y-115244619D01*
X132040286Y-115244619D02*
X132087905Y-115197000D01*
X132183143Y-115149381D01*
X132421239Y-115149381D01*
X132516477Y-115197000D01*
X132564096Y-115244619D01*
X132611715Y-115339857D01*
X132611715Y-115435095D01*
X132564096Y-115577952D01*
X131992667Y-116149381D01*
X132611715Y-116149381D01*
X137501334Y-121610381D02*
X137168000Y-121134190D01*
X136929905Y-121610381D02*
X136929905Y-120610381D01*
X137310858Y-120610381D01*
X137406096Y-120658000D01*
X137453715Y-120705619D01*
X137501334Y-120800857D01*
X137501334Y-120943714D01*
X137453715Y-121038952D01*
X137406096Y-121086571D01*
X137310858Y-121134190D01*
X136929905Y-121134190D01*
X138453715Y-121610381D02*
X137882286Y-121610381D01*
X138168000Y-121610381D02*
X138168000Y-120610381D01*
X138072762Y-120753238D01*
X137977524Y-120848476D01*
X137882286Y-120896095D01*
X144105334Y-121610381D02*
X143772000Y-121134190D01*
X143533905Y-121610381D02*
X143533905Y-120610381D01*
X143914858Y-120610381D01*
X144010096Y-120658000D01*
X144057715Y-120705619D01*
X144105334Y-120800857D01*
X144105334Y-120943714D01*
X144057715Y-121038952D01*
X144010096Y-121086571D01*
X143914858Y-121134190D01*
X143533905Y-121134190D01*
X144486286Y-120705619D02*
X144533905Y-120658000D01*
X144629143Y-120610381D01*
X144867239Y-120610381D01*
X144962477Y-120658000D01*
X145010096Y-120705619D01*
X145057715Y-120800857D01*
X145057715Y-120896095D01*
X145010096Y-121038952D01*
X144438667Y-121610381D01*
X145057715Y-121610381D01*
X140253095Y-115702381D02*
X140253095Y-116511905D01*
X140300714Y-116607143D01*
X140348333Y-116654762D01*
X140443571Y-116702381D01*
X140634048Y-116702381D01*
X140729286Y-116654762D01*
X140776905Y-116607143D01*
X140824524Y-116511905D01*
X140824524Y-115702381D01*
X141824524Y-116702381D02*
X141253095Y-116702381D01*
X141538809Y-116702381D02*
X141538809Y-115702381D01*
X141443571Y-115845238D01*
X141348333Y-115940476D01*
X141253095Y-115988095D01*
M02*
