G04 #@! TF.FileFunction,Copper,L2,Bot,Signal*
%FSLAX46Y46*%
G04 Gerber Fmt 4.6, Leading zero omitted, Abs format (unit mm)*
G04 Created by KiCad (PCBNEW 4.0.7) date 08/21/18 13:20:54*
%MOMM*%
%LPD*%
G01*
G04 APERTURE LIST*
%ADD10C,0.100000*%
%ADD11C,0.600000*%
%ADD12R,1.700000X1.700000*%
%ADD13O,1.700000X1.700000*%
%ADD14C,0.254000*%
G04 APERTURE END LIST*
D10*
D11*
X137541000Y-101346000D03*
X135001000Y-117983000D03*
X0Y0D03*
D12*
X153670000Y-122301000D03*
D13*
X153670000Y-119761000D03*
X153670000Y-117221000D03*
X153670000Y-114681000D03*
X153670000Y-112141000D03*
X153670000Y-109601000D03*
X153670000Y-107061000D03*
D11*
X135001000Y-119634000D03*
D14*
G36*
X161596000Y-101132092D02*
X161596000Y-131277908D01*
X156169908Y-136704000D01*
X126024092Y-136704000D01*
X121483146Y-132163054D01*
X122787528Y-132163054D01*
X123201814Y-133165703D01*
X123968262Y-133933490D01*
X124970186Y-134349526D01*
X126055054Y-134350472D01*
X127057703Y-133936186D01*
X127825490Y-133169738D01*
X128241526Y-132167814D01*
X128241530Y-132163054D01*
X153787528Y-132163054D01*
X154201814Y-133165703D01*
X154968262Y-133933490D01*
X155970186Y-134349526D01*
X157055054Y-134350472D01*
X158057703Y-133936186D01*
X158825490Y-133169738D01*
X159241526Y-132167814D01*
X159242472Y-131082946D01*
X158828186Y-130080297D01*
X158061738Y-129312510D01*
X157059814Y-128896474D01*
X155974946Y-128895528D01*
X154972297Y-129309814D01*
X154204510Y-130076262D01*
X153788474Y-131078186D01*
X153787528Y-132163054D01*
X128241530Y-132163054D01*
X128242472Y-131082946D01*
X127828186Y-130080297D01*
X127061738Y-129312510D01*
X126059814Y-128896474D01*
X124974946Y-128895528D01*
X123972297Y-129309814D01*
X123204510Y-130076262D01*
X122788474Y-131078186D01*
X122787528Y-132163054D01*
X121483146Y-132163054D01*
X120852000Y-131531908D01*
X120852000Y-112141000D01*
X152155907Y-112141000D01*
X152268946Y-112709285D01*
X152590853Y-113191054D01*
X152920026Y-113411000D01*
X152590853Y-113630946D01*
X152268946Y-114112715D01*
X152155907Y-114681000D01*
X152268946Y-115249285D01*
X152590853Y-115731054D01*
X152920026Y-115951000D01*
X152590853Y-116170946D01*
X152268946Y-116652715D01*
X152155907Y-117221000D01*
X152268946Y-117789285D01*
X152590853Y-118271054D01*
X152920026Y-118491000D01*
X152590853Y-118710946D01*
X152268946Y-119192715D01*
X152155907Y-119761000D01*
X152268946Y-120329285D01*
X152590853Y-120811054D01*
X152632452Y-120838850D01*
X152584683Y-120847838D01*
X152368559Y-120986910D01*
X152223569Y-121199110D01*
X152172560Y-121451000D01*
X152172560Y-123151000D01*
X152216838Y-123386317D01*
X152355910Y-123602441D01*
X152568110Y-123747431D01*
X152820000Y-123798440D01*
X154520000Y-123798440D01*
X154755317Y-123754162D01*
X154971441Y-123615090D01*
X155116431Y-123402890D01*
X155167440Y-123151000D01*
X155167440Y-121451000D01*
X155123162Y-121215683D01*
X154984090Y-120999559D01*
X154771890Y-120854569D01*
X154704459Y-120840914D01*
X154749147Y-120811054D01*
X155071054Y-120329285D01*
X155184093Y-119761000D01*
X155071054Y-119192715D01*
X154749147Y-118710946D01*
X154419974Y-118491000D01*
X154749147Y-118271054D01*
X155071054Y-117789285D01*
X155184093Y-117221000D01*
X155071054Y-116652715D01*
X154749147Y-116170946D01*
X154419974Y-115951000D01*
X154749147Y-115731054D01*
X155071054Y-115249285D01*
X155184093Y-114681000D01*
X155071054Y-114112715D01*
X154749147Y-113630946D01*
X154419974Y-113411000D01*
X154749147Y-113191054D01*
X155071054Y-112709285D01*
X155184093Y-112141000D01*
X155071054Y-111572715D01*
X154749147Y-111090946D01*
X154408447Y-110863298D01*
X154551358Y-110796183D01*
X154941645Y-110367924D01*
X155111476Y-109957890D01*
X154990155Y-109728000D01*
X153797000Y-109728000D01*
X153797000Y-109748000D01*
X153543000Y-109748000D01*
X153543000Y-109728000D01*
X152349845Y-109728000D01*
X152228524Y-109957890D01*
X152398355Y-110367924D01*
X152788642Y-110796183D01*
X152931553Y-110863298D01*
X152590853Y-111090946D01*
X152268946Y-111572715D01*
X152155907Y-112141000D01*
X120852000Y-112141000D01*
X120852000Y-107061000D01*
X152155907Y-107061000D01*
X152268946Y-107629285D01*
X152590853Y-108111054D01*
X152931553Y-108338702D01*
X152788642Y-108405817D01*
X152398355Y-108834076D01*
X152228524Y-109244110D01*
X152349845Y-109474000D01*
X153543000Y-109474000D01*
X153543000Y-109454000D01*
X153797000Y-109454000D01*
X153797000Y-109474000D01*
X154990155Y-109474000D01*
X155111476Y-109244110D01*
X154941645Y-108834076D01*
X154551358Y-108405817D01*
X154408447Y-108338702D01*
X154749147Y-108111054D01*
X155071054Y-107629285D01*
X155184093Y-107061000D01*
X155071054Y-106492715D01*
X154749147Y-106010946D01*
X154267378Y-105689039D01*
X153699093Y-105576000D01*
X153640907Y-105576000D01*
X153072622Y-105689039D01*
X152590853Y-106010946D01*
X152268946Y-106492715D01*
X152155907Y-107061000D01*
X120852000Y-107061000D01*
X120852000Y-101163054D01*
X122787528Y-101163054D01*
X123201814Y-102165703D01*
X123968262Y-102933490D01*
X124970186Y-103349526D01*
X126055054Y-103350472D01*
X127057703Y-102936186D01*
X127825490Y-102169738D01*
X128241526Y-101167814D01*
X128241530Y-101163054D01*
X153787528Y-101163054D01*
X154201814Y-102165703D01*
X154968262Y-102933490D01*
X155970186Y-103349526D01*
X157055054Y-103350472D01*
X158057703Y-102936186D01*
X158825490Y-102169738D01*
X159241526Y-101167814D01*
X159242472Y-100082946D01*
X158828186Y-99080297D01*
X158061738Y-98312510D01*
X157059814Y-97896474D01*
X155974946Y-97895528D01*
X154972297Y-98309814D01*
X154204510Y-99076262D01*
X153788474Y-100078186D01*
X153787528Y-101163054D01*
X128241530Y-101163054D01*
X128242472Y-100082946D01*
X127828186Y-99080297D01*
X127061738Y-98312510D01*
X126059814Y-97896474D01*
X124974946Y-97895528D01*
X123972297Y-98309814D01*
X123204510Y-99076262D01*
X122788474Y-100078186D01*
X122787528Y-101163054D01*
X120852000Y-101163054D01*
X120852000Y-100878092D01*
X125770092Y-95960000D01*
X156423908Y-95960000D01*
X161596000Y-101132092D01*
X161596000Y-101132092D01*
G37*
X161596000Y-101132092D02*
X161596000Y-131277908D01*
X156169908Y-136704000D01*
X126024092Y-136704000D01*
X121483146Y-132163054D01*
X122787528Y-132163054D01*
X123201814Y-133165703D01*
X123968262Y-133933490D01*
X124970186Y-134349526D01*
X126055054Y-134350472D01*
X127057703Y-133936186D01*
X127825490Y-133169738D01*
X128241526Y-132167814D01*
X128241530Y-132163054D01*
X153787528Y-132163054D01*
X154201814Y-133165703D01*
X154968262Y-133933490D01*
X155970186Y-134349526D01*
X157055054Y-134350472D01*
X158057703Y-133936186D01*
X158825490Y-133169738D01*
X159241526Y-132167814D01*
X159242472Y-131082946D01*
X158828186Y-130080297D01*
X158061738Y-129312510D01*
X157059814Y-128896474D01*
X155974946Y-128895528D01*
X154972297Y-129309814D01*
X154204510Y-130076262D01*
X153788474Y-131078186D01*
X153787528Y-132163054D01*
X128241530Y-132163054D01*
X128242472Y-131082946D01*
X127828186Y-130080297D01*
X127061738Y-129312510D01*
X126059814Y-128896474D01*
X124974946Y-128895528D01*
X123972297Y-129309814D01*
X123204510Y-130076262D01*
X122788474Y-131078186D01*
X122787528Y-132163054D01*
X121483146Y-132163054D01*
X120852000Y-131531908D01*
X120852000Y-112141000D01*
X152155907Y-112141000D01*
X152268946Y-112709285D01*
X152590853Y-113191054D01*
X152920026Y-113411000D01*
X152590853Y-113630946D01*
X152268946Y-114112715D01*
X152155907Y-114681000D01*
X152268946Y-115249285D01*
X152590853Y-115731054D01*
X152920026Y-115951000D01*
X152590853Y-116170946D01*
X152268946Y-116652715D01*
X152155907Y-117221000D01*
X152268946Y-117789285D01*
X152590853Y-118271054D01*
X152920026Y-118491000D01*
X152590853Y-118710946D01*
X152268946Y-119192715D01*
X152155907Y-119761000D01*
X152268946Y-120329285D01*
X152590853Y-120811054D01*
X152632452Y-120838850D01*
X152584683Y-120847838D01*
X152368559Y-120986910D01*
X152223569Y-121199110D01*
X152172560Y-121451000D01*
X152172560Y-123151000D01*
X152216838Y-123386317D01*
X152355910Y-123602441D01*
X152568110Y-123747431D01*
X152820000Y-123798440D01*
X154520000Y-123798440D01*
X154755317Y-123754162D01*
X154971441Y-123615090D01*
X155116431Y-123402890D01*
X155167440Y-123151000D01*
X155167440Y-121451000D01*
X155123162Y-121215683D01*
X154984090Y-120999559D01*
X154771890Y-120854569D01*
X154704459Y-120840914D01*
X154749147Y-120811054D01*
X155071054Y-120329285D01*
X155184093Y-119761000D01*
X155071054Y-119192715D01*
X154749147Y-118710946D01*
X154419974Y-118491000D01*
X154749147Y-118271054D01*
X155071054Y-117789285D01*
X155184093Y-117221000D01*
X155071054Y-116652715D01*
X154749147Y-116170946D01*
X154419974Y-115951000D01*
X154749147Y-115731054D01*
X155071054Y-115249285D01*
X155184093Y-114681000D01*
X155071054Y-114112715D01*
X154749147Y-113630946D01*
X154419974Y-113411000D01*
X154749147Y-113191054D01*
X155071054Y-112709285D01*
X155184093Y-112141000D01*
X155071054Y-111572715D01*
X154749147Y-111090946D01*
X154408447Y-110863298D01*
X154551358Y-110796183D01*
X154941645Y-110367924D01*
X155111476Y-109957890D01*
X154990155Y-109728000D01*
X153797000Y-109728000D01*
X153797000Y-109748000D01*
X153543000Y-109748000D01*
X153543000Y-109728000D01*
X152349845Y-109728000D01*
X152228524Y-109957890D01*
X152398355Y-110367924D01*
X152788642Y-110796183D01*
X152931553Y-110863298D01*
X152590853Y-111090946D01*
X152268946Y-111572715D01*
X152155907Y-112141000D01*
X120852000Y-112141000D01*
X120852000Y-107061000D01*
X152155907Y-107061000D01*
X152268946Y-107629285D01*
X152590853Y-108111054D01*
X152931553Y-108338702D01*
X152788642Y-108405817D01*
X152398355Y-108834076D01*
X152228524Y-109244110D01*
X152349845Y-109474000D01*
X153543000Y-109474000D01*
X153543000Y-109454000D01*
X153797000Y-109454000D01*
X153797000Y-109474000D01*
X154990155Y-109474000D01*
X155111476Y-109244110D01*
X154941645Y-108834076D01*
X154551358Y-108405817D01*
X154408447Y-108338702D01*
X154749147Y-108111054D01*
X155071054Y-107629285D01*
X155184093Y-107061000D01*
X155071054Y-106492715D01*
X154749147Y-106010946D01*
X154267378Y-105689039D01*
X153699093Y-105576000D01*
X153640907Y-105576000D01*
X153072622Y-105689039D01*
X152590853Y-106010946D01*
X152268946Y-106492715D01*
X152155907Y-107061000D01*
X120852000Y-107061000D01*
X120852000Y-101163054D01*
X122787528Y-101163054D01*
X123201814Y-102165703D01*
X123968262Y-102933490D01*
X124970186Y-103349526D01*
X126055054Y-103350472D01*
X127057703Y-102936186D01*
X127825490Y-102169738D01*
X128241526Y-101167814D01*
X128241530Y-101163054D01*
X153787528Y-101163054D01*
X154201814Y-102165703D01*
X154968262Y-102933490D01*
X155970186Y-103349526D01*
X157055054Y-103350472D01*
X158057703Y-102936186D01*
X158825490Y-102169738D01*
X159241526Y-101167814D01*
X159242472Y-100082946D01*
X158828186Y-99080297D01*
X158061738Y-98312510D01*
X157059814Y-97896474D01*
X155974946Y-97895528D01*
X154972297Y-98309814D01*
X154204510Y-99076262D01*
X153788474Y-100078186D01*
X153787528Y-101163054D01*
X128241530Y-101163054D01*
X128242472Y-100082946D01*
X127828186Y-99080297D01*
X127061738Y-98312510D01*
X126059814Y-97896474D01*
X124974946Y-97895528D01*
X123972297Y-98309814D01*
X123204510Y-99076262D01*
X122788474Y-100078186D01*
X122787528Y-101163054D01*
X120852000Y-101163054D01*
X120852000Y-100878092D01*
X125770092Y-95960000D01*
X156423908Y-95960000D01*
X161596000Y-101132092D01*
M02*
