G04 #@! TF.FileFunction,Copper,L1,Top,Signal*
%FSLAX46Y46*%
G04 Gerber Fmt 4.6, Leading zero omitted, Abs format (unit mm)*
G04 Created by KiCad (PCBNEW 4.0.7) date 08/21/18 13:20:54*
%MOMM*%
%LPD*%
G01*
G04 APERTURE LIST*
%ADD10C,0.100000*%
%ADD11C,0.600000*%
%ADD12R,1.000000X1.250000*%
%ADD13R,1.300000X0.700000*%
%ADD14R,1.143000X0.508000*%
%ADD15R,1.700000X1.700000*%
%ADD16O,1.700000X1.700000*%
%ADD17C,0.250000*%
%ADD18C,0.254000*%
G04 APERTURE END LIST*
D10*
D11*
X137541000Y-101346000D03*
X135001000Y-117983000D03*
X0Y0D03*
D12*
X133747000Y-115570000D03*
X135747000Y-115570000D03*
X135747000Y-113665000D03*
X133747000Y-113665000D03*
D13*
X139827000Y-122108000D03*
X139827000Y-120208000D03*
X142240000Y-120208000D03*
X142240000Y-122108000D03*
D14*
X144190000Y-114218000D03*
X144190000Y-115488000D03*
X144190000Y-116758000D03*
X144190000Y-118028000D03*
X137840000Y-118028000D03*
X137840000Y-116758000D03*
X137840000Y-115488000D03*
X137840000Y-114218000D03*
D15*
X153670000Y-122301000D03*
D16*
X153670000Y-119761000D03*
X153670000Y-117221000D03*
X153670000Y-114681000D03*
X153670000Y-112141000D03*
X153670000Y-109601000D03*
X153670000Y-107061000D03*
D11*
X135001000Y-119634000D03*
D17*
X137840000Y-115488000D02*
X135829000Y-115488000D01*
X135829000Y-115488000D02*
X135747000Y-115570000D01*
X135874000Y-115697000D02*
X135747000Y-115570000D01*
X153670000Y-107061000D02*
X144997000Y-107061000D01*
X144997000Y-107061000D02*
X137840000Y-114218000D01*
X135747000Y-113665000D02*
X137287000Y-113665000D01*
X137287000Y-113665000D02*
X137840000Y-114218000D01*
X137840000Y-116758000D02*
X138893000Y-116758000D01*
X143510000Y-112141000D02*
X153670000Y-112141000D01*
X138893000Y-116758000D02*
X143510000Y-112141000D01*
X144190000Y-114218000D02*
X145841000Y-114218000D01*
X146304000Y-114681000D02*
X153670000Y-114681000D01*
X145841000Y-114218000D02*
X146304000Y-114681000D01*
X144190000Y-115488000D02*
X142830000Y-115488000D01*
X139827000Y-118491000D02*
X139827000Y-120208000D01*
X142830000Y-115488000D02*
X139827000Y-118491000D01*
X144190000Y-115488000D02*
X145333000Y-115488000D01*
X147066000Y-117221000D02*
X153670000Y-117221000D01*
X145333000Y-115488000D02*
X147066000Y-117221000D01*
X142240000Y-120208000D02*
X142240000Y-117729000D01*
X143211000Y-116758000D02*
X144190000Y-116758000D01*
X142240000Y-117729000D02*
X143211000Y-116758000D01*
X144190000Y-116758000D02*
X145079000Y-116758000D01*
X148082000Y-119761000D02*
X153670000Y-119761000D01*
X145079000Y-116758000D02*
X148082000Y-119761000D01*
X144190000Y-118028000D02*
X145333000Y-118028000D01*
X149606000Y-122301000D02*
X153670000Y-122301000D01*
X145333000Y-118028000D02*
X149606000Y-122301000D01*
D18*
G36*
X161596000Y-101132092D02*
X161596000Y-131277908D01*
X156169908Y-136704000D01*
X126024092Y-136704000D01*
X121483146Y-132163054D01*
X122787528Y-132163054D01*
X123201814Y-133165703D01*
X123968262Y-133933490D01*
X124970186Y-134349526D01*
X126055054Y-134350472D01*
X127057703Y-133936186D01*
X127825490Y-133169738D01*
X128241526Y-132167814D01*
X128241530Y-132163054D01*
X153787528Y-132163054D01*
X154201814Y-133165703D01*
X154968262Y-133933490D01*
X155970186Y-134349526D01*
X157055054Y-134350472D01*
X158057703Y-133936186D01*
X158825490Y-133169738D01*
X159241526Y-132167814D01*
X159242472Y-131082946D01*
X158828186Y-130080297D01*
X158061738Y-129312510D01*
X157059814Y-128896474D01*
X155974946Y-128895528D01*
X154972297Y-129309814D01*
X154204510Y-130076262D01*
X153788474Y-131078186D01*
X153787528Y-132163054D01*
X128241530Y-132163054D01*
X128242472Y-131082946D01*
X127828186Y-130080297D01*
X127061738Y-129312510D01*
X126059814Y-128896474D01*
X124974946Y-128895528D01*
X123972297Y-129309814D01*
X123204510Y-130076262D01*
X122788474Y-131078186D01*
X122787528Y-132163054D01*
X121483146Y-132163054D01*
X120852000Y-131531908D01*
X120852000Y-122393750D01*
X138542000Y-122393750D01*
X138542000Y-122584309D01*
X138638673Y-122817698D01*
X138817301Y-122996327D01*
X139050690Y-123093000D01*
X139541250Y-123093000D01*
X139700000Y-122934250D01*
X139700000Y-122235000D01*
X139954000Y-122235000D01*
X139954000Y-122934250D01*
X140112750Y-123093000D01*
X140603310Y-123093000D01*
X140836699Y-122996327D01*
X141015327Y-122817698D01*
X141033500Y-122773825D01*
X141051673Y-122817698D01*
X141230301Y-122996327D01*
X141463690Y-123093000D01*
X141954250Y-123093000D01*
X142113000Y-122934250D01*
X142113000Y-122235000D01*
X142367000Y-122235000D01*
X142367000Y-122934250D01*
X142525750Y-123093000D01*
X143016310Y-123093000D01*
X143249699Y-122996327D01*
X143428327Y-122817698D01*
X143525000Y-122584309D01*
X143525000Y-122393750D01*
X143366250Y-122235000D01*
X142367000Y-122235000D01*
X142113000Y-122235000D01*
X141113750Y-122235000D01*
X141033500Y-122315250D01*
X140953250Y-122235000D01*
X139954000Y-122235000D01*
X139700000Y-122235000D01*
X138700750Y-122235000D01*
X138542000Y-122393750D01*
X120852000Y-122393750D01*
X120852000Y-118313750D01*
X136633500Y-118313750D01*
X136633500Y-118408309D01*
X136730173Y-118641698D01*
X136908801Y-118820327D01*
X137142190Y-118917000D01*
X137554250Y-118917000D01*
X137713000Y-118758250D01*
X137713000Y-118155000D01*
X137967000Y-118155000D01*
X137967000Y-118758250D01*
X138125750Y-118917000D01*
X138537810Y-118917000D01*
X138771199Y-118820327D01*
X138949827Y-118641698D01*
X139046500Y-118408309D01*
X139046500Y-118313750D01*
X138887750Y-118155000D01*
X137967000Y-118155000D01*
X137713000Y-118155000D01*
X136792250Y-118155000D01*
X136633500Y-118313750D01*
X120852000Y-118313750D01*
X120852000Y-115855750D01*
X132612000Y-115855750D01*
X132612000Y-116321310D01*
X132708673Y-116554699D01*
X132887302Y-116733327D01*
X133120691Y-116830000D01*
X133461250Y-116830000D01*
X133620000Y-116671250D01*
X133620000Y-115697000D01*
X132770750Y-115697000D01*
X132612000Y-115855750D01*
X120852000Y-115855750D01*
X120852000Y-113950750D01*
X132612000Y-113950750D01*
X132612000Y-114416310D01*
X132695336Y-114617500D01*
X132612000Y-114818690D01*
X132612000Y-115284250D01*
X132770750Y-115443000D01*
X133620000Y-115443000D01*
X133620000Y-113792000D01*
X132770750Y-113792000D01*
X132612000Y-113950750D01*
X120852000Y-113950750D01*
X120852000Y-112913690D01*
X132612000Y-112913690D01*
X132612000Y-113379250D01*
X132770750Y-113538000D01*
X133620000Y-113538000D01*
X133620000Y-112563750D01*
X133874000Y-112563750D01*
X133874000Y-113538000D01*
X133894000Y-113538000D01*
X133894000Y-113792000D01*
X133874000Y-113792000D01*
X133874000Y-115443000D01*
X133894000Y-115443000D01*
X133894000Y-115697000D01*
X133874000Y-115697000D01*
X133874000Y-116671250D01*
X134032750Y-116830000D01*
X134373309Y-116830000D01*
X134606698Y-116733327D01*
X134747936Y-116592090D01*
X134782910Y-116646441D01*
X134995110Y-116791431D01*
X135247000Y-116842440D01*
X136247000Y-116842440D01*
X136482317Y-116798162D01*
X136621060Y-116708883D01*
X136621060Y-117012000D01*
X136665338Y-117247317D01*
X136756104Y-117388371D01*
X136730173Y-117414302D01*
X136633500Y-117647691D01*
X136633500Y-117742250D01*
X136792250Y-117901000D01*
X137713000Y-117901000D01*
X137713000Y-117881000D01*
X137967000Y-117881000D01*
X137967000Y-117901000D01*
X138887750Y-117901000D01*
X139046500Y-117742250D01*
X139046500Y-117647691D01*
X138985185Y-117499663D01*
X139183839Y-117460148D01*
X139430401Y-117295401D01*
X143040140Y-113685662D01*
X143022069Y-113712110D01*
X142971060Y-113964000D01*
X142971060Y-114472000D01*
X143015338Y-114707317D01*
X143028647Y-114728000D01*
X142830000Y-114728000D01*
X142539160Y-114785852D01*
X142292599Y-114950599D01*
X139289599Y-117953599D01*
X139124852Y-118200161D01*
X139067000Y-118491000D01*
X139067000Y-119231258D01*
X138941683Y-119254838D01*
X138725559Y-119393910D01*
X138580569Y-119606110D01*
X138529560Y-119858000D01*
X138529560Y-120558000D01*
X138573838Y-120793317D01*
X138712910Y-121009441D01*
X138925110Y-121154431D01*
X138958490Y-121161191D01*
X138817301Y-121219673D01*
X138638673Y-121398302D01*
X138542000Y-121631691D01*
X138542000Y-121822250D01*
X138700750Y-121981000D01*
X139700000Y-121981000D01*
X139700000Y-121961000D01*
X139954000Y-121961000D01*
X139954000Y-121981000D01*
X140953250Y-121981000D01*
X141033500Y-121900750D01*
X141113750Y-121981000D01*
X142113000Y-121981000D01*
X142113000Y-121961000D01*
X142367000Y-121961000D01*
X142367000Y-121981000D01*
X143366250Y-121981000D01*
X143525000Y-121822250D01*
X143525000Y-121631691D01*
X143428327Y-121398302D01*
X143249699Y-121219673D01*
X143113713Y-121163346D01*
X143125317Y-121161162D01*
X143341441Y-121022090D01*
X143486431Y-120809890D01*
X143537440Y-120558000D01*
X143537440Y-119858000D01*
X143493162Y-119622683D01*
X143354090Y-119406559D01*
X143141890Y-119261569D01*
X143000000Y-119232836D01*
X143000000Y-118435803D01*
X143015338Y-118517317D01*
X143154410Y-118733441D01*
X143366610Y-118878431D01*
X143618500Y-118929440D01*
X144761500Y-118929440D01*
X144996817Y-118885162D01*
X145068946Y-118838748D01*
X149068599Y-122838401D01*
X149315161Y-123003148D01*
X149606000Y-123061000D01*
X152172560Y-123061000D01*
X152172560Y-123151000D01*
X152216838Y-123386317D01*
X152355910Y-123602441D01*
X152568110Y-123747431D01*
X152820000Y-123798440D01*
X154520000Y-123798440D01*
X154755317Y-123754162D01*
X154971441Y-123615090D01*
X155116431Y-123402890D01*
X155167440Y-123151000D01*
X155167440Y-121451000D01*
X155123162Y-121215683D01*
X154984090Y-120999559D01*
X154771890Y-120854569D01*
X154704459Y-120840914D01*
X154749147Y-120811054D01*
X155071054Y-120329285D01*
X155184093Y-119761000D01*
X155071054Y-119192715D01*
X154749147Y-118710946D01*
X154419974Y-118491000D01*
X154749147Y-118271054D01*
X155071054Y-117789285D01*
X155184093Y-117221000D01*
X155071054Y-116652715D01*
X154749147Y-116170946D01*
X154419974Y-115951000D01*
X154749147Y-115731054D01*
X155071054Y-115249285D01*
X155184093Y-114681000D01*
X155071054Y-114112715D01*
X154749147Y-113630946D01*
X154419974Y-113411000D01*
X154749147Y-113191054D01*
X155071054Y-112709285D01*
X155184093Y-112141000D01*
X155071054Y-111572715D01*
X154749147Y-111090946D01*
X154408447Y-110863298D01*
X154551358Y-110796183D01*
X154941645Y-110367924D01*
X155111476Y-109957890D01*
X154990155Y-109728000D01*
X153797000Y-109728000D01*
X153797000Y-109748000D01*
X153543000Y-109748000D01*
X153543000Y-109728000D01*
X152349845Y-109728000D01*
X152228524Y-109957890D01*
X152398355Y-110367924D01*
X152788642Y-110796183D01*
X152931553Y-110863298D01*
X152590853Y-111090946D01*
X152397046Y-111381000D01*
X143510000Y-111381000D01*
X143219161Y-111438852D01*
X142972599Y-111603599D01*
X139058940Y-115517258D01*
X139058940Y-115234000D01*
X139014662Y-114998683D01*
X138920334Y-114852093D01*
X139007931Y-114723890D01*
X139058940Y-114472000D01*
X139058940Y-114073862D01*
X145311802Y-107821000D01*
X152397046Y-107821000D01*
X152590853Y-108111054D01*
X152931553Y-108338702D01*
X152788642Y-108405817D01*
X152398355Y-108834076D01*
X152228524Y-109244110D01*
X152349845Y-109474000D01*
X153543000Y-109474000D01*
X153543000Y-109454000D01*
X153797000Y-109454000D01*
X153797000Y-109474000D01*
X154990155Y-109474000D01*
X155111476Y-109244110D01*
X154941645Y-108834076D01*
X154551358Y-108405817D01*
X154408447Y-108338702D01*
X154749147Y-108111054D01*
X155071054Y-107629285D01*
X155184093Y-107061000D01*
X155071054Y-106492715D01*
X154749147Y-106010946D01*
X154267378Y-105689039D01*
X153699093Y-105576000D01*
X153640907Y-105576000D01*
X153072622Y-105689039D01*
X152590853Y-106010946D01*
X152397046Y-106301000D01*
X144997000Y-106301000D01*
X144754414Y-106349254D01*
X144706160Y-106358852D01*
X144459599Y-106523599D01*
X137840000Y-113143198D01*
X137824401Y-113127599D01*
X137577839Y-112962852D01*
X137287000Y-112905000D01*
X136869038Y-112905000D01*
X136850162Y-112804683D01*
X136711090Y-112588559D01*
X136498890Y-112443569D01*
X136247000Y-112392560D01*
X135247000Y-112392560D01*
X135011683Y-112436838D01*
X134795559Y-112575910D01*
X134749031Y-112644006D01*
X134606698Y-112501673D01*
X134373309Y-112405000D01*
X134032750Y-112405000D01*
X133874000Y-112563750D01*
X133620000Y-112563750D01*
X133461250Y-112405000D01*
X133120691Y-112405000D01*
X132887302Y-112501673D01*
X132708673Y-112680301D01*
X132612000Y-112913690D01*
X120852000Y-112913690D01*
X120852000Y-101163054D01*
X122787528Y-101163054D01*
X123201814Y-102165703D01*
X123968262Y-102933490D01*
X124970186Y-103349526D01*
X126055054Y-103350472D01*
X127057703Y-102936186D01*
X127825490Y-102169738D01*
X128241526Y-101167814D01*
X128241530Y-101163054D01*
X153787528Y-101163054D01*
X154201814Y-102165703D01*
X154968262Y-102933490D01*
X155970186Y-103349526D01*
X157055054Y-103350472D01*
X158057703Y-102936186D01*
X158825490Y-102169738D01*
X159241526Y-101167814D01*
X159242472Y-100082946D01*
X158828186Y-99080297D01*
X158061738Y-98312510D01*
X157059814Y-97896474D01*
X155974946Y-97895528D01*
X154972297Y-98309814D01*
X154204510Y-99076262D01*
X153788474Y-100078186D01*
X153787528Y-101163054D01*
X128241530Y-101163054D01*
X128242472Y-100082946D01*
X127828186Y-99080297D01*
X127061738Y-98312510D01*
X126059814Y-97896474D01*
X124974946Y-97895528D01*
X123972297Y-98309814D01*
X123204510Y-99076262D01*
X122788474Y-100078186D01*
X122787528Y-101163054D01*
X120852000Y-101163054D01*
X120852000Y-100878092D01*
X125770092Y-95960000D01*
X156423908Y-95960000D01*
X161596000Y-101132092D01*
X161596000Y-101132092D01*
G37*
X161596000Y-101132092D02*
X161596000Y-131277908D01*
X156169908Y-136704000D01*
X126024092Y-136704000D01*
X121483146Y-132163054D01*
X122787528Y-132163054D01*
X123201814Y-133165703D01*
X123968262Y-133933490D01*
X124970186Y-134349526D01*
X126055054Y-134350472D01*
X127057703Y-133936186D01*
X127825490Y-133169738D01*
X128241526Y-132167814D01*
X128241530Y-132163054D01*
X153787528Y-132163054D01*
X154201814Y-133165703D01*
X154968262Y-133933490D01*
X155970186Y-134349526D01*
X157055054Y-134350472D01*
X158057703Y-133936186D01*
X158825490Y-133169738D01*
X159241526Y-132167814D01*
X159242472Y-131082946D01*
X158828186Y-130080297D01*
X158061738Y-129312510D01*
X157059814Y-128896474D01*
X155974946Y-128895528D01*
X154972297Y-129309814D01*
X154204510Y-130076262D01*
X153788474Y-131078186D01*
X153787528Y-132163054D01*
X128241530Y-132163054D01*
X128242472Y-131082946D01*
X127828186Y-130080297D01*
X127061738Y-129312510D01*
X126059814Y-128896474D01*
X124974946Y-128895528D01*
X123972297Y-129309814D01*
X123204510Y-130076262D01*
X122788474Y-131078186D01*
X122787528Y-132163054D01*
X121483146Y-132163054D01*
X120852000Y-131531908D01*
X120852000Y-122393750D01*
X138542000Y-122393750D01*
X138542000Y-122584309D01*
X138638673Y-122817698D01*
X138817301Y-122996327D01*
X139050690Y-123093000D01*
X139541250Y-123093000D01*
X139700000Y-122934250D01*
X139700000Y-122235000D01*
X139954000Y-122235000D01*
X139954000Y-122934250D01*
X140112750Y-123093000D01*
X140603310Y-123093000D01*
X140836699Y-122996327D01*
X141015327Y-122817698D01*
X141033500Y-122773825D01*
X141051673Y-122817698D01*
X141230301Y-122996327D01*
X141463690Y-123093000D01*
X141954250Y-123093000D01*
X142113000Y-122934250D01*
X142113000Y-122235000D01*
X142367000Y-122235000D01*
X142367000Y-122934250D01*
X142525750Y-123093000D01*
X143016310Y-123093000D01*
X143249699Y-122996327D01*
X143428327Y-122817698D01*
X143525000Y-122584309D01*
X143525000Y-122393750D01*
X143366250Y-122235000D01*
X142367000Y-122235000D01*
X142113000Y-122235000D01*
X141113750Y-122235000D01*
X141033500Y-122315250D01*
X140953250Y-122235000D01*
X139954000Y-122235000D01*
X139700000Y-122235000D01*
X138700750Y-122235000D01*
X138542000Y-122393750D01*
X120852000Y-122393750D01*
X120852000Y-118313750D01*
X136633500Y-118313750D01*
X136633500Y-118408309D01*
X136730173Y-118641698D01*
X136908801Y-118820327D01*
X137142190Y-118917000D01*
X137554250Y-118917000D01*
X137713000Y-118758250D01*
X137713000Y-118155000D01*
X137967000Y-118155000D01*
X137967000Y-118758250D01*
X138125750Y-118917000D01*
X138537810Y-118917000D01*
X138771199Y-118820327D01*
X138949827Y-118641698D01*
X139046500Y-118408309D01*
X139046500Y-118313750D01*
X138887750Y-118155000D01*
X137967000Y-118155000D01*
X137713000Y-118155000D01*
X136792250Y-118155000D01*
X136633500Y-118313750D01*
X120852000Y-118313750D01*
X120852000Y-115855750D01*
X132612000Y-115855750D01*
X132612000Y-116321310D01*
X132708673Y-116554699D01*
X132887302Y-116733327D01*
X133120691Y-116830000D01*
X133461250Y-116830000D01*
X133620000Y-116671250D01*
X133620000Y-115697000D01*
X132770750Y-115697000D01*
X132612000Y-115855750D01*
X120852000Y-115855750D01*
X120852000Y-113950750D01*
X132612000Y-113950750D01*
X132612000Y-114416310D01*
X132695336Y-114617500D01*
X132612000Y-114818690D01*
X132612000Y-115284250D01*
X132770750Y-115443000D01*
X133620000Y-115443000D01*
X133620000Y-113792000D01*
X132770750Y-113792000D01*
X132612000Y-113950750D01*
X120852000Y-113950750D01*
X120852000Y-112913690D01*
X132612000Y-112913690D01*
X132612000Y-113379250D01*
X132770750Y-113538000D01*
X133620000Y-113538000D01*
X133620000Y-112563750D01*
X133874000Y-112563750D01*
X133874000Y-113538000D01*
X133894000Y-113538000D01*
X133894000Y-113792000D01*
X133874000Y-113792000D01*
X133874000Y-115443000D01*
X133894000Y-115443000D01*
X133894000Y-115697000D01*
X133874000Y-115697000D01*
X133874000Y-116671250D01*
X134032750Y-116830000D01*
X134373309Y-116830000D01*
X134606698Y-116733327D01*
X134747936Y-116592090D01*
X134782910Y-116646441D01*
X134995110Y-116791431D01*
X135247000Y-116842440D01*
X136247000Y-116842440D01*
X136482317Y-116798162D01*
X136621060Y-116708883D01*
X136621060Y-117012000D01*
X136665338Y-117247317D01*
X136756104Y-117388371D01*
X136730173Y-117414302D01*
X136633500Y-117647691D01*
X136633500Y-117742250D01*
X136792250Y-117901000D01*
X137713000Y-117901000D01*
X137713000Y-117881000D01*
X137967000Y-117881000D01*
X137967000Y-117901000D01*
X138887750Y-117901000D01*
X139046500Y-117742250D01*
X139046500Y-117647691D01*
X138985185Y-117499663D01*
X139183839Y-117460148D01*
X139430401Y-117295401D01*
X143040140Y-113685662D01*
X143022069Y-113712110D01*
X142971060Y-113964000D01*
X142971060Y-114472000D01*
X143015338Y-114707317D01*
X143028647Y-114728000D01*
X142830000Y-114728000D01*
X142539160Y-114785852D01*
X142292599Y-114950599D01*
X139289599Y-117953599D01*
X139124852Y-118200161D01*
X139067000Y-118491000D01*
X139067000Y-119231258D01*
X138941683Y-119254838D01*
X138725559Y-119393910D01*
X138580569Y-119606110D01*
X138529560Y-119858000D01*
X138529560Y-120558000D01*
X138573838Y-120793317D01*
X138712910Y-121009441D01*
X138925110Y-121154431D01*
X138958490Y-121161191D01*
X138817301Y-121219673D01*
X138638673Y-121398302D01*
X138542000Y-121631691D01*
X138542000Y-121822250D01*
X138700750Y-121981000D01*
X139700000Y-121981000D01*
X139700000Y-121961000D01*
X139954000Y-121961000D01*
X139954000Y-121981000D01*
X140953250Y-121981000D01*
X141033500Y-121900750D01*
X141113750Y-121981000D01*
X142113000Y-121981000D01*
X142113000Y-121961000D01*
X142367000Y-121961000D01*
X142367000Y-121981000D01*
X143366250Y-121981000D01*
X143525000Y-121822250D01*
X143525000Y-121631691D01*
X143428327Y-121398302D01*
X143249699Y-121219673D01*
X143113713Y-121163346D01*
X143125317Y-121161162D01*
X143341441Y-121022090D01*
X143486431Y-120809890D01*
X143537440Y-120558000D01*
X143537440Y-119858000D01*
X143493162Y-119622683D01*
X143354090Y-119406559D01*
X143141890Y-119261569D01*
X143000000Y-119232836D01*
X143000000Y-118435803D01*
X143015338Y-118517317D01*
X143154410Y-118733441D01*
X143366610Y-118878431D01*
X143618500Y-118929440D01*
X144761500Y-118929440D01*
X144996817Y-118885162D01*
X145068946Y-118838748D01*
X149068599Y-122838401D01*
X149315161Y-123003148D01*
X149606000Y-123061000D01*
X152172560Y-123061000D01*
X152172560Y-123151000D01*
X152216838Y-123386317D01*
X152355910Y-123602441D01*
X152568110Y-123747431D01*
X152820000Y-123798440D01*
X154520000Y-123798440D01*
X154755317Y-123754162D01*
X154971441Y-123615090D01*
X155116431Y-123402890D01*
X155167440Y-123151000D01*
X155167440Y-121451000D01*
X155123162Y-121215683D01*
X154984090Y-120999559D01*
X154771890Y-120854569D01*
X154704459Y-120840914D01*
X154749147Y-120811054D01*
X155071054Y-120329285D01*
X155184093Y-119761000D01*
X155071054Y-119192715D01*
X154749147Y-118710946D01*
X154419974Y-118491000D01*
X154749147Y-118271054D01*
X155071054Y-117789285D01*
X155184093Y-117221000D01*
X155071054Y-116652715D01*
X154749147Y-116170946D01*
X154419974Y-115951000D01*
X154749147Y-115731054D01*
X155071054Y-115249285D01*
X155184093Y-114681000D01*
X155071054Y-114112715D01*
X154749147Y-113630946D01*
X154419974Y-113411000D01*
X154749147Y-113191054D01*
X155071054Y-112709285D01*
X155184093Y-112141000D01*
X155071054Y-111572715D01*
X154749147Y-111090946D01*
X154408447Y-110863298D01*
X154551358Y-110796183D01*
X154941645Y-110367924D01*
X155111476Y-109957890D01*
X154990155Y-109728000D01*
X153797000Y-109728000D01*
X153797000Y-109748000D01*
X153543000Y-109748000D01*
X153543000Y-109728000D01*
X152349845Y-109728000D01*
X152228524Y-109957890D01*
X152398355Y-110367924D01*
X152788642Y-110796183D01*
X152931553Y-110863298D01*
X152590853Y-111090946D01*
X152397046Y-111381000D01*
X143510000Y-111381000D01*
X143219161Y-111438852D01*
X142972599Y-111603599D01*
X139058940Y-115517258D01*
X139058940Y-115234000D01*
X139014662Y-114998683D01*
X138920334Y-114852093D01*
X139007931Y-114723890D01*
X139058940Y-114472000D01*
X139058940Y-114073862D01*
X145311802Y-107821000D01*
X152397046Y-107821000D01*
X152590853Y-108111054D01*
X152931553Y-108338702D01*
X152788642Y-108405817D01*
X152398355Y-108834076D01*
X152228524Y-109244110D01*
X152349845Y-109474000D01*
X153543000Y-109474000D01*
X153543000Y-109454000D01*
X153797000Y-109454000D01*
X153797000Y-109474000D01*
X154990155Y-109474000D01*
X155111476Y-109244110D01*
X154941645Y-108834076D01*
X154551358Y-108405817D01*
X154408447Y-108338702D01*
X154749147Y-108111054D01*
X155071054Y-107629285D01*
X155184093Y-107061000D01*
X155071054Y-106492715D01*
X154749147Y-106010946D01*
X154267378Y-105689039D01*
X153699093Y-105576000D01*
X153640907Y-105576000D01*
X153072622Y-105689039D01*
X152590853Y-106010946D01*
X152397046Y-106301000D01*
X144997000Y-106301000D01*
X144754414Y-106349254D01*
X144706160Y-106358852D01*
X144459599Y-106523599D01*
X137840000Y-113143198D01*
X137824401Y-113127599D01*
X137577839Y-112962852D01*
X137287000Y-112905000D01*
X136869038Y-112905000D01*
X136850162Y-112804683D01*
X136711090Y-112588559D01*
X136498890Y-112443569D01*
X136247000Y-112392560D01*
X135247000Y-112392560D01*
X135011683Y-112436838D01*
X134795559Y-112575910D01*
X134749031Y-112644006D01*
X134606698Y-112501673D01*
X134373309Y-112405000D01*
X134032750Y-112405000D01*
X133874000Y-112563750D01*
X133620000Y-112563750D01*
X133461250Y-112405000D01*
X133120691Y-112405000D01*
X132887302Y-112501673D01*
X132708673Y-112680301D01*
X132612000Y-112913690D01*
X120852000Y-112913690D01*
X120852000Y-101163054D01*
X122787528Y-101163054D01*
X123201814Y-102165703D01*
X123968262Y-102933490D01*
X124970186Y-103349526D01*
X126055054Y-103350472D01*
X127057703Y-102936186D01*
X127825490Y-102169738D01*
X128241526Y-101167814D01*
X128241530Y-101163054D01*
X153787528Y-101163054D01*
X154201814Y-102165703D01*
X154968262Y-102933490D01*
X155970186Y-103349526D01*
X157055054Y-103350472D01*
X158057703Y-102936186D01*
X158825490Y-102169738D01*
X159241526Y-101167814D01*
X159242472Y-100082946D01*
X158828186Y-99080297D01*
X158061738Y-98312510D01*
X157059814Y-97896474D01*
X155974946Y-97895528D01*
X154972297Y-98309814D01*
X154204510Y-99076262D01*
X153788474Y-100078186D01*
X153787528Y-101163054D01*
X128241530Y-101163054D01*
X128242472Y-100082946D01*
X127828186Y-99080297D01*
X127061738Y-98312510D01*
X126059814Y-97896474D01*
X124974946Y-97895528D01*
X123972297Y-98309814D01*
X123204510Y-99076262D01*
X122788474Y-100078186D01*
X122787528Y-101163054D01*
X120852000Y-101163054D01*
X120852000Y-100878092D01*
X125770092Y-95960000D01*
X156423908Y-95960000D01*
X161596000Y-101132092D01*
M02*
