G04 #@! TF.FileFunction,Copper,L2,Bot,Signal*
%FSLAX46Y46*%
G04 Gerber Fmt 4.6, Leading zero omitted, Abs format (unit mm)*
G04 Created by KiCad (PCBNEW 4.0.7) date 08/21/18 13:31:30*
%MOMM*%
%LPD*%
G01*
G04 APERTURE LIST*
%ADD10C,0.100000*%
%ADD11C,0.600000*%
%ADD12R,1.700000X1.700000*%
%ADD13O,1.700000X1.700000*%
%ADD14C,0.250000*%
%ADD15C,0.254000*%
G04 APERTURE END LIST*
D10*
D11*
X148082000Y-128270000D03*
X149098000Y-99822000D03*
X132588000Y-99822000D03*
X134366000Y-118110000D03*
X134366000Y-117094000D03*
D12*
X157226000Y-123444000D03*
D13*
X157226000Y-120904000D03*
X157226000Y-118364000D03*
X157226000Y-115824000D03*
X157226000Y-113284000D03*
X157226000Y-110744000D03*
X157226000Y-108204000D03*
D12*
X128270000Y-105918000D03*
D13*
X128270000Y-108458000D03*
X128270000Y-110998000D03*
X128270000Y-113538000D03*
X128270000Y-116078000D03*
X128270000Y-118618000D03*
X128270000Y-121158000D03*
X128270000Y-123698000D03*
X128270000Y-126238000D03*
D11*
X134366000Y-116078000D03*
X136144000Y-117602000D03*
X147066000Y-108458000D03*
X153162000Y-115316000D03*
X149860000Y-116840000D03*
D14*
X136144000Y-117602000D02*
X136144000Y-115824000D01*
X143510000Y-108458000D02*
X147066000Y-108458000D01*
X136144000Y-115824000D02*
X143510000Y-108458000D01*
X154432000Y-112776000D02*
X154432000Y-114300000D01*
X154432000Y-114300000D02*
X153416000Y-115316000D01*
X153416000Y-115316000D02*
X153162000Y-115316000D01*
X156464000Y-110744000D02*
X154432000Y-112776000D01*
X157226000Y-110744000D02*
X156464000Y-110744000D01*
X157226000Y-108204000D02*
X156718000Y-108204000D01*
X156718000Y-108204000D02*
X151638000Y-113284000D01*
X151638000Y-115062000D02*
X149860000Y-116840000D01*
X151638000Y-113284000D02*
X151638000Y-115062000D01*
D15*
G36*
X161596000Y-101259092D02*
X161596000Y-131277908D01*
X156169908Y-136704000D01*
X125770092Y-136704000D01*
X121229146Y-132163054D01*
X122787528Y-132163054D01*
X123201814Y-133165703D01*
X123968262Y-133933490D01*
X124970186Y-134349526D01*
X126055054Y-134350472D01*
X127057703Y-133936186D01*
X127825490Y-133169738D01*
X128241526Y-132167814D01*
X128241530Y-132163054D01*
X153787528Y-132163054D01*
X154201814Y-133165703D01*
X154968262Y-133933490D01*
X155970186Y-134349526D01*
X157055054Y-134350472D01*
X158057703Y-133936186D01*
X158825490Y-133169738D01*
X159241526Y-132167814D01*
X159242472Y-131082946D01*
X158828186Y-130080297D01*
X158061738Y-129312510D01*
X157059814Y-128896474D01*
X155974946Y-128895528D01*
X154972297Y-129309814D01*
X154204510Y-130076262D01*
X153788474Y-131078186D01*
X153787528Y-132163054D01*
X128241530Y-132163054D01*
X128242472Y-131082946D01*
X127828186Y-130080297D01*
X127061738Y-129312510D01*
X126059814Y-128896474D01*
X124974946Y-128895528D01*
X123972297Y-129309814D01*
X123204510Y-130076262D01*
X122788474Y-131078186D01*
X122787528Y-132163054D01*
X121229146Y-132163054D01*
X120852000Y-131785908D01*
X120852000Y-108458000D01*
X126755907Y-108458000D01*
X126868946Y-109026285D01*
X127190853Y-109508054D01*
X127520026Y-109728000D01*
X127190853Y-109947946D01*
X126868946Y-110429715D01*
X126755907Y-110998000D01*
X126868946Y-111566285D01*
X127190853Y-112048054D01*
X127520026Y-112268000D01*
X127190853Y-112487946D01*
X126868946Y-112969715D01*
X126755907Y-113538000D01*
X126868946Y-114106285D01*
X127190853Y-114588054D01*
X127520026Y-114808000D01*
X127190853Y-115027946D01*
X126868946Y-115509715D01*
X126755907Y-116078000D01*
X126868946Y-116646285D01*
X127190853Y-117128054D01*
X127520026Y-117348000D01*
X127190853Y-117567946D01*
X126868946Y-118049715D01*
X126755907Y-118618000D01*
X126868946Y-119186285D01*
X127190853Y-119668054D01*
X127520026Y-119888000D01*
X127190853Y-120107946D01*
X126868946Y-120589715D01*
X126755907Y-121158000D01*
X126868946Y-121726285D01*
X127190853Y-122208054D01*
X127520026Y-122428000D01*
X127190853Y-122647946D01*
X126868946Y-123129715D01*
X126755907Y-123698000D01*
X126868946Y-124266285D01*
X127190853Y-124748054D01*
X127520026Y-124968000D01*
X127190853Y-125187946D01*
X126868946Y-125669715D01*
X126755907Y-126238000D01*
X126868946Y-126806285D01*
X127190853Y-127288054D01*
X127672622Y-127609961D01*
X128240907Y-127723000D01*
X128299093Y-127723000D01*
X128867378Y-127609961D01*
X129349147Y-127288054D01*
X129671054Y-126806285D01*
X129784093Y-126238000D01*
X129671054Y-125669715D01*
X129349147Y-125187946D01*
X129019974Y-124968000D01*
X129349147Y-124748054D01*
X129671054Y-124266285D01*
X129784093Y-123698000D01*
X129671054Y-123129715D01*
X129349147Y-122647946D01*
X129019974Y-122428000D01*
X129349147Y-122208054D01*
X129671054Y-121726285D01*
X129784093Y-121158000D01*
X129733570Y-120904000D01*
X155711907Y-120904000D01*
X155824946Y-121472285D01*
X156146853Y-121954054D01*
X156188452Y-121981850D01*
X156140683Y-121990838D01*
X155924559Y-122129910D01*
X155779569Y-122342110D01*
X155728560Y-122594000D01*
X155728560Y-124294000D01*
X155772838Y-124529317D01*
X155911910Y-124745441D01*
X156124110Y-124890431D01*
X156376000Y-124941440D01*
X158076000Y-124941440D01*
X158311317Y-124897162D01*
X158527441Y-124758090D01*
X158672431Y-124545890D01*
X158723440Y-124294000D01*
X158723440Y-122594000D01*
X158679162Y-122358683D01*
X158540090Y-122142559D01*
X158327890Y-121997569D01*
X158260459Y-121983914D01*
X158305147Y-121954054D01*
X158627054Y-121472285D01*
X158740093Y-120904000D01*
X158627054Y-120335715D01*
X158305147Y-119853946D01*
X157964447Y-119626298D01*
X158107358Y-119559183D01*
X158497645Y-119130924D01*
X158667476Y-118720890D01*
X158546155Y-118491000D01*
X157353000Y-118491000D01*
X157353000Y-118511000D01*
X157099000Y-118511000D01*
X157099000Y-118491000D01*
X155905845Y-118491000D01*
X155784524Y-118720890D01*
X155954355Y-119130924D01*
X156344642Y-119559183D01*
X156487553Y-119626298D01*
X156146853Y-119853946D01*
X155824946Y-120335715D01*
X155711907Y-120904000D01*
X129733570Y-120904000D01*
X129671054Y-120589715D01*
X129349147Y-120107946D01*
X129019974Y-119888000D01*
X129349147Y-119668054D01*
X129671054Y-119186285D01*
X129784093Y-118618000D01*
X129671054Y-118049715D01*
X129495626Y-117787167D01*
X135208838Y-117787167D01*
X135350883Y-118130943D01*
X135613673Y-118394192D01*
X135957201Y-118536838D01*
X136329167Y-118537162D01*
X136672943Y-118395117D01*
X136936192Y-118132327D01*
X137078838Y-117788799D01*
X137079162Y-117416833D01*
X136937117Y-117073057D01*
X136904000Y-117039882D01*
X136904000Y-117025167D01*
X148924838Y-117025167D01*
X149066883Y-117368943D01*
X149329673Y-117632192D01*
X149673201Y-117774838D01*
X150045167Y-117775162D01*
X150388943Y-117633117D01*
X150652192Y-117370327D01*
X150794838Y-117026799D01*
X150794879Y-116979923D01*
X152175401Y-115599401D01*
X152232264Y-115514299D01*
X152368883Y-115844943D01*
X152631673Y-116108192D01*
X152975201Y-116250838D01*
X153347167Y-116251162D01*
X153690943Y-116109117D01*
X153934362Y-115866122D01*
X153953401Y-115853401D01*
X154969401Y-114837401D01*
X155134148Y-114590839D01*
X155192000Y-114300000D01*
X155192000Y-113090802D01*
X156351804Y-111930998D01*
X156476026Y-112014000D01*
X156146853Y-112233946D01*
X155824946Y-112715715D01*
X155711907Y-113284000D01*
X155824946Y-113852285D01*
X156146853Y-114334054D01*
X156476026Y-114554000D01*
X156146853Y-114773946D01*
X155824946Y-115255715D01*
X155711907Y-115824000D01*
X155824946Y-116392285D01*
X156146853Y-116874054D01*
X156487553Y-117101702D01*
X156344642Y-117168817D01*
X155954355Y-117597076D01*
X155784524Y-118007110D01*
X155905845Y-118237000D01*
X157099000Y-118237000D01*
X157099000Y-118217000D01*
X157353000Y-118217000D01*
X157353000Y-118237000D01*
X158546155Y-118237000D01*
X158667476Y-118007110D01*
X158497645Y-117597076D01*
X158107358Y-117168817D01*
X157964447Y-117101702D01*
X158305147Y-116874054D01*
X158627054Y-116392285D01*
X158740093Y-115824000D01*
X158627054Y-115255715D01*
X158305147Y-114773946D01*
X157975974Y-114554000D01*
X158305147Y-114334054D01*
X158627054Y-113852285D01*
X158740093Y-113284000D01*
X158627054Y-112715715D01*
X158305147Y-112233946D01*
X157975974Y-112014000D01*
X158305147Y-111794054D01*
X158627054Y-111312285D01*
X158740093Y-110744000D01*
X158627054Y-110175715D01*
X158305147Y-109693946D01*
X157975974Y-109474000D01*
X158305147Y-109254054D01*
X158627054Y-108772285D01*
X158740093Y-108204000D01*
X158627054Y-107635715D01*
X158305147Y-107153946D01*
X157823378Y-106832039D01*
X157255093Y-106719000D01*
X157196907Y-106719000D01*
X156628622Y-106832039D01*
X156146853Y-107153946D01*
X155824946Y-107635715D01*
X155728968Y-108118230D01*
X151100599Y-112746599D01*
X150935852Y-112993161D01*
X150878000Y-113284000D01*
X150878000Y-114747198D01*
X149720320Y-115904878D01*
X149674833Y-115904838D01*
X149331057Y-116046883D01*
X149067808Y-116309673D01*
X148925162Y-116653201D01*
X148924838Y-117025167D01*
X136904000Y-117025167D01*
X136904000Y-116138802D01*
X143824802Y-109218000D01*
X146503537Y-109218000D01*
X146535673Y-109250192D01*
X146879201Y-109392838D01*
X147251167Y-109393162D01*
X147594943Y-109251117D01*
X147858192Y-108988327D01*
X148000838Y-108644799D01*
X148001162Y-108272833D01*
X147859117Y-107929057D01*
X147596327Y-107665808D01*
X147252799Y-107523162D01*
X146880833Y-107522838D01*
X146537057Y-107664883D01*
X146503882Y-107698000D01*
X143510000Y-107698000D01*
X143219161Y-107755852D01*
X142972599Y-107920599D01*
X135606599Y-115286599D01*
X135441852Y-115533161D01*
X135384000Y-115824000D01*
X135384000Y-117039537D01*
X135351808Y-117071673D01*
X135209162Y-117415201D01*
X135208838Y-117787167D01*
X129495626Y-117787167D01*
X129349147Y-117567946D01*
X129019974Y-117348000D01*
X129349147Y-117128054D01*
X129671054Y-116646285D01*
X129784093Y-116078000D01*
X129671054Y-115509715D01*
X129349147Y-115027946D01*
X129019974Y-114808000D01*
X129349147Y-114588054D01*
X129671054Y-114106285D01*
X129784093Y-113538000D01*
X129671054Y-112969715D01*
X129349147Y-112487946D01*
X129019974Y-112268000D01*
X129349147Y-112048054D01*
X129671054Y-111566285D01*
X129784093Y-110998000D01*
X129671054Y-110429715D01*
X129349147Y-109947946D01*
X129019974Y-109728000D01*
X129349147Y-109508054D01*
X129671054Y-109026285D01*
X129784093Y-108458000D01*
X129671054Y-107889715D01*
X129349147Y-107407946D01*
X129307548Y-107380150D01*
X129355317Y-107371162D01*
X129571441Y-107232090D01*
X129716431Y-107019890D01*
X129767440Y-106768000D01*
X129767440Y-105068000D01*
X129723162Y-104832683D01*
X129584090Y-104616559D01*
X129371890Y-104471569D01*
X129120000Y-104420560D01*
X127420000Y-104420560D01*
X127184683Y-104464838D01*
X126968559Y-104603910D01*
X126823569Y-104816110D01*
X126772560Y-105068000D01*
X126772560Y-106768000D01*
X126816838Y-107003317D01*
X126955910Y-107219441D01*
X127168110Y-107364431D01*
X127235541Y-107378086D01*
X127190853Y-107407946D01*
X126868946Y-107889715D01*
X126755907Y-108458000D01*
X120852000Y-108458000D01*
X120852000Y-101163054D01*
X122787528Y-101163054D01*
X123201814Y-102165703D01*
X123968262Y-102933490D01*
X124970186Y-103349526D01*
X126055054Y-103350472D01*
X127057703Y-102936186D01*
X127825490Y-102169738D01*
X128241526Y-101167814D01*
X128241530Y-101163054D01*
X153787528Y-101163054D01*
X154201814Y-102165703D01*
X154968262Y-102933490D01*
X155970186Y-103349526D01*
X157055054Y-103350472D01*
X158057703Y-102936186D01*
X158825490Y-102169738D01*
X159241526Y-101167814D01*
X159242472Y-100082946D01*
X158828186Y-99080297D01*
X158061738Y-98312510D01*
X157059814Y-97896474D01*
X155974946Y-97895528D01*
X154972297Y-98309814D01*
X154204510Y-99076262D01*
X153788474Y-100078186D01*
X153787528Y-101163054D01*
X128241530Y-101163054D01*
X128242472Y-100082946D01*
X127828186Y-99080297D01*
X127061738Y-98312510D01*
X126059814Y-97896474D01*
X124974946Y-97895528D01*
X123972297Y-98309814D01*
X123204510Y-99076262D01*
X122788474Y-100078186D01*
X122787528Y-101163054D01*
X120852000Y-101163054D01*
X120852000Y-100878092D01*
X125770092Y-95960000D01*
X156296908Y-95960000D01*
X161596000Y-101259092D01*
X161596000Y-101259092D01*
G37*
X161596000Y-101259092D02*
X161596000Y-131277908D01*
X156169908Y-136704000D01*
X125770092Y-136704000D01*
X121229146Y-132163054D01*
X122787528Y-132163054D01*
X123201814Y-133165703D01*
X123968262Y-133933490D01*
X124970186Y-134349526D01*
X126055054Y-134350472D01*
X127057703Y-133936186D01*
X127825490Y-133169738D01*
X128241526Y-132167814D01*
X128241530Y-132163054D01*
X153787528Y-132163054D01*
X154201814Y-133165703D01*
X154968262Y-133933490D01*
X155970186Y-134349526D01*
X157055054Y-134350472D01*
X158057703Y-133936186D01*
X158825490Y-133169738D01*
X159241526Y-132167814D01*
X159242472Y-131082946D01*
X158828186Y-130080297D01*
X158061738Y-129312510D01*
X157059814Y-128896474D01*
X155974946Y-128895528D01*
X154972297Y-129309814D01*
X154204510Y-130076262D01*
X153788474Y-131078186D01*
X153787528Y-132163054D01*
X128241530Y-132163054D01*
X128242472Y-131082946D01*
X127828186Y-130080297D01*
X127061738Y-129312510D01*
X126059814Y-128896474D01*
X124974946Y-128895528D01*
X123972297Y-129309814D01*
X123204510Y-130076262D01*
X122788474Y-131078186D01*
X122787528Y-132163054D01*
X121229146Y-132163054D01*
X120852000Y-131785908D01*
X120852000Y-108458000D01*
X126755907Y-108458000D01*
X126868946Y-109026285D01*
X127190853Y-109508054D01*
X127520026Y-109728000D01*
X127190853Y-109947946D01*
X126868946Y-110429715D01*
X126755907Y-110998000D01*
X126868946Y-111566285D01*
X127190853Y-112048054D01*
X127520026Y-112268000D01*
X127190853Y-112487946D01*
X126868946Y-112969715D01*
X126755907Y-113538000D01*
X126868946Y-114106285D01*
X127190853Y-114588054D01*
X127520026Y-114808000D01*
X127190853Y-115027946D01*
X126868946Y-115509715D01*
X126755907Y-116078000D01*
X126868946Y-116646285D01*
X127190853Y-117128054D01*
X127520026Y-117348000D01*
X127190853Y-117567946D01*
X126868946Y-118049715D01*
X126755907Y-118618000D01*
X126868946Y-119186285D01*
X127190853Y-119668054D01*
X127520026Y-119888000D01*
X127190853Y-120107946D01*
X126868946Y-120589715D01*
X126755907Y-121158000D01*
X126868946Y-121726285D01*
X127190853Y-122208054D01*
X127520026Y-122428000D01*
X127190853Y-122647946D01*
X126868946Y-123129715D01*
X126755907Y-123698000D01*
X126868946Y-124266285D01*
X127190853Y-124748054D01*
X127520026Y-124968000D01*
X127190853Y-125187946D01*
X126868946Y-125669715D01*
X126755907Y-126238000D01*
X126868946Y-126806285D01*
X127190853Y-127288054D01*
X127672622Y-127609961D01*
X128240907Y-127723000D01*
X128299093Y-127723000D01*
X128867378Y-127609961D01*
X129349147Y-127288054D01*
X129671054Y-126806285D01*
X129784093Y-126238000D01*
X129671054Y-125669715D01*
X129349147Y-125187946D01*
X129019974Y-124968000D01*
X129349147Y-124748054D01*
X129671054Y-124266285D01*
X129784093Y-123698000D01*
X129671054Y-123129715D01*
X129349147Y-122647946D01*
X129019974Y-122428000D01*
X129349147Y-122208054D01*
X129671054Y-121726285D01*
X129784093Y-121158000D01*
X129733570Y-120904000D01*
X155711907Y-120904000D01*
X155824946Y-121472285D01*
X156146853Y-121954054D01*
X156188452Y-121981850D01*
X156140683Y-121990838D01*
X155924559Y-122129910D01*
X155779569Y-122342110D01*
X155728560Y-122594000D01*
X155728560Y-124294000D01*
X155772838Y-124529317D01*
X155911910Y-124745441D01*
X156124110Y-124890431D01*
X156376000Y-124941440D01*
X158076000Y-124941440D01*
X158311317Y-124897162D01*
X158527441Y-124758090D01*
X158672431Y-124545890D01*
X158723440Y-124294000D01*
X158723440Y-122594000D01*
X158679162Y-122358683D01*
X158540090Y-122142559D01*
X158327890Y-121997569D01*
X158260459Y-121983914D01*
X158305147Y-121954054D01*
X158627054Y-121472285D01*
X158740093Y-120904000D01*
X158627054Y-120335715D01*
X158305147Y-119853946D01*
X157964447Y-119626298D01*
X158107358Y-119559183D01*
X158497645Y-119130924D01*
X158667476Y-118720890D01*
X158546155Y-118491000D01*
X157353000Y-118491000D01*
X157353000Y-118511000D01*
X157099000Y-118511000D01*
X157099000Y-118491000D01*
X155905845Y-118491000D01*
X155784524Y-118720890D01*
X155954355Y-119130924D01*
X156344642Y-119559183D01*
X156487553Y-119626298D01*
X156146853Y-119853946D01*
X155824946Y-120335715D01*
X155711907Y-120904000D01*
X129733570Y-120904000D01*
X129671054Y-120589715D01*
X129349147Y-120107946D01*
X129019974Y-119888000D01*
X129349147Y-119668054D01*
X129671054Y-119186285D01*
X129784093Y-118618000D01*
X129671054Y-118049715D01*
X129495626Y-117787167D01*
X135208838Y-117787167D01*
X135350883Y-118130943D01*
X135613673Y-118394192D01*
X135957201Y-118536838D01*
X136329167Y-118537162D01*
X136672943Y-118395117D01*
X136936192Y-118132327D01*
X137078838Y-117788799D01*
X137079162Y-117416833D01*
X136937117Y-117073057D01*
X136904000Y-117039882D01*
X136904000Y-117025167D01*
X148924838Y-117025167D01*
X149066883Y-117368943D01*
X149329673Y-117632192D01*
X149673201Y-117774838D01*
X150045167Y-117775162D01*
X150388943Y-117633117D01*
X150652192Y-117370327D01*
X150794838Y-117026799D01*
X150794879Y-116979923D01*
X152175401Y-115599401D01*
X152232264Y-115514299D01*
X152368883Y-115844943D01*
X152631673Y-116108192D01*
X152975201Y-116250838D01*
X153347167Y-116251162D01*
X153690943Y-116109117D01*
X153934362Y-115866122D01*
X153953401Y-115853401D01*
X154969401Y-114837401D01*
X155134148Y-114590839D01*
X155192000Y-114300000D01*
X155192000Y-113090802D01*
X156351804Y-111930998D01*
X156476026Y-112014000D01*
X156146853Y-112233946D01*
X155824946Y-112715715D01*
X155711907Y-113284000D01*
X155824946Y-113852285D01*
X156146853Y-114334054D01*
X156476026Y-114554000D01*
X156146853Y-114773946D01*
X155824946Y-115255715D01*
X155711907Y-115824000D01*
X155824946Y-116392285D01*
X156146853Y-116874054D01*
X156487553Y-117101702D01*
X156344642Y-117168817D01*
X155954355Y-117597076D01*
X155784524Y-118007110D01*
X155905845Y-118237000D01*
X157099000Y-118237000D01*
X157099000Y-118217000D01*
X157353000Y-118217000D01*
X157353000Y-118237000D01*
X158546155Y-118237000D01*
X158667476Y-118007110D01*
X158497645Y-117597076D01*
X158107358Y-117168817D01*
X157964447Y-117101702D01*
X158305147Y-116874054D01*
X158627054Y-116392285D01*
X158740093Y-115824000D01*
X158627054Y-115255715D01*
X158305147Y-114773946D01*
X157975974Y-114554000D01*
X158305147Y-114334054D01*
X158627054Y-113852285D01*
X158740093Y-113284000D01*
X158627054Y-112715715D01*
X158305147Y-112233946D01*
X157975974Y-112014000D01*
X158305147Y-111794054D01*
X158627054Y-111312285D01*
X158740093Y-110744000D01*
X158627054Y-110175715D01*
X158305147Y-109693946D01*
X157975974Y-109474000D01*
X158305147Y-109254054D01*
X158627054Y-108772285D01*
X158740093Y-108204000D01*
X158627054Y-107635715D01*
X158305147Y-107153946D01*
X157823378Y-106832039D01*
X157255093Y-106719000D01*
X157196907Y-106719000D01*
X156628622Y-106832039D01*
X156146853Y-107153946D01*
X155824946Y-107635715D01*
X155728968Y-108118230D01*
X151100599Y-112746599D01*
X150935852Y-112993161D01*
X150878000Y-113284000D01*
X150878000Y-114747198D01*
X149720320Y-115904878D01*
X149674833Y-115904838D01*
X149331057Y-116046883D01*
X149067808Y-116309673D01*
X148925162Y-116653201D01*
X148924838Y-117025167D01*
X136904000Y-117025167D01*
X136904000Y-116138802D01*
X143824802Y-109218000D01*
X146503537Y-109218000D01*
X146535673Y-109250192D01*
X146879201Y-109392838D01*
X147251167Y-109393162D01*
X147594943Y-109251117D01*
X147858192Y-108988327D01*
X148000838Y-108644799D01*
X148001162Y-108272833D01*
X147859117Y-107929057D01*
X147596327Y-107665808D01*
X147252799Y-107523162D01*
X146880833Y-107522838D01*
X146537057Y-107664883D01*
X146503882Y-107698000D01*
X143510000Y-107698000D01*
X143219161Y-107755852D01*
X142972599Y-107920599D01*
X135606599Y-115286599D01*
X135441852Y-115533161D01*
X135384000Y-115824000D01*
X135384000Y-117039537D01*
X135351808Y-117071673D01*
X135209162Y-117415201D01*
X135208838Y-117787167D01*
X129495626Y-117787167D01*
X129349147Y-117567946D01*
X129019974Y-117348000D01*
X129349147Y-117128054D01*
X129671054Y-116646285D01*
X129784093Y-116078000D01*
X129671054Y-115509715D01*
X129349147Y-115027946D01*
X129019974Y-114808000D01*
X129349147Y-114588054D01*
X129671054Y-114106285D01*
X129784093Y-113538000D01*
X129671054Y-112969715D01*
X129349147Y-112487946D01*
X129019974Y-112268000D01*
X129349147Y-112048054D01*
X129671054Y-111566285D01*
X129784093Y-110998000D01*
X129671054Y-110429715D01*
X129349147Y-109947946D01*
X129019974Y-109728000D01*
X129349147Y-109508054D01*
X129671054Y-109026285D01*
X129784093Y-108458000D01*
X129671054Y-107889715D01*
X129349147Y-107407946D01*
X129307548Y-107380150D01*
X129355317Y-107371162D01*
X129571441Y-107232090D01*
X129716431Y-107019890D01*
X129767440Y-106768000D01*
X129767440Y-105068000D01*
X129723162Y-104832683D01*
X129584090Y-104616559D01*
X129371890Y-104471569D01*
X129120000Y-104420560D01*
X127420000Y-104420560D01*
X127184683Y-104464838D01*
X126968559Y-104603910D01*
X126823569Y-104816110D01*
X126772560Y-105068000D01*
X126772560Y-106768000D01*
X126816838Y-107003317D01*
X126955910Y-107219441D01*
X127168110Y-107364431D01*
X127235541Y-107378086D01*
X127190853Y-107407946D01*
X126868946Y-107889715D01*
X126755907Y-108458000D01*
X120852000Y-108458000D01*
X120852000Y-101163054D01*
X122787528Y-101163054D01*
X123201814Y-102165703D01*
X123968262Y-102933490D01*
X124970186Y-103349526D01*
X126055054Y-103350472D01*
X127057703Y-102936186D01*
X127825490Y-102169738D01*
X128241526Y-101167814D01*
X128241530Y-101163054D01*
X153787528Y-101163054D01*
X154201814Y-102165703D01*
X154968262Y-102933490D01*
X155970186Y-103349526D01*
X157055054Y-103350472D01*
X158057703Y-102936186D01*
X158825490Y-102169738D01*
X159241526Y-101167814D01*
X159242472Y-100082946D01*
X158828186Y-99080297D01*
X158061738Y-98312510D01*
X157059814Y-97896474D01*
X155974946Y-97895528D01*
X154972297Y-98309814D01*
X154204510Y-99076262D01*
X153788474Y-100078186D01*
X153787528Y-101163054D01*
X128241530Y-101163054D01*
X128242472Y-100082946D01*
X127828186Y-99080297D01*
X127061738Y-98312510D01*
X126059814Y-97896474D01*
X124974946Y-97895528D01*
X123972297Y-98309814D01*
X123204510Y-99076262D01*
X122788474Y-100078186D01*
X122787528Y-101163054D01*
X120852000Y-101163054D01*
X120852000Y-100878092D01*
X125770092Y-95960000D01*
X156296908Y-95960000D01*
X161596000Y-101259092D01*
M02*
