G04 #@! TF.FileFunction,Legend,Bot*
%FSLAX46Y46*%
G04 Gerber Fmt 4.6, Leading zero omitted, Abs format (unit mm)*
G04 Created by KiCad (PCBNEW 4.0.7) date 08/21/18 13:31:30*
%MOMM*%
%LPD*%
G01*
G04 APERTURE LIST*
%ADD10C,0.100000*%
%ADD11C,0.250000*%
%ADD12C,0.300000*%
%ADD13C,0.120000*%
%ADD14C,0.150000*%
G04 APERTURE END LIST*
D10*
D11*
X153509713Y-97210000D02*
X152938284Y-97210000D01*
X153623998Y-97552857D02*
X153223998Y-96352857D01*
X152823998Y-97552857D01*
X152423999Y-96924286D02*
X152023999Y-96924286D01*
X151852570Y-97552857D02*
X152423999Y-97552857D01*
X152423999Y-96352857D01*
X151852570Y-96352857D01*
X151395428Y-97210000D02*
X150823999Y-97210000D01*
X151509713Y-97552857D02*
X151109713Y-96352857D01*
X150709713Y-97552857D01*
X150481142Y-96352857D02*
X149795428Y-96352857D01*
X150138285Y-97552857D02*
X150138285Y-96352857D01*
X149395428Y-97095714D02*
X148481142Y-97095714D01*
X147395428Y-96352857D02*
X147623999Y-96352857D01*
X147738285Y-96410000D01*
X147795428Y-96467143D01*
X147909714Y-96638571D01*
X147966857Y-96867143D01*
X147966857Y-97324286D01*
X147909714Y-97438571D01*
X147852571Y-97495714D01*
X147738285Y-97552857D01*
X147509714Y-97552857D01*
X147395428Y-97495714D01*
X147338285Y-97438571D01*
X147281142Y-97324286D01*
X147281142Y-97038571D01*
X147338285Y-96924286D01*
X147395428Y-96867143D01*
X147509714Y-96810000D01*
X147738285Y-96810000D01*
X147852571Y-96867143D01*
X147909714Y-96924286D01*
X147966857Y-97038571D01*
X146252571Y-96352857D02*
X146481142Y-96352857D01*
X146595428Y-96410000D01*
X146652571Y-96467143D01*
X146766857Y-96638571D01*
X146824000Y-96867143D01*
X146824000Y-97324286D01*
X146766857Y-97438571D01*
X146709714Y-97495714D01*
X146595428Y-97552857D01*
X146366857Y-97552857D01*
X146252571Y-97495714D01*
X146195428Y-97438571D01*
X146138285Y-97324286D01*
X146138285Y-97038571D01*
X146195428Y-96924286D01*
X146252571Y-96867143D01*
X146366857Y-96810000D01*
X146595428Y-96810000D01*
X146709714Y-96867143D01*
X146766857Y-96924286D01*
X146824000Y-97038571D01*
X145395428Y-96352857D02*
X145281143Y-96352857D01*
X145166857Y-96410000D01*
X145109714Y-96467143D01*
X145052571Y-96581429D01*
X144995428Y-96810000D01*
X144995428Y-97095714D01*
X145052571Y-97324286D01*
X145109714Y-97438571D01*
X145166857Y-97495714D01*
X145281143Y-97552857D01*
X145395428Y-97552857D01*
X145509714Y-97495714D01*
X145566857Y-97438571D01*
X145624000Y-97324286D01*
X145681143Y-97095714D01*
X145681143Y-96810000D01*
X145624000Y-96581429D01*
X145566857Y-96467143D01*
X145509714Y-96410000D01*
X145395428Y-96352857D01*
X144252571Y-96352857D02*
X144138286Y-96352857D01*
X144024000Y-96410000D01*
X143966857Y-96467143D01*
X143909714Y-96581429D01*
X143852571Y-96810000D01*
X143852571Y-97095714D01*
X143909714Y-97324286D01*
X143966857Y-97438571D01*
X144024000Y-97495714D01*
X144138286Y-97552857D01*
X144252571Y-97552857D01*
X144366857Y-97495714D01*
X144424000Y-97438571D01*
X144481143Y-97324286D01*
X144538286Y-97095714D01*
X144538286Y-96810000D01*
X144481143Y-96581429D01*
X144424000Y-96467143D01*
X144366857Y-96410000D01*
X144252571Y-96352857D01*
X142024000Y-96924286D02*
X141852571Y-96981429D01*
X141795428Y-97038571D01*
X141738285Y-97152857D01*
X141738285Y-97324286D01*
X141795428Y-97438571D01*
X141852571Y-97495714D01*
X141966857Y-97552857D01*
X142424000Y-97552857D01*
X142424000Y-96352857D01*
X142024000Y-96352857D01*
X141909714Y-96410000D01*
X141852571Y-96467143D01*
X141795428Y-96581429D01*
X141795428Y-96695714D01*
X141852571Y-96810000D01*
X141909714Y-96867143D01*
X142024000Y-96924286D01*
X142424000Y-96924286D01*
X141224000Y-97552857D02*
X141224000Y-96752857D01*
X141224000Y-96981429D02*
X141166857Y-96867143D01*
X141109714Y-96810000D01*
X140995428Y-96752857D01*
X140881143Y-96752857D01*
X140024000Y-97495714D02*
X140138286Y-97552857D01*
X140366857Y-97552857D01*
X140481143Y-97495714D01*
X140538286Y-97381429D01*
X140538286Y-96924286D01*
X140481143Y-96810000D01*
X140366857Y-96752857D01*
X140138286Y-96752857D01*
X140024000Y-96810000D01*
X139966857Y-96924286D01*
X139966857Y-97038571D01*
X140538286Y-97152857D01*
X138938286Y-97552857D02*
X138938286Y-96924286D01*
X138995429Y-96810000D01*
X139109715Y-96752857D01*
X139338286Y-96752857D01*
X139452572Y-96810000D01*
X138938286Y-97495714D02*
X139052572Y-97552857D01*
X139338286Y-97552857D01*
X139452572Y-97495714D01*
X139509715Y-97381429D01*
X139509715Y-97267143D01*
X139452572Y-97152857D01*
X139338286Y-97095714D01*
X139052572Y-97095714D01*
X138938286Y-97038571D01*
X138366858Y-97552857D02*
X138366858Y-96352857D01*
X138252572Y-97095714D02*
X137909715Y-97552857D01*
X137909715Y-96752857D02*
X138366858Y-97210000D01*
X137224000Y-97552857D02*
X137338286Y-97495714D01*
X137395429Y-97438571D01*
X137452572Y-97324286D01*
X137452572Y-96981429D01*
X137395429Y-96867143D01*
X137338286Y-96810000D01*
X137224000Y-96752857D01*
X137052572Y-96752857D01*
X136938286Y-96810000D01*
X136881143Y-96867143D01*
X136824000Y-96981429D01*
X136824000Y-97324286D01*
X136881143Y-97438571D01*
X136938286Y-97495714D01*
X137052572Y-97552857D01*
X137224000Y-97552857D01*
X135795429Y-96752857D02*
X135795429Y-97552857D01*
X136309715Y-96752857D02*
X136309715Y-97381429D01*
X136252572Y-97495714D01*
X136138286Y-97552857D01*
X135966858Y-97552857D01*
X135852572Y-97495714D01*
X135795429Y-97438571D01*
X135395429Y-96752857D02*
X134938286Y-96752857D01*
X135224001Y-96352857D02*
X135224001Y-97381429D01*
X135166858Y-97495714D01*
X135052572Y-97552857D01*
X134938286Y-97552857D01*
X133224001Y-96924286D02*
X133052572Y-96981429D01*
X132995429Y-97038571D01*
X132938286Y-97152857D01*
X132938286Y-97324286D01*
X132995429Y-97438571D01*
X133052572Y-97495714D01*
X133166858Y-97552857D01*
X133624001Y-97552857D01*
X133624001Y-96352857D01*
X133224001Y-96352857D01*
X133109715Y-96410000D01*
X133052572Y-96467143D01*
X132995429Y-96581429D01*
X132995429Y-96695714D01*
X133052572Y-96810000D01*
X133109715Y-96867143D01*
X133224001Y-96924286D01*
X133624001Y-96924286D01*
X132252572Y-97552857D02*
X132366858Y-97495714D01*
X132424001Y-97438571D01*
X132481144Y-97324286D01*
X132481144Y-96981429D01*
X132424001Y-96867143D01*
X132366858Y-96810000D01*
X132252572Y-96752857D01*
X132081144Y-96752857D01*
X131966858Y-96810000D01*
X131909715Y-96867143D01*
X131852572Y-96981429D01*
X131852572Y-97324286D01*
X131909715Y-97438571D01*
X131966858Y-97495714D01*
X132081144Y-97552857D01*
X132252572Y-97552857D01*
X130824001Y-97552857D02*
X130824001Y-96924286D01*
X130881144Y-96810000D01*
X130995430Y-96752857D01*
X131224001Y-96752857D01*
X131338287Y-96810000D01*
X130824001Y-97495714D02*
X130938287Y-97552857D01*
X131224001Y-97552857D01*
X131338287Y-97495714D01*
X131395430Y-97381429D01*
X131395430Y-97267143D01*
X131338287Y-97152857D01*
X131224001Y-97095714D01*
X130938287Y-97095714D01*
X130824001Y-97038571D01*
X130252573Y-97552857D02*
X130252573Y-96752857D01*
X130252573Y-96981429D02*
X130195430Y-96867143D01*
X130138287Y-96810000D01*
X130024001Y-96752857D01*
X129909716Y-96752857D01*
X128995430Y-97552857D02*
X128995430Y-96352857D01*
X128995430Y-97495714D02*
X129109716Y-97552857D01*
X129338287Y-97552857D01*
X129452573Y-97495714D01*
X129509716Y-97438571D01*
X129566859Y-97324286D01*
X129566859Y-96981429D01*
X129509716Y-96867143D01*
X129452573Y-96810000D01*
X129338287Y-96752857D01*
X129109716Y-96752857D01*
X128995430Y-96810000D01*
X144995428Y-99602857D02*
X145395428Y-99031429D01*
X145681143Y-99602857D02*
X145681143Y-98402857D01*
X145224000Y-98402857D01*
X145109714Y-98460000D01*
X145052571Y-98517143D01*
X144995428Y-98631429D01*
X144995428Y-98802857D01*
X145052571Y-98917143D01*
X145109714Y-98974286D01*
X145224000Y-99031429D01*
X145681143Y-99031429D01*
X144024000Y-99545714D02*
X144138286Y-99602857D01*
X144366857Y-99602857D01*
X144481143Y-99545714D01*
X144538286Y-99431429D01*
X144538286Y-98974286D01*
X144481143Y-98860000D01*
X144366857Y-98802857D01*
X144138286Y-98802857D01*
X144024000Y-98860000D01*
X143966857Y-98974286D01*
X143966857Y-99088571D01*
X144538286Y-99202857D01*
X143566857Y-98802857D02*
X143281143Y-99602857D01*
X142995429Y-98802857D01*
X142538286Y-99602857D02*
X142538286Y-98802857D01*
X142538286Y-98402857D02*
X142595429Y-98460000D01*
X142538286Y-98517143D01*
X142481143Y-98460000D01*
X142538286Y-98402857D01*
X142538286Y-98517143D01*
X142024000Y-99545714D02*
X141909714Y-99602857D01*
X141681142Y-99602857D01*
X141566857Y-99545714D01*
X141509714Y-99431429D01*
X141509714Y-99374286D01*
X141566857Y-99260000D01*
X141681142Y-99202857D01*
X141852571Y-99202857D01*
X141966857Y-99145714D01*
X142024000Y-99031429D01*
X142024000Y-98974286D01*
X141966857Y-98860000D01*
X141852571Y-98802857D01*
X141681142Y-98802857D01*
X141566857Y-98860000D01*
X140995428Y-99602857D02*
X140995428Y-98802857D01*
X140995428Y-98402857D02*
X141052571Y-98460000D01*
X140995428Y-98517143D01*
X140938285Y-98460000D01*
X140995428Y-98402857D01*
X140995428Y-98517143D01*
X140252570Y-99602857D02*
X140366856Y-99545714D01*
X140423999Y-99488571D01*
X140481142Y-99374286D01*
X140481142Y-99031429D01*
X140423999Y-98917143D01*
X140366856Y-98860000D01*
X140252570Y-98802857D01*
X140081142Y-98802857D01*
X139966856Y-98860000D01*
X139909713Y-98917143D01*
X139852570Y-99031429D01*
X139852570Y-99374286D01*
X139909713Y-99488571D01*
X139966856Y-99545714D01*
X140081142Y-99602857D01*
X140252570Y-99602857D01*
X139338285Y-98802857D02*
X139338285Y-99602857D01*
X139338285Y-98917143D02*
X139281142Y-98860000D01*
X139166856Y-98802857D01*
X138995428Y-98802857D01*
X138881142Y-98860000D01*
X138823999Y-98974286D01*
X138823999Y-99602857D01*
X136709713Y-99602857D02*
X137395428Y-99602857D01*
X137052570Y-99602857D02*
X137052570Y-98402857D01*
X137166856Y-98574286D01*
X137281142Y-98688571D01*
X137395428Y-98745714D01*
X149681142Y-100738571D02*
X149795428Y-100681429D01*
X150023999Y-100681429D01*
X150138285Y-100738571D01*
X150252571Y-100852857D01*
X150309714Y-100967143D01*
X150309714Y-101195714D01*
X150252571Y-101310000D01*
X150138285Y-101424286D01*
X150023999Y-101481429D01*
X149795428Y-101481429D01*
X149681142Y-101424286D01*
X149909714Y-100281429D02*
X150195428Y-100338571D01*
X150481142Y-100510000D01*
X150652571Y-100795714D01*
X150709714Y-101081429D01*
X150652571Y-101367143D01*
X150481142Y-101652857D01*
X150195428Y-101824286D01*
X149909714Y-101881429D01*
X149623999Y-101824286D01*
X149338285Y-101652857D01*
X149166856Y-101367143D01*
X149109714Y-101081429D01*
X149166856Y-100795714D01*
X149338285Y-100510000D01*
X149623999Y-100338571D01*
X149909714Y-100281429D01*
X147681142Y-101652857D02*
X147681142Y-100452857D01*
X146995427Y-101652857D02*
X147509713Y-100967143D01*
X146995427Y-100452857D02*
X147681142Y-101138571D01*
X145966856Y-101652857D02*
X145966856Y-101024286D01*
X146023999Y-100910000D01*
X146138285Y-100852857D01*
X146366856Y-100852857D01*
X146481142Y-100910000D01*
X145966856Y-101595714D02*
X146081142Y-101652857D01*
X146366856Y-101652857D01*
X146481142Y-101595714D01*
X146538285Y-101481429D01*
X146538285Y-101367143D01*
X146481142Y-101252857D01*
X146366856Y-101195714D01*
X146081142Y-101195714D01*
X145966856Y-101138571D01*
X145395428Y-100852857D02*
X145395428Y-101652857D01*
X145395428Y-100967143D02*
X145338285Y-100910000D01*
X145223999Y-100852857D01*
X145052571Y-100852857D01*
X144938285Y-100910000D01*
X144881142Y-101024286D01*
X144881142Y-101652857D01*
X143852571Y-101595714D02*
X143966857Y-101652857D01*
X144195428Y-101652857D01*
X144309714Y-101595714D01*
X144366857Y-101481429D01*
X144366857Y-101024286D01*
X144309714Y-100910000D01*
X144195428Y-100852857D01*
X143966857Y-100852857D01*
X143852571Y-100910000D01*
X143795428Y-101024286D01*
X143795428Y-101138571D01*
X144366857Y-101252857D01*
X142424000Y-101595714D02*
X142252571Y-101652857D01*
X141966857Y-101652857D01*
X141852571Y-101595714D01*
X141795428Y-101538571D01*
X141738285Y-101424286D01*
X141738285Y-101310000D01*
X141795428Y-101195714D01*
X141852571Y-101138571D01*
X141966857Y-101081429D01*
X142195428Y-101024286D01*
X142309714Y-100967143D01*
X142366857Y-100910000D01*
X142424000Y-100795714D01*
X142424000Y-100681429D01*
X142366857Y-100567143D01*
X142309714Y-100510000D01*
X142195428Y-100452857D01*
X141909714Y-100452857D01*
X141738285Y-100510000D01*
X141395428Y-100852857D02*
X140938285Y-100852857D01*
X141224000Y-100452857D02*
X141224000Y-101481429D01*
X141166857Y-101595714D01*
X141052571Y-101652857D01*
X140938285Y-101652857D01*
X140366857Y-101652857D02*
X140481143Y-101595714D01*
X140538286Y-101538571D01*
X140595429Y-101424286D01*
X140595429Y-101081429D01*
X140538286Y-100967143D01*
X140481143Y-100910000D01*
X140366857Y-100852857D01*
X140195429Y-100852857D01*
X140081143Y-100910000D01*
X140024000Y-100967143D01*
X139966857Y-101081429D01*
X139966857Y-101424286D01*
X140024000Y-101538571D01*
X140081143Y-101595714D01*
X140195429Y-101652857D01*
X140366857Y-101652857D01*
X139452572Y-101652857D02*
X139452572Y-100452857D01*
X139452572Y-100910000D02*
X139338286Y-100852857D01*
X139109715Y-100852857D01*
X138995429Y-100910000D01*
X138938286Y-100967143D01*
X138881143Y-101081429D01*
X138881143Y-101424286D01*
X138938286Y-101538571D01*
X138995429Y-101595714D01*
X139109715Y-101652857D01*
X139338286Y-101652857D01*
X139452572Y-101595714D01*
X138195429Y-101652857D02*
X138309715Y-101595714D01*
X138366858Y-101538571D01*
X138424001Y-101424286D01*
X138424001Y-101081429D01*
X138366858Y-100967143D01*
X138309715Y-100910000D01*
X138195429Y-100852857D01*
X138024001Y-100852857D01*
X137909715Y-100910000D01*
X137852572Y-100967143D01*
X137795429Y-101081429D01*
X137795429Y-101424286D01*
X137852572Y-101538571D01*
X137909715Y-101595714D01*
X138024001Y-101652857D01*
X138195429Y-101652857D01*
X137281144Y-101652857D02*
X137281144Y-100852857D01*
X137281144Y-100452857D02*
X137338287Y-100510000D01*
X137281144Y-100567143D01*
X137224001Y-100510000D01*
X137281144Y-100452857D01*
X137281144Y-100567143D01*
X135852572Y-100567143D02*
X135795429Y-100510000D01*
X135681143Y-100452857D01*
X135395429Y-100452857D01*
X135281143Y-100510000D01*
X135224000Y-100567143D01*
X135166857Y-100681429D01*
X135166857Y-100795714D01*
X135224000Y-100967143D01*
X135909714Y-101652857D01*
X135166857Y-101652857D01*
X134424000Y-100452857D02*
X134309715Y-100452857D01*
X134195429Y-100510000D01*
X134138286Y-100567143D01*
X134081143Y-100681429D01*
X134024000Y-100910000D01*
X134024000Y-101195714D01*
X134081143Y-101424286D01*
X134138286Y-101538571D01*
X134195429Y-101595714D01*
X134309715Y-101652857D01*
X134424000Y-101652857D01*
X134538286Y-101595714D01*
X134595429Y-101538571D01*
X134652572Y-101424286D01*
X134709715Y-101195714D01*
X134709715Y-100910000D01*
X134652572Y-100681429D01*
X134595429Y-100567143D01*
X134538286Y-100510000D01*
X134424000Y-100452857D01*
X132881143Y-101652857D02*
X133566858Y-101652857D01*
X133224000Y-101652857D02*
X133224000Y-100452857D01*
X133338286Y-100624286D01*
X133452572Y-100738571D01*
X133566858Y-100795714D01*
X132195429Y-100967143D02*
X132309715Y-100910000D01*
X132366858Y-100852857D01*
X132424001Y-100738571D01*
X132424001Y-100681429D01*
X132366858Y-100567143D01*
X132309715Y-100510000D01*
X132195429Y-100452857D01*
X131966858Y-100452857D01*
X131852572Y-100510000D01*
X131795429Y-100567143D01*
X131738286Y-100681429D01*
X131738286Y-100738571D01*
X131795429Y-100852857D01*
X131852572Y-100910000D01*
X131966858Y-100967143D01*
X132195429Y-100967143D01*
X132309715Y-101024286D01*
X132366858Y-101081429D01*
X132424001Y-101195714D01*
X132424001Y-101424286D01*
X132366858Y-101538571D01*
X132309715Y-101595714D01*
X132195429Y-101652857D01*
X131966858Y-101652857D01*
X131852572Y-101595714D01*
X131795429Y-101538571D01*
X131738286Y-101424286D01*
X131738286Y-101195714D01*
X131795429Y-101081429D01*
X131852572Y-101024286D01*
X131966858Y-100967143D01*
D12*
X154376571Y-122622571D02*
X155090857Y-122622571D01*
X155162286Y-123336857D01*
X155090857Y-123265429D01*
X154948000Y-123194000D01*
X154590857Y-123194000D01*
X154448000Y-123265429D01*
X154376571Y-123336857D01*
X154305143Y-123479714D01*
X154305143Y-123836857D01*
X154376571Y-123979714D01*
X154448000Y-124051143D01*
X154590857Y-124122571D01*
X154948000Y-124122571D01*
X155090857Y-124051143D01*
X155162286Y-123979714D01*
X153876572Y-122622571D02*
X153376572Y-124122571D01*
X152876572Y-122622571D01*
X155305143Y-120082571D02*
X154805143Y-121582571D01*
X154305143Y-120082571D01*
X153805143Y-121582571D02*
X153805143Y-120082571D01*
X153448000Y-120082571D01*
X153233715Y-120154000D01*
X153090857Y-120296857D01*
X153019429Y-120439714D01*
X152948000Y-120725429D01*
X152948000Y-120939714D01*
X153019429Y-121225429D01*
X153090857Y-121368286D01*
X153233715Y-121511143D01*
X153448000Y-121582571D01*
X153805143Y-121582571D01*
X152305143Y-121582571D02*
X152305143Y-120082571D01*
X151948000Y-120082571D01*
X151733715Y-120154000D01*
X151590857Y-120296857D01*
X151519429Y-120439714D01*
X151448000Y-120725429D01*
X151448000Y-120939714D01*
X151519429Y-121225429D01*
X151590857Y-121368286D01*
X151733715Y-121511143D01*
X151948000Y-121582571D01*
X152305143Y-121582571D01*
X149162286Y-120796857D02*
X149662286Y-120796857D01*
X149662286Y-121582571D02*
X149662286Y-120082571D01*
X148948000Y-120082571D01*
X154305143Y-117614000D02*
X154448000Y-117542571D01*
X154662286Y-117542571D01*
X154876571Y-117614000D01*
X155019429Y-117756857D01*
X155090857Y-117899714D01*
X155162286Y-118185429D01*
X155162286Y-118399714D01*
X155090857Y-118685429D01*
X155019429Y-118828286D01*
X154876571Y-118971143D01*
X154662286Y-119042571D01*
X154519429Y-119042571D01*
X154305143Y-118971143D01*
X154233714Y-118899714D01*
X154233714Y-118399714D01*
X154519429Y-118399714D01*
X153590857Y-119042571D02*
X153590857Y-117542571D01*
X152733714Y-119042571D01*
X152733714Y-117542571D01*
X152019428Y-119042571D02*
X152019428Y-117542571D01*
X151662285Y-117542571D01*
X151448000Y-117614000D01*
X151305142Y-117756857D01*
X151233714Y-117899714D01*
X151162285Y-118185429D01*
X151162285Y-118399714D01*
X151233714Y-118685429D01*
X151305142Y-118828286D01*
X151448000Y-118971143D01*
X151662285Y-119042571D01*
X152019428Y-119042571D01*
X154448000Y-115002571D02*
X154733714Y-115002571D01*
X154876571Y-115074000D01*
X154948000Y-115145429D01*
X155090857Y-115359714D01*
X155162286Y-115645429D01*
X155162286Y-116216857D01*
X155090857Y-116359714D01*
X155019429Y-116431143D01*
X154876571Y-116502571D01*
X154590857Y-116502571D01*
X154448000Y-116431143D01*
X154376571Y-116359714D01*
X154305143Y-116216857D01*
X154305143Y-115859714D01*
X154376571Y-115716857D01*
X154448000Y-115645429D01*
X154590857Y-115574000D01*
X154876571Y-115574000D01*
X155019429Y-115645429D01*
X155090857Y-115716857D01*
X155162286Y-115859714D01*
X153662286Y-116359714D02*
X153590858Y-116431143D01*
X153662286Y-116502571D01*
X153733715Y-116431143D01*
X153662286Y-116359714D01*
X153662286Y-116502571D01*
X152233714Y-115002571D02*
X152948000Y-115002571D01*
X153019429Y-115716857D01*
X152948000Y-115645429D01*
X152805143Y-115574000D01*
X152448000Y-115574000D01*
X152305143Y-115645429D01*
X152233714Y-115716857D01*
X152162286Y-115859714D01*
X152162286Y-116216857D01*
X152233714Y-116359714D01*
X152305143Y-116431143D01*
X152448000Y-116502571D01*
X152805143Y-116502571D01*
X152948000Y-116431143D01*
X153019429Y-116359714D01*
X151733715Y-115002571D02*
X151233715Y-116502571D01*
X150733715Y-115002571D01*
X155162286Y-113534000D02*
X154448000Y-113534000D01*
X155305143Y-113962571D02*
X154805143Y-112462571D01*
X154305143Y-113962571D01*
X153090857Y-113962571D02*
X153805143Y-113962571D01*
X153805143Y-112462571D01*
X152590857Y-113962571D02*
X152590857Y-112462571D01*
X151090857Y-112534000D02*
X151233714Y-112462571D01*
X151448000Y-112462571D01*
X151662285Y-112534000D01*
X151805143Y-112676857D01*
X151876571Y-112819714D01*
X151948000Y-113105429D01*
X151948000Y-113319714D01*
X151876571Y-113605429D01*
X151805143Y-113748286D01*
X151662285Y-113891143D01*
X151448000Y-113962571D01*
X151305143Y-113962571D01*
X151090857Y-113891143D01*
X151019428Y-113819714D01*
X151019428Y-113319714D01*
X151305143Y-113319714D01*
X150376571Y-113962571D02*
X150376571Y-112462571D01*
X149519428Y-113962571D01*
X149519428Y-112462571D01*
X155130857Y-111422571D02*
X155130857Y-109922571D01*
X154559429Y-109922571D01*
X154416571Y-109994000D01*
X154345143Y-110065429D01*
X154273714Y-110208286D01*
X154273714Y-110422571D01*
X154345143Y-110565429D01*
X154416571Y-110636857D01*
X154559429Y-110708286D01*
X155130857Y-110708286D01*
X152773714Y-111422571D02*
X153273714Y-110708286D01*
X153630857Y-111422571D02*
X153630857Y-109922571D01*
X153059429Y-109922571D01*
X152916571Y-109994000D01*
X152845143Y-110065429D01*
X152773714Y-110208286D01*
X152773714Y-110422571D01*
X152845143Y-110565429D01*
X152916571Y-110636857D01*
X153059429Y-110708286D01*
X153630857Y-110708286D01*
X151845143Y-109922571D02*
X151559429Y-109922571D01*
X151416571Y-109994000D01*
X151273714Y-110136857D01*
X151202286Y-110422571D01*
X151202286Y-110922571D01*
X151273714Y-111208286D01*
X151416571Y-111351143D01*
X151559429Y-111422571D01*
X151845143Y-111422571D01*
X151988000Y-111351143D01*
X152130857Y-111208286D01*
X152202286Y-110922571D01*
X152202286Y-110422571D01*
X152130857Y-110136857D01*
X151988000Y-109994000D01*
X151845143Y-109922571D01*
X149773714Y-109994000D02*
X149916571Y-109922571D01*
X150130857Y-109922571D01*
X150345142Y-109994000D01*
X150488000Y-110136857D01*
X150559428Y-110279714D01*
X150630857Y-110565429D01*
X150630857Y-110779714D01*
X150559428Y-111065429D01*
X150488000Y-111208286D01*
X150345142Y-111351143D01*
X150130857Y-111422571D01*
X149988000Y-111422571D01*
X149773714Y-111351143D01*
X149702285Y-111279714D01*
X149702285Y-110779714D01*
X149988000Y-110779714D01*
X155090857Y-108882571D02*
X155090857Y-107382571D01*
X154519429Y-107382571D01*
X154376571Y-107454000D01*
X154305143Y-107525429D01*
X154233714Y-107668286D01*
X154233714Y-107882571D01*
X154305143Y-108025429D01*
X154376571Y-108096857D01*
X154519429Y-108168286D01*
X155090857Y-108168286D01*
X153733714Y-107382571D02*
X153376571Y-108882571D01*
X153090857Y-107811143D01*
X152805143Y-108882571D01*
X152448000Y-107382571D01*
X151019428Y-108882571D02*
X151519428Y-108168286D01*
X151876571Y-108882571D02*
X151876571Y-107382571D01*
X151305143Y-107382571D01*
X151162285Y-107454000D01*
X151090857Y-107525429D01*
X151019428Y-107668286D01*
X151019428Y-107882571D01*
X151090857Y-108025429D01*
X151162285Y-108096857D01*
X151305143Y-108168286D01*
X151876571Y-108168286D01*
X150376571Y-108882571D02*
X150376571Y-107382571D01*
X150019428Y-107382571D01*
X149805143Y-107454000D01*
X149662285Y-107596857D01*
X149590857Y-107739714D01*
X149519428Y-108025429D01*
X149519428Y-108239714D01*
X149590857Y-108525429D01*
X149662285Y-108668286D01*
X149805143Y-108811143D01*
X150019428Y-108882571D01*
X150376571Y-108882571D01*
X148590857Y-107382571D02*
X148305143Y-107382571D01*
X148162285Y-107454000D01*
X148019428Y-107596857D01*
X147948000Y-107882571D01*
X147948000Y-108382571D01*
X148019428Y-108668286D01*
X148162285Y-108811143D01*
X148305143Y-108882571D01*
X148590857Y-108882571D01*
X148733714Y-108811143D01*
X148876571Y-108668286D01*
X148948000Y-108382571D01*
X148948000Y-107882571D01*
X148876571Y-107596857D01*
X148733714Y-107454000D01*
X148590857Y-107382571D01*
X147447999Y-107382571D02*
X147090856Y-108882571D01*
X146805142Y-107811143D01*
X146519428Y-108882571D01*
X146162285Y-107382571D01*
X145590856Y-108882571D02*
X145590856Y-107382571D01*
X144733713Y-108882571D01*
X144733713Y-107382571D01*
X136476572Y-126916571D02*
X136476572Y-125416571D01*
X135976572Y-126488000D01*
X135476572Y-125416571D01*
X135476572Y-126916571D01*
X134833715Y-126488000D02*
X134119429Y-126488000D01*
X134976572Y-126916571D02*
X134476572Y-125416571D01*
X133976572Y-126916571D01*
X132690858Y-125488000D02*
X132833715Y-125416571D01*
X133048001Y-125416571D01*
X133262286Y-125488000D01*
X133405144Y-125630857D01*
X133476572Y-125773714D01*
X133548001Y-126059429D01*
X133548001Y-126273714D01*
X133476572Y-126559429D01*
X133405144Y-126702286D01*
X133262286Y-126845143D01*
X133048001Y-126916571D01*
X132905144Y-126916571D01*
X132690858Y-126845143D01*
X132619429Y-126773714D01*
X132619429Y-126273714D01*
X132905144Y-126273714D01*
X131976572Y-126916571D02*
X131976572Y-125416571D01*
X131976572Y-126130857D02*
X131119429Y-126130857D01*
X131119429Y-126916571D02*
X131119429Y-125416571D01*
X130405143Y-126916571D02*
X130405143Y-125416571D01*
X136976572Y-124376571D02*
X136976572Y-122876571D01*
X136476572Y-123948000D01*
X135976572Y-122876571D01*
X135976572Y-124376571D01*
X135333715Y-123948000D02*
X134619429Y-123948000D01*
X135476572Y-124376571D02*
X134976572Y-122876571D01*
X134476572Y-124376571D01*
X133190858Y-122948000D02*
X133333715Y-122876571D01*
X133548001Y-122876571D01*
X133762286Y-122948000D01*
X133905144Y-123090857D01*
X133976572Y-123233714D01*
X134048001Y-123519429D01*
X134048001Y-123733714D01*
X133976572Y-124019429D01*
X133905144Y-124162286D01*
X133762286Y-124305143D01*
X133548001Y-124376571D01*
X133405144Y-124376571D01*
X133190858Y-124305143D01*
X133119429Y-124233714D01*
X133119429Y-123733714D01*
X133405144Y-123733714D01*
X131762286Y-124376571D02*
X132476572Y-124376571D01*
X132476572Y-122876571D01*
X130976572Y-122876571D02*
X130690858Y-122876571D01*
X130548000Y-122948000D01*
X130405143Y-123090857D01*
X130333715Y-123376571D01*
X130333715Y-123876571D01*
X130405143Y-124162286D01*
X130548000Y-124305143D01*
X130690858Y-124376571D01*
X130976572Y-124376571D01*
X131119429Y-124305143D01*
X131262286Y-124162286D01*
X131333715Y-123876571D01*
X131333715Y-123376571D01*
X131262286Y-123090857D01*
X131119429Y-122948000D01*
X130976572Y-122876571D01*
X134619429Y-121836571D02*
X134619429Y-120336571D01*
X134048001Y-120336571D01*
X133905143Y-120408000D01*
X133833715Y-120479429D01*
X133762286Y-120622286D01*
X133762286Y-120836571D01*
X133833715Y-120979429D01*
X133905143Y-121050857D01*
X134048001Y-121122286D01*
X134619429Y-121122286D01*
X133262286Y-120336571D02*
X132905143Y-121836571D01*
X132619429Y-120765143D01*
X132333715Y-121836571D01*
X131976572Y-120336571D01*
X131405143Y-121836571D02*
X131405143Y-120336571D01*
X130905143Y-121408000D01*
X130405143Y-120336571D01*
X130405143Y-121836571D01*
X133690858Y-119296571D02*
X133690858Y-117796571D01*
X131905144Y-117725143D02*
X133190858Y-119653714D01*
X131548000Y-117796571D02*
X131190857Y-119296571D01*
X130905143Y-118225143D01*
X130619429Y-119296571D01*
X130262286Y-117796571D01*
X133548000Y-115970857D02*
X133333714Y-116042286D01*
X133262286Y-116113714D01*
X133190857Y-116256571D01*
X133190857Y-116470857D01*
X133262286Y-116613714D01*
X133333714Y-116685143D01*
X133476572Y-116756571D01*
X134048000Y-116756571D01*
X134048000Y-115256571D01*
X133548000Y-115256571D01*
X133405143Y-115328000D01*
X133333714Y-115399429D01*
X133262286Y-115542286D01*
X133262286Y-115685143D01*
X133333714Y-115828000D01*
X133405143Y-115899429D01*
X133548000Y-115970857D01*
X134048000Y-115970857D01*
X131476572Y-115185143D02*
X132762286Y-117113714D01*
X131190857Y-115256571D02*
X130690857Y-116756571D01*
X130190857Y-115256571D01*
X134190858Y-113788000D02*
X133476572Y-113788000D01*
X134333715Y-114216571D02*
X133833715Y-112716571D01*
X133333715Y-114216571D01*
X131762287Y-112645143D02*
X133048001Y-114573714D01*
X131262286Y-112716571D02*
X131262286Y-113930857D01*
X131190858Y-114073714D01*
X131119429Y-114145143D01*
X130976572Y-114216571D01*
X130690858Y-114216571D01*
X130548000Y-114145143D01*
X130476572Y-114073714D01*
X130405143Y-113930857D01*
X130405143Y-112716571D01*
X131905143Y-111676571D02*
X131905143Y-110176571D01*
X131548000Y-110176571D01*
X131333715Y-110248000D01*
X131190857Y-110390857D01*
X131119429Y-110533714D01*
X131048000Y-110819429D01*
X131048000Y-111033714D01*
X131119429Y-111319429D01*
X131190857Y-111462286D01*
X131333715Y-111605143D01*
X131548000Y-111676571D01*
X131905143Y-111676571D01*
X130405143Y-111676571D02*
X130405143Y-110176571D01*
X133048000Y-108993714D02*
X133119429Y-109065143D01*
X133333715Y-109136571D01*
X133476572Y-109136571D01*
X133690857Y-109065143D01*
X133833715Y-108922286D01*
X133905143Y-108779429D01*
X133976572Y-108493714D01*
X133976572Y-108279429D01*
X133905143Y-107993714D01*
X133833715Y-107850857D01*
X133690857Y-107708000D01*
X133476572Y-107636571D01*
X133333715Y-107636571D01*
X133119429Y-107708000D01*
X133048000Y-107779429D01*
X131690857Y-109136571D02*
X132405143Y-109136571D01*
X132405143Y-107636571D01*
X131190857Y-109136571D02*
X131190857Y-107636571D01*
X130333714Y-109136571D02*
X130976571Y-108279429D01*
X130333714Y-107636571D02*
X131190857Y-108493714D01*
X134190857Y-106596571D02*
X134190857Y-105096571D01*
X133333714Y-106596571D01*
X133333714Y-105096571D01*
X131762285Y-106453714D02*
X131833714Y-106525143D01*
X132048000Y-106596571D01*
X132190857Y-106596571D01*
X132405142Y-106525143D01*
X132548000Y-106382286D01*
X132619428Y-106239429D01*
X132690857Y-105953714D01*
X132690857Y-105739429D01*
X132619428Y-105453714D01*
X132548000Y-105310857D01*
X132405142Y-105168000D01*
X132190857Y-105096571D01*
X132048000Y-105096571D01*
X131833714Y-105168000D01*
X131762285Y-105239429D01*
X131190857Y-106525143D02*
X130976571Y-106596571D01*
X130619428Y-106596571D01*
X130476571Y-106525143D01*
X130405142Y-106453714D01*
X130333714Y-106310857D01*
X130333714Y-106168000D01*
X130405142Y-106025143D01*
X130476571Y-105953714D01*
X130619428Y-105882286D01*
X130905142Y-105810857D01*
X131048000Y-105739429D01*
X131119428Y-105668000D01*
X131190857Y-105525143D01*
X131190857Y-105382286D01*
X131119428Y-105239429D01*
X131048000Y-105168000D01*
X130905142Y-105096571D01*
X130548000Y-105096571D01*
X130333714Y-105168000D01*
D13*
X158666000Y-124774000D02*
X158666000Y-106874000D01*
X158666000Y-106874000D02*
X161326000Y-106874000D01*
X161326000Y-106874000D02*
X161326000Y-124774000D01*
X161326000Y-124774000D02*
X158666000Y-124774000D01*
X161326000Y-123824000D02*
X167326000Y-123824000D01*
X167326000Y-123824000D02*
X167326000Y-123064000D01*
X167326000Y-123064000D02*
X161326000Y-123064000D01*
X161326000Y-123764000D02*
X167326000Y-123764000D01*
X161326000Y-123644000D02*
X167326000Y-123644000D01*
X161326000Y-123524000D02*
X167326000Y-123524000D01*
X161326000Y-123404000D02*
X167326000Y-123404000D01*
X161326000Y-123284000D02*
X167326000Y-123284000D01*
X161326000Y-123164000D02*
X167326000Y-123164000D01*
X158336000Y-123824000D02*
X158666000Y-123824000D01*
X158336000Y-123064000D02*
X158666000Y-123064000D01*
X158666000Y-122174000D02*
X161326000Y-122174000D01*
X161326000Y-121284000D02*
X167326000Y-121284000D01*
X167326000Y-121284000D02*
X167326000Y-120524000D01*
X167326000Y-120524000D02*
X161326000Y-120524000D01*
X158268929Y-121284000D02*
X158666000Y-121284000D01*
X158268929Y-120524000D02*
X158666000Y-120524000D01*
X158666000Y-119634000D02*
X161326000Y-119634000D01*
X161326000Y-118744000D02*
X167326000Y-118744000D01*
X167326000Y-118744000D02*
X167326000Y-117984000D01*
X167326000Y-117984000D02*
X161326000Y-117984000D01*
X158268929Y-118744000D02*
X158666000Y-118744000D01*
X158268929Y-117984000D02*
X158666000Y-117984000D01*
X158666000Y-117094000D02*
X161326000Y-117094000D01*
X161326000Y-116204000D02*
X167326000Y-116204000D01*
X167326000Y-116204000D02*
X167326000Y-115444000D01*
X167326000Y-115444000D02*
X161326000Y-115444000D01*
X158268929Y-116204000D02*
X158666000Y-116204000D01*
X158268929Y-115444000D02*
X158666000Y-115444000D01*
X158666000Y-114554000D02*
X161326000Y-114554000D01*
X161326000Y-113664000D02*
X167326000Y-113664000D01*
X167326000Y-113664000D02*
X167326000Y-112904000D01*
X167326000Y-112904000D02*
X161326000Y-112904000D01*
X158268929Y-113664000D02*
X158666000Y-113664000D01*
X158268929Y-112904000D02*
X158666000Y-112904000D01*
X158666000Y-112014000D02*
X161326000Y-112014000D01*
X161326000Y-111124000D02*
X167326000Y-111124000D01*
X167326000Y-111124000D02*
X167326000Y-110364000D01*
X167326000Y-110364000D02*
X161326000Y-110364000D01*
X158268929Y-111124000D02*
X158666000Y-111124000D01*
X158268929Y-110364000D02*
X158666000Y-110364000D01*
X158666000Y-109474000D02*
X161326000Y-109474000D01*
X161326000Y-108584000D02*
X167326000Y-108584000D01*
X167326000Y-108584000D02*
X167326000Y-107824000D01*
X167326000Y-107824000D02*
X161326000Y-107824000D01*
X158268929Y-108584000D02*
X158666000Y-108584000D01*
X158268929Y-107824000D02*
X158666000Y-107824000D01*
X155956000Y-123444000D02*
X155956000Y-124714000D01*
X155956000Y-124714000D02*
X157226000Y-124714000D01*
X126830000Y-104588000D02*
X126830000Y-127568000D01*
X126830000Y-127568000D02*
X124170000Y-127568000D01*
X124170000Y-127568000D02*
X124170000Y-104588000D01*
X124170000Y-104588000D02*
X126830000Y-104588000D01*
X124170000Y-105538000D02*
X118170000Y-105538000D01*
X118170000Y-105538000D02*
X118170000Y-106298000D01*
X118170000Y-106298000D02*
X124170000Y-106298000D01*
X124170000Y-105598000D02*
X118170000Y-105598000D01*
X124170000Y-105718000D02*
X118170000Y-105718000D01*
X124170000Y-105838000D02*
X118170000Y-105838000D01*
X124170000Y-105958000D02*
X118170000Y-105958000D01*
X124170000Y-106078000D02*
X118170000Y-106078000D01*
X124170000Y-106198000D02*
X118170000Y-106198000D01*
X127160000Y-105538000D02*
X126830000Y-105538000D01*
X127160000Y-106298000D02*
X126830000Y-106298000D01*
X126830000Y-107188000D02*
X124170000Y-107188000D01*
X124170000Y-108078000D02*
X118170000Y-108078000D01*
X118170000Y-108078000D02*
X118170000Y-108838000D01*
X118170000Y-108838000D02*
X124170000Y-108838000D01*
X127227071Y-108078000D02*
X126830000Y-108078000D01*
X127227071Y-108838000D02*
X126830000Y-108838000D01*
X126830000Y-109728000D02*
X124170000Y-109728000D01*
X124170000Y-110618000D02*
X118170000Y-110618000D01*
X118170000Y-110618000D02*
X118170000Y-111378000D01*
X118170000Y-111378000D02*
X124170000Y-111378000D01*
X127227071Y-110618000D02*
X126830000Y-110618000D01*
X127227071Y-111378000D02*
X126830000Y-111378000D01*
X126830000Y-112268000D02*
X124170000Y-112268000D01*
X124170000Y-113158000D02*
X118170000Y-113158000D01*
X118170000Y-113158000D02*
X118170000Y-113918000D01*
X118170000Y-113918000D02*
X124170000Y-113918000D01*
X127227071Y-113158000D02*
X126830000Y-113158000D01*
X127227071Y-113918000D02*
X126830000Y-113918000D01*
X126830000Y-114808000D02*
X124170000Y-114808000D01*
X124170000Y-115698000D02*
X118170000Y-115698000D01*
X118170000Y-115698000D02*
X118170000Y-116458000D01*
X118170000Y-116458000D02*
X124170000Y-116458000D01*
X127227071Y-115698000D02*
X126830000Y-115698000D01*
X127227071Y-116458000D02*
X126830000Y-116458000D01*
X126830000Y-117348000D02*
X124170000Y-117348000D01*
X124170000Y-118238000D02*
X118170000Y-118238000D01*
X118170000Y-118238000D02*
X118170000Y-118998000D01*
X118170000Y-118998000D02*
X124170000Y-118998000D01*
X127227071Y-118238000D02*
X126830000Y-118238000D01*
X127227071Y-118998000D02*
X126830000Y-118998000D01*
X126830000Y-119888000D02*
X124170000Y-119888000D01*
X124170000Y-120778000D02*
X118170000Y-120778000D01*
X118170000Y-120778000D02*
X118170000Y-121538000D01*
X118170000Y-121538000D02*
X124170000Y-121538000D01*
X127227071Y-120778000D02*
X126830000Y-120778000D01*
X127227071Y-121538000D02*
X126830000Y-121538000D01*
X126830000Y-122428000D02*
X124170000Y-122428000D01*
X124170000Y-123318000D02*
X118170000Y-123318000D01*
X118170000Y-123318000D02*
X118170000Y-124078000D01*
X118170000Y-124078000D02*
X124170000Y-124078000D01*
X127227071Y-123318000D02*
X126830000Y-123318000D01*
X127227071Y-124078000D02*
X126830000Y-124078000D01*
X126830000Y-124968000D02*
X124170000Y-124968000D01*
X124170000Y-125858000D02*
X118170000Y-125858000D01*
X118170000Y-125858000D02*
X118170000Y-126618000D01*
X118170000Y-126618000D02*
X124170000Y-126618000D01*
X127227071Y-125858000D02*
X126830000Y-125858000D01*
X127227071Y-126618000D02*
X126830000Y-126618000D01*
X129540000Y-105918000D02*
X129540000Y-104648000D01*
X129540000Y-104648000D02*
X128270000Y-104648000D01*
D14*
X157559333Y-125436381D02*
X157559333Y-126150667D01*
X157606953Y-126293524D01*
X157702191Y-126388762D01*
X157845048Y-126436381D01*
X157940286Y-126436381D01*
X156559333Y-126436381D02*
X157130762Y-126436381D01*
X156845048Y-126436381D02*
X156845048Y-125436381D01*
X156940286Y-125579238D01*
X157035524Y-125674476D01*
X157130762Y-125722095D01*
X129365333Y-102830381D02*
X129365333Y-103544667D01*
X129412953Y-103687524D01*
X129508191Y-103782762D01*
X129651048Y-103830381D01*
X129746286Y-103830381D01*
X128936762Y-102925619D02*
X128889143Y-102878000D01*
X128793905Y-102830381D01*
X128555809Y-102830381D01*
X128460571Y-102878000D01*
X128412952Y-102925619D01*
X128365333Y-103020857D01*
X128365333Y-103116095D01*
X128412952Y-103258952D01*
X128984381Y-103830381D01*
X128365333Y-103830381D01*
M02*
