G04 #@! TF.FileFunction,Legend,Top*
%FSLAX46Y46*%
G04 Gerber Fmt 4.6, Leading zero omitted, Abs format (unit mm)*
G04 Created by KiCad (PCBNEW 4.0.7) date 08/21/18 13:31:30*
%MOMM*%
%LPD*%
G01*
G04 APERTURE LIST*
%ADD10C,0.100000*%
%ADD11C,0.250000*%
%ADD12C,0.150000*%
%ADD13C,0.120000*%
G04 APERTURE END LIST*
D10*
D11*
X128938287Y-97210000D02*
X129509716Y-97210000D01*
X128824002Y-97552857D02*
X129224002Y-96352857D01*
X129624002Y-97552857D01*
X130024001Y-96924286D02*
X130424001Y-96924286D01*
X130595430Y-97552857D02*
X130024001Y-97552857D01*
X130024001Y-96352857D01*
X130595430Y-96352857D01*
X131052572Y-97210000D02*
X131624001Y-97210000D01*
X130938287Y-97552857D02*
X131338287Y-96352857D01*
X131738287Y-97552857D01*
X131966858Y-96352857D02*
X132652572Y-96352857D01*
X132309715Y-97552857D02*
X132309715Y-96352857D01*
X133052572Y-97095714D02*
X133966858Y-97095714D01*
X135052572Y-96352857D02*
X134824001Y-96352857D01*
X134709715Y-96410000D01*
X134652572Y-96467143D01*
X134538286Y-96638571D01*
X134481143Y-96867143D01*
X134481143Y-97324286D01*
X134538286Y-97438571D01*
X134595429Y-97495714D01*
X134709715Y-97552857D01*
X134938286Y-97552857D01*
X135052572Y-97495714D01*
X135109715Y-97438571D01*
X135166858Y-97324286D01*
X135166858Y-97038571D01*
X135109715Y-96924286D01*
X135052572Y-96867143D01*
X134938286Y-96810000D01*
X134709715Y-96810000D01*
X134595429Y-96867143D01*
X134538286Y-96924286D01*
X134481143Y-97038571D01*
X136195429Y-96352857D02*
X135966858Y-96352857D01*
X135852572Y-96410000D01*
X135795429Y-96467143D01*
X135681143Y-96638571D01*
X135624000Y-96867143D01*
X135624000Y-97324286D01*
X135681143Y-97438571D01*
X135738286Y-97495714D01*
X135852572Y-97552857D01*
X136081143Y-97552857D01*
X136195429Y-97495714D01*
X136252572Y-97438571D01*
X136309715Y-97324286D01*
X136309715Y-97038571D01*
X136252572Y-96924286D01*
X136195429Y-96867143D01*
X136081143Y-96810000D01*
X135852572Y-96810000D01*
X135738286Y-96867143D01*
X135681143Y-96924286D01*
X135624000Y-97038571D01*
X137052572Y-96352857D02*
X137166857Y-96352857D01*
X137281143Y-96410000D01*
X137338286Y-96467143D01*
X137395429Y-96581429D01*
X137452572Y-96810000D01*
X137452572Y-97095714D01*
X137395429Y-97324286D01*
X137338286Y-97438571D01*
X137281143Y-97495714D01*
X137166857Y-97552857D01*
X137052572Y-97552857D01*
X136938286Y-97495714D01*
X136881143Y-97438571D01*
X136824000Y-97324286D01*
X136766857Y-97095714D01*
X136766857Y-96810000D01*
X136824000Y-96581429D01*
X136881143Y-96467143D01*
X136938286Y-96410000D01*
X137052572Y-96352857D01*
X138195429Y-96352857D02*
X138309714Y-96352857D01*
X138424000Y-96410000D01*
X138481143Y-96467143D01*
X138538286Y-96581429D01*
X138595429Y-96810000D01*
X138595429Y-97095714D01*
X138538286Y-97324286D01*
X138481143Y-97438571D01*
X138424000Y-97495714D01*
X138309714Y-97552857D01*
X138195429Y-97552857D01*
X138081143Y-97495714D01*
X138024000Y-97438571D01*
X137966857Y-97324286D01*
X137909714Y-97095714D01*
X137909714Y-96810000D01*
X137966857Y-96581429D01*
X138024000Y-96467143D01*
X138081143Y-96410000D01*
X138195429Y-96352857D01*
X140424000Y-96924286D02*
X140595429Y-96981429D01*
X140652572Y-97038571D01*
X140709715Y-97152857D01*
X140709715Y-97324286D01*
X140652572Y-97438571D01*
X140595429Y-97495714D01*
X140481143Y-97552857D01*
X140024000Y-97552857D01*
X140024000Y-96352857D01*
X140424000Y-96352857D01*
X140538286Y-96410000D01*
X140595429Y-96467143D01*
X140652572Y-96581429D01*
X140652572Y-96695714D01*
X140595429Y-96810000D01*
X140538286Y-96867143D01*
X140424000Y-96924286D01*
X140024000Y-96924286D01*
X141224000Y-97552857D02*
X141224000Y-96752857D01*
X141224000Y-96981429D02*
X141281143Y-96867143D01*
X141338286Y-96810000D01*
X141452572Y-96752857D01*
X141566857Y-96752857D01*
X142424000Y-97495714D02*
X142309714Y-97552857D01*
X142081143Y-97552857D01*
X141966857Y-97495714D01*
X141909714Y-97381429D01*
X141909714Y-96924286D01*
X141966857Y-96810000D01*
X142081143Y-96752857D01*
X142309714Y-96752857D01*
X142424000Y-96810000D01*
X142481143Y-96924286D01*
X142481143Y-97038571D01*
X141909714Y-97152857D01*
X143509714Y-97552857D02*
X143509714Y-96924286D01*
X143452571Y-96810000D01*
X143338285Y-96752857D01*
X143109714Y-96752857D01*
X142995428Y-96810000D01*
X143509714Y-97495714D02*
X143395428Y-97552857D01*
X143109714Y-97552857D01*
X142995428Y-97495714D01*
X142938285Y-97381429D01*
X142938285Y-97267143D01*
X142995428Y-97152857D01*
X143109714Y-97095714D01*
X143395428Y-97095714D01*
X143509714Y-97038571D01*
X144081142Y-97552857D02*
X144081142Y-96352857D01*
X144195428Y-97095714D02*
X144538285Y-97552857D01*
X144538285Y-96752857D02*
X144081142Y-97210000D01*
X145224000Y-97552857D02*
X145109714Y-97495714D01*
X145052571Y-97438571D01*
X144995428Y-97324286D01*
X144995428Y-96981429D01*
X145052571Y-96867143D01*
X145109714Y-96810000D01*
X145224000Y-96752857D01*
X145395428Y-96752857D01*
X145509714Y-96810000D01*
X145566857Y-96867143D01*
X145624000Y-96981429D01*
X145624000Y-97324286D01*
X145566857Y-97438571D01*
X145509714Y-97495714D01*
X145395428Y-97552857D01*
X145224000Y-97552857D01*
X146652571Y-96752857D02*
X146652571Y-97552857D01*
X146138285Y-96752857D02*
X146138285Y-97381429D01*
X146195428Y-97495714D01*
X146309714Y-97552857D01*
X146481142Y-97552857D01*
X146595428Y-97495714D01*
X146652571Y-97438571D01*
X147052571Y-96752857D02*
X147509714Y-96752857D01*
X147223999Y-96352857D02*
X147223999Y-97381429D01*
X147281142Y-97495714D01*
X147395428Y-97552857D01*
X147509714Y-97552857D01*
X149223999Y-96924286D02*
X149395428Y-96981429D01*
X149452571Y-97038571D01*
X149509714Y-97152857D01*
X149509714Y-97324286D01*
X149452571Y-97438571D01*
X149395428Y-97495714D01*
X149281142Y-97552857D01*
X148823999Y-97552857D01*
X148823999Y-96352857D01*
X149223999Y-96352857D01*
X149338285Y-96410000D01*
X149395428Y-96467143D01*
X149452571Y-96581429D01*
X149452571Y-96695714D01*
X149395428Y-96810000D01*
X149338285Y-96867143D01*
X149223999Y-96924286D01*
X148823999Y-96924286D01*
X150195428Y-97552857D02*
X150081142Y-97495714D01*
X150023999Y-97438571D01*
X149966856Y-97324286D01*
X149966856Y-96981429D01*
X150023999Y-96867143D01*
X150081142Y-96810000D01*
X150195428Y-96752857D01*
X150366856Y-96752857D01*
X150481142Y-96810000D01*
X150538285Y-96867143D01*
X150595428Y-96981429D01*
X150595428Y-97324286D01*
X150538285Y-97438571D01*
X150481142Y-97495714D01*
X150366856Y-97552857D01*
X150195428Y-97552857D01*
X151623999Y-97552857D02*
X151623999Y-96924286D01*
X151566856Y-96810000D01*
X151452570Y-96752857D01*
X151223999Y-96752857D01*
X151109713Y-96810000D01*
X151623999Y-97495714D02*
X151509713Y-97552857D01*
X151223999Y-97552857D01*
X151109713Y-97495714D01*
X151052570Y-97381429D01*
X151052570Y-97267143D01*
X151109713Y-97152857D01*
X151223999Y-97095714D01*
X151509713Y-97095714D01*
X151623999Y-97038571D01*
X152195427Y-97552857D02*
X152195427Y-96752857D01*
X152195427Y-96981429D02*
X152252570Y-96867143D01*
X152309713Y-96810000D01*
X152423999Y-96752857D01*
X152538284Y-96752857D01*
X153452570Y-97552857D02*
X153452570Y-96352857D01*
X153452570Y-97495714D02*
X153338284Y-97552857D01*
X153109713Y-97552857D01*
X152995427Y-97495714D01*
X152938284Y-97438571D01*
X152881141Y-97324286D01*
X152881141Y-96981429D01*
X152938284Y-96867143D01*
X152995427Y-96810000D01*
X153109713Y-96752857D01*
X153338284Y-96752857D01*
X153452570Y-96810000D01*
X137452572Y-99602857D02*
X137052572Y-99031429D01*
X136766857Y-99602857D02*
X136766857Y-98402857D01*
X137224000Y-98402857D01*
X137338286Y-98460000D01*
X137395429Y-98517143D01*
X137452572Y-98631429D01*
X137452572Y-98802857D01*
X137395429Y-98917143D01*
X137338286Y-98974286D01*
X137224000Y-99031429D01*
X136766857Y-99031429D01*
X138424000Y-99545714D02*
X138309714Y-99602857D01*
X138081143Y-99602857D01*
X137966857Y-99545714D01*
X137909714Y-99431429D01*
X137909714Y-98974286D01*
X137966857Y-98860000D01*
X138081143Y-98802857D01*
X138309714Y-98802857D01*
X138424000Y-98860000D01*
X138481143Y-98974286D01*
X138481143Y-99088571D01*
X137909714Y-99202857D01*
X138881143Y-98802857D02*
X139166857Y-99602857D01*
X139452571Y-98802857D01*
X139909714Y-99602857D02*
X139909714Y-98802857D01*
X139909714Y-98402857D02*
X139852571Y-98460000D01*
X139909714Y-98517143D01*
X139966857Y-98460000D01*
X139909714Y-98402857D01*
X139909714Y-98517143D01*
X140424000Y-99545714D02*
X140538286Y-99602857D01*
X140766858Y-99602857D01*
X140881143Y-99545714D01*
X140938286Y-99431429D01*
X140938286Y-99374286D01*
X140881143Y-99260000D01*
X140766858Y-99202857D01*
X140595429Y-99202857D01*
X140481143Y-99145714D01*
X140424000Y-99031429D01*
X140424000Y-98974286D01*
X140481143Y-98860000D01*
X140595429Y-98802857D01*
X140766858Y-98802857D01*
X140881143Y-98860000D01*
X141452572Y-99602857D02*
X141452572Y-98802857D01*
X141452572Y-98402857D02*
X141395429Y-98460000D01*
X141452572Y-98517143D01*
X141509715Y-98460000D01*
X141452572Y-98402857D01*
X141452572Y-98517143D01*
X142195430Y-99602857D02*
X142081144Y-99545714D01*
X142024001Y-99488571D01*
X141966858Y-99374286D01*
X141966858Y-99031429D01*
X142024001Y-98917143D01*
X142081144Y-98860000D01*
X142195430Y-98802857D01*
X142366858Y-98802857D01*
X142481144Y-98860000D01*
X142538287Y-98917143D01*
X142595430Y-99031429D01*
X142595430Y-99374286D01*
X142538287Y-99488571D01*
X142481144Y-99545714D01*
X142366858Y-99602857D01*
X142195430Y-99602857D01*
X143109715Y-98802857D02*
X143109715Y-99602857D01*
X143109715Y-98917143D02*
X143166858Y-98860000D01*
X143281144Y-98802857D01*
X143452572Y-98802857D01*
X143566858Y-98860000D01*
X143624001Y-98974286D01*
X143624001Y-99602857D01*
X145738287Y-99602857D02*
X145052572Y-99602857D01*
X145395430Y-99602857D02*
X145395430Y-98402857D01*
X145281144Y-98574286D01*
X145166858Y-98688571D01*
X145052572Y-98745714D01*
X132766858Y-100738571D02*
X132652572Y-100681429D01*
X132424001Y-100681429D01*
X132309715Y-100738571D01*
X132195429Y-100852857D01*
X132138286Y-100967143D01*
X132138286Y-101195714D01*
X132195429Y-101310000D01*
X132309715Y-101424286D01*
X132424001Y-101481429D01*
X132652572Y-101481429D01*
X132766858Y-101424286D01*
X132538286Y-100281429D02*
X132252572Y-100338571D01*
X131966858Y-100510000D01*
X131795429Y-100795714D01*
X131738286Y-101081429D01*
X131795429Y-101367143D01*
X131966858Y-101652857D01*
X132252572Y-101824286D01*
X132538286Y-101881429D01*
X132824001Y-101824286D01*
X133109715Y-101652857D01*
X133281144Y-101367143D01*
X133338286Y-101081429D01*
X133281144Y-100795714D01*
X133109715Y-100510000D01*
X132824001Y-100338571D01*
X132538286Y-100281429D01*
X134766858Y-101652857D02*
X134766858Y-100452857D01*
X135452573Y-101652857D02*
X134938287Y-100967143D01*
X135452573Y-100452857D02*
X134766858Y-101138571D01*
X136481144Y-101652857D02*
X136481144Y-101024286D01*
X136424001Y-100910000D01*
X136309715Y-100852857D01*
X136081144Y-100852857D01*
X135966858Y-100910000D01*
X136481144Y-101595714D02*
X136366858Y-101652857D01*
X136081144Y-101652857D01*
X135966858Y-101595714D01*
X135909715Y-101481429D01*
X135909715Y-101367143D01*
X135966858Y-101252857D01*
X136081144Y-101195714D01*
X136366858Y-101195714D01*
X136481144Y-101138571D01*
X137052572Y-100852857D02*
X137052572Y-101652857D01*
X137052572Y-100967143D02*
X137109715Y-100910000D01*
X137224001Y-100852857D01*
X137395429Y-100852857D01*
X137509715Y-100910000D01*
X137566858Y-101024286D01*
X137566858Y-101652857D01*
X138595429Y-101595714D02*
X138481143Y-101652857D01*
X138252572Y-101652857D01*
X138138286Y-101595714D01*
X138081143Y-101481429D01*
X138081143Y-101024286D01*
X138138286Y-100910000D01*
X138252572Y-100852857D01*
X138481143Y-100852857D01*
X138595429Y-100910000D01*
X138652572Y-101024286D01*
X138652572Y-101138571D01*
X138081143Y-101252857D01*
X140024000Y-101595714D02*
X140195429Y-101652857D01*
X140481143Y-101652857D01*
X140595429Y-101595714D01*
X140652572Y-101538571D01*
X140709715Y-101424286D01*
X140709715Y-101310000D01*
X140652572Y-101195714D01*
X140595429Y-101138571D01*
X140481143Y-101081429D01*
X140252572Y-101024286D01*
X140138286Y-100967143D01*
X140081143Y-100910000D01*
X140024000Y-100795714D01*
X140024000Y-100681429D01*
X140081143Y-100567143D01*
X140138286Y-100510000D01*
X140252572Y-100452857D01*
X140538286Y-100452857D01*
X140709715Y-100510000D01*
X141052572Y-100852857D02*
X141509715Y-100852857D01*
X141224000Y-100452857D02*
X141224000Y-101481429D01*
X141281143Y-101595714D01*
X141395429Y-101652857D01*
X141509715Y-101652857D01*
X142081143Y-101652857D02*
X141966857Y-101595714D01*
X141909714Y-101538571D01*
X141852571Y-101424286D01*
X141852571Y-101081429D01*
X141909714Y-100967143D01*
X141966857Y-100910000D01*
X142081143Y-100852857D01*
X142252571Y-100852857D01*
X142366857Y-100910000D01*
X142424000Y-100967143D01*
X142481143Y-101081429D01*
X142481143Y-101424286D01*
X142424000Y-101538571D01*
X142366857Y-101595714D01*
X142252571Y-101652857D01*
X142081143Y-101652857D01*
X142995428Y-101652857D02*
X142995428Y-100452857D01*
X142995428Y-100910000D02*
X143109714Y-100852857D01*
X143338285Y-100852857D01*
X143452571Y-100910000D01*
X143509714Y-100967143D01*
X143566857Y-101081429D01*
X143566857Y-101424286D01*
X143509714Y-101538571D01*
X143452571Y-101595714D01*
X143338285Y-101652857D01*
X143109714Y-101652857D01*
X142995428Y-101595714D01*
X144252571Y-101652857D02*
X144138285Y-101595714D01*
X144081142Y-101538571D01*
X144023999Y-101424286D01*
X144023999Y-101081429D01*
X144081142Y-100967143D01*
X144138285Y-100910000D01*
X144252571Y-100852857D01*
X144423999Y-100852857D01*
X144538285Y-100910000D01*
X144595428Y-100967143D01*
X144652571Y-101081429D01*
X144652571Y-101424286D01*
X144595428Y-101538571D01*
X144538285Y-101595714D01*
X144423999Y-101652857D01*
X144252571Y-101652857D01*
X145166856Y-101652857D02*
X145166856Y-100852857D01*
X145166856Y-100452857D02*
X145109713Y-100510000D01*
X145166856Y-100567143D01*
X145223999Y-100510000D01*
X145166856Y-100452857D01*
X145166856Y-100567143D01*
X146595428Y-100567143D02*
X146652571Y-100510000D01*
X146766857Y-100452857D01*
X147052571Y-100452857D01*
X147166857Y-100510000D01*
X147224000Y-100567143D01*
X147281143Y-100681429D01*
X147281143Y-100795714D01*
X147224000Y-100967143D01*
X146538286Y-101652857D01*
X147281143Y-101652857D01*
X148024000Y-100452857D02*
X148138285Y-100452857D01*
X148252571Y-100510000D01*
X148309714Y-100567143D01*
X148366857Y-100681429D01*
X148424000Y-100910000D01*
X148424000Y-101195714D01*
X148366857Y-101424286D01*
X148309714Y-101538571D01*
X148252571Y-101595714D01*
X148138285Y-101652857D01*
X148024000Y-101652857D01*
X147909714Y-101595714D01*
X147852571Y-101538571D01*
X147795428Y-101424286D01*
X147738285Y-101195714D01*
X147738285Y-100910000D01*
X147795428Y-100681429D01*
X147852571Y-100567143D01*
X147909714Y-100510000D01*
X148024000Y-100452857D01*
X149566857Y-101652857D02*
X148881142Y-101652857D01*
X149224000Y-101652857D02*
X149224000Y-100452857D01*
X149109714Y-100624286D01*
X148995428Y-100738571D01*
X148881142Y-100795714D01*
X150252571Y-100967143D02*
X150138285Y-100910000D01*
X150081142Y-100852857D01*
X150023999Y-100738571D01*
X150023999Y-100681429D01*
X150081142Y-100567143D01*
X150138285Y-100510000D01*
X150252571Y-100452857D01*
X150481142Y-100452857D01*
X150595428Y-100510000D01*
X150652571Y-100567143D01*
X150709714Y-100681429D01*
X150709714Y-100738571D01*
X150652571Y-100852857D01*
X150595428Y-100910000D01*
X150481142Y-100967143D01*
X150252571Y-100967143D01*
X150138285Y-101024286D01*
X150081142Y-101081429D01*
X150023999Y-101195714D01*
X150023999Y-101424286D01*
X150081142Y-101538571D01*
X150138285Y-101595714D01*
X150252571Y-101652857D01*
X150481142Y-101652857D01*
X150595428Y-101595714D01*
X150652571Y-101538571D01*
X150709714Y-101424286D01*
X150709714Y-101195714D01*
X150652571Y-101081429D01*
X150595428Y-101024286D01*
X150481142Y-100967143D01*
D12*
X138815000Y-118469000D02*
X143215000Y-118469000D01*
X137240000Y-112944000D02*
X143215000Y-112944000D01*
D13*
X145884000Y-121404000D02*
X145884000Y-120404000D01*
X144184000Y-120404000D02*
X144184000Y-121404000D01*
X147662000Y-121404000D02*
X147662000Y-120404000D01*
X145962000Y-120404000D02*
X145962000Y-121404000D01*
X152488000Y-119880000D02*
X152488000Y-118880000D01*
X150788000Y-118880000D02*
X150788000Y-119880000D01*
X142406000Y-120404000D02*
X142406000Y-121404000D01*
X144106000Y-121404000D02*
X144106000Y-120404000D01*
X149724000Y-105826000D02*
X149724000Y-107026000D01*
X147964000Y-107026000D02*
X147964000Y-105826000D01*
X151756000Y-105826000D02*
X151756000Y-107026000D01*
X149996000Y-107026000D02*
X149996000Y-105826000D01*
X153788000Y-105826000D02*
X153788000Y-107026000D01*
X152028000Y-107026000D02*
X152028000Y-105826000D01*
X134120000Y-126522000D02*
X135120000Y-126522000D01*
X135120000Y-126522000D02*
X135120000Y-124422000D01*
X134120000Y-126522000D02*
X134120000Y-124422000D01*
X136152000Y-126522000D02*
X137152000Y-126522000D01*
X137152000Y-126522000D02*
X137152000Y-124422000D01*
X136152000Y-126522000D02*
X136152000Y-124422000D01*
X133740000Y-129378000D02*
X133740000Y-128178000D01*
X135500000Y-128178000D02*
X135500000Y-129378000D01*
X135772000Y-129378000D02*
X135772000Y-128178000D01*
X137532000Y-128178000D02*
X137532000Y-129378000D01*
D12*
X140253095Y-111646381D02*
X140253095Y-112455905D01*
X140300714Y-112551143D01*
X140348333Y-112598762D01*
X140443571Y-112646381D01*
X140634048Y-112646381D01*
X140729286Y-112598762D01*
X140776905Y-112551143D01*
X140824524Y-112455905D01*
X140824524Y-111646381D01*
X141824524Y-112646381D02*
X141253095Y-112646381D01*
X141538809Y-112646381D02*
X141538809Y-111646381D01*
X141443571Y-111789238D01*
X141348333Y-111884476D01*
X141253095Y-111932095D01*
X145391143Y-123864666D02*
X145438762Y-123912285D01*
X145486381Y-124055142D01*
X145486381Y-124150380D01*
X145438762Y-124293238D01*
X145343524Y-124388476D01*
X145248286Y-124436095D01*
X145057810Y-124483714D01*
X144914952Y-124483714D01*
X144724476Y-124436095D01*
X144629238Y-124388476D01*
X144534000Y-124293238D01*
X144486381Y-124150380D01*
X144486381Y-124055142D01*
X144534000Y-123912285D01*
X144581619Y-123864666D01*
X145486381Y-122912285D02*
X145486381Y-123483714D01*
X145486381Y-123198000D02*
X144486381Y-123198000D01*
X144629238Y-123293238D01*
X144724476Y-123388476D01*
X144772095Y-123483714D01*
X147169143Y-123864666D02*
X147216762Y-123912285D01*
X147264381Y-124055142D01*
X147264381Y-124150380D01*
X147216762Y-124293238D01*
X147121524Y-124388476D01*
X147026286Y-124436095D01*
X146835810Y-124483714D01*
X146692952Y-124483714D01*
X146502476Y-124436095D01*
X146407238Y-124388476D01*
X146312000Y-124293238D01*
X146264381Y-124150380D01*
X146264381Y-124055142D01*
X146312000Y-123912285D01*
X146359619Y-123864666D01*
X146359619Y-123483714D02*
X146312000Y-123436095D01*
X146264381Y-123340857D01*
X146264381Y-123102761D01*
X146312000Y-123007523D01*
X146359619Y-122959904D01*
X146454857Y-122912285D01*
X146550095Y-122912285D01*
X146692952Y-122959904D01*
X147264381Y-123531333D01*
X147264381Y-122912285D01*
X152249143Y-122340666D02*
X152296762Y-122388285D01*
X152344381Y-122531142D01*
X152344381Y-122626380D01*
X152296762Y-122769238D01*
X152201524Y-122864476D01*
X152106286Y-122912095D01*
X151915810Y-122959714D01*
X151772952Y-122959714D01*
X151582476Y-122912095D01*
X151487238Y-122864476D01*
X151392000Y-122769238D01*
X151344381Y-122626380D01*
X151344381Y-122531142D01*
X151392000Y-122388285D01*
X151439619Y-122340666D01*
X151344381Y-122007333D02*
X151344381Y-121388285D01*
X151725333Y-121721619D01*
X151725333Y-121578761D01*
X151772952Y-121483523D01*
X151820571Y-121435904D01*
X151915810Y-121388285D01*
X152153905Y-121388285D01*
X152249143Y-121435904D01*
X152296762Y-121483523D01*
X152344381Y-121578761D01*
X152344381Y-121864476D01*
X152296762Y-121959714D01*
X152249143Y-122007333D01*
X143613143Y-123864666D02*
X143660762Y-123912285D01*
X143708381Y-124055142D01*
X143708381Y-124150380D01*
X143660762Y-124293238D01*
X143565524Y-124388476D01*
X143470286Y-124436095D01*
X143279810Y-124483714D01*
X143136952Y-124483714D01*
X142946476Y-124436095D01*
X142851238Y-124388476D01*
X142756000Y-124293238D01*
X142708381Y-124150380D01*
X142708381Y-124055142D01*
X142756000Y-123912285D01*
X142803619Y-123864666D01*
X143041714Y-123007523D02*
X143708381Y-123007523D01*
X142660762Y-123245619D02*
X143375048Y-123483714D01*
X143375048Y-122864666D01*
X149296381Y-103798666D02*
X148820190Y-104132000D01*
X149296381Y-104370095D02*
X148296381Y-104370095D01*
X148296381Y-103989142D01*
X148344000Y-103893904D01*
X148391619Y-103846285D01*
X148486857Y-103798666D01*
X148629714Y-103798666D01*
X148724952Y-103846285D01*
X148772571Y-103893904D01*
X148820190Y-103989142D01*
X148820190Y-104370095D01*
X149296381Y-102846285D02*
X149296381Y-103417714D01*
X149296381Y-103132000D02*
X148296381Y-103132000D01*
X148439238Y-103227238D01*
X148534476Y-103322476D01*
X148582095Y-103417714D01*
X151328381Y-103798666D02*
X150852190Y-104132000D01*
X151328381Y-104370095D02*
X150328381Y-104370095D01*
X150328381Y-103989142D01*
X150376000Y-103893904D01*
X150423619Y-103846285D01*
X150518857Y-103798666D01*
X150661714Y-103798666D01*
X150756952Y-103846285D01*
X150804571Y-103893904D01*
X150852190Y-103989142D01*
X150852190Y-104370095D01*
X150423619Y-103417714D02*
X150376000Y-103370095D01*
X150328381Y-103274857D01*
X150328381Y-103036761D01*
X150376000Y-102941523D01*
X150423619Y-102893904D01*
X150518857Y-102846285D01*
X150614095Y-102846285D01*
X150756952Y-102893904D01*
X151328381Y-103465333D01*
X151328381Y-102846285D01*
X153360381Y-103798666D02*
X152884190Y-104132000D01*
X153360381Y-104370095D02*
X152360381Y-104370095D01*
X152360381Y-103989142D01*
X152408000Y-103893904D01*
X152455619Y-103846285D01*
X152550857Y-103798666D01*
X152693714Y-103798666D01*
X152788952Y-103846285D01*
X152836571Y-103893904D01*
X152884190Y-103989142D01*
X152884190Y-104370095D01*
X152360381Y-103465333D02*
X152360381Y-102846285D01*
X152741333Y-103179619D01*
X152741333Y-103036761D01*
X152788952Y-102941523D01*
X152836571Y-102893904D01*
X152931810Y-102846285D01*
X153169905Y-102846285D01*
X153265143Y-102893904D01*
X153312762Y-102941523D01*
X153360381Y-103036761D01*
X153360381Y-103322476D01*
X153312762Y-103417714D01*
X153265143Y-103465333D01*
X133294381Y-125960095D02*
X132294381Y-125960095D01*
X132294381Y-125722000D01*
X132342000Y-125579142D01*
X132437238Y-125483904D01*
X132532476Y-125436285D01*
X132722952Y-125388666D01*
X132865810Y-125388666D01*
X133056286Y-125436285D01*
X133151524Y-125483904D01*
X133246762Y-125579142D01*
X133294381Y-125722000D01*
X133294381Y-125960095D01*
X133294381Y-124436285D02*
X133294381Y-125007714D01*
X133294381Y-124722000D02*
X132294381Y-124722000D01*
X132437238Y-124817238D01*
X132532476Y-124912476D01*
X132580095Y-125007714D01*
X138882381Y-125960095D02*
X137882381Y-125960095D01*
X137882381Y-125722000D01*
X137930000Y-125579142D01*
X138025238Y-125483904D01*
X138120476Y-125436285D01*
X138310952Y-125388666D01*
X138453810Y-125388666D01*
X138644286Y-125436285D01*
X138739524Y-125483904D01*
X138834762Y-125579142D01*
X138882381Y-125722000D01*
X138882381Y-125960095D01*
X137977619Y-125007714D02*
X137930000Y-124960095D01*
X137882381Y-124864857D01*
X137882381Y-124626761D01*
X137930000Y-124531523D01*
X137977619Y-124483904D01*
X138072857Y-124436285D01*
X138168095Y-124436285D01*
X138310952Y-124483904D01*
X138882381Y-125055333D01*
X138882381Y-124436285D01*
X133294381Y-128944666D02*
X132818190Y-129278000D01*
X133294381Y-129516095D02*
X132294381Y-129516095D01*
X132294381Y-129135142D01*
X132342000Y-129039904D01*
X132389619Y-128992285D01*
X132484857Y-128944666D01*
X132627714Y-128944666D01*
X132722952Y-128992285D01*
X132770571Y-129039904D01*
X132818190Y-129135142D01*
X132818190Y-129516095D01*
X132627714Y-128087523D02*
X133294381Y-128087523D01*
X132246762Y-128325619D02*
X132961048Y-128563714D01*
X132961048Y-127944666D01*
X139136381Y-128944666D02*
X138660190Y-129278000D01*
X139136381Y-129516095D02*
X138136381Y-129516095D01*
X138136381Y-129135142D01*
X138184000Y-129039904D01*
X138231619Y-128992285D01*
X138326857Y-128944666D01*
X138469714Y-128944666D01*
X138564952Y-128992285D01*
X138612571Y-129039904D01*
X138660190Y-129135142D01*
X138660190Y-129516095D01*
X138136381Y-128039904D02*
X138136381Y-128516095D01*
X138612571Y-128563714D01*
X138564952Y-128516095D01*
X138517333Y-128420857D01*
X138517333Y-128182761D01*
X138564952Y-128087523D01*
X138612571Y-128039904D01*
X138707810Y-127992285D01*
X138945905Y-127992285D01*
X139041143Y-128039904D01*
X139088762Y-128087523D01*
X139136381Y-128182761D01*
X139136381Y-128420857D01*
X139088762Y-128516095D01*
X139041143Y-128563714D01*
M02*
