G04 #@! TF.FileFunction,Copper,L1,Top,Signal*
%FSLAX46Y46*%
G04 Gerber Fmt 4.6, Leading zero omitted, Abs format (unit mm)*
G04 Created by KiCad (PCBNEW 4.0.7) date 08/21/18 13:31:30*
%MOMM*%
%LPD*%
G01*
G04 APERTURE LIST*
%ADD10C,0.100000*%
%ADD11C,0.600000*%
%ADD12R,1.500000X0.450000*%
%ADD13R,1.250000X1.000000*%
%ADD14R,1.700000X1.700000*%
%ADD15O,1.700000X1.700000*%
%ADD16R,1.300000X0.700000*%
%ADD17R,0.800000X0.800000*%
%ADD18C,0.500000*%
%ADD19C,0.250000*%
%ADD20C,0.254000*%
G04 APERTURE END LIST*
D10*
D11*
X148082000Y-128270000D03*
X149098000Y-99822000D03*
X132588000Y-99822000D03*
X134366000Y-118110000D03*
X134366000Y-117094000D03*
D12*
X138065000Y-113469000D03*
X138065000Y-114119000D03*
X138065000Y-114769000D03*
X138065000Y-115419000D03*
X138065000Y-116069000D03*
X138065000Y-116719000D03*
X138065000Y-117369000D03*
X138065000Y-118019000D03*
X143965000Y-118019000D03*
X143965000Y-117369000D03*
X143965000Y-116719000D03*
X143965000Y-116069000D03*
X143965000Y-115419000D03*
X143965000Y-114769000D03*
X143965000Y-114119000D03*
X143965000Y-113469000D03*
D13*
X145034000Y-119904000D03*
X145034000Y-121904000D03*
X146812000Y-119904000D03*
X146812000Y-121904000D03*
X151638000Y-118380000D03*
X151638000Y-120380000D03*
X143256000Y-121904000D03*
X143256000Y-119904000D03*
D14*
X157226000Y-123444000D03*
D15*
X157226000Y-120904000D03*
X157226000Y-118364000D03*
X157226000Y-115824000D03*
X157226000Y-113284000D03*
X157226000Y-110744000D03*
X157226000Y-108204000D03*
D14*
X128270000Y-105918000D03*
D15*
X128270000Y-108458000D03*
X128270000Y-110998000D03*
X128270000Y-113538000D03*
X128270000Y-116078000D03*
X128270000Y-118618000D03*
X128270000Y-121158000D03*
X128270000Y-123698000D03*
X128270000Y-126238000D03*
D16*
X148844000Y-107376000D03*
X148844000Y-105476000D03*
X150876000Y-107376000D03*
X150876000Y-105476000D03*
X152908000Y-107376000D03*
X152908000Y-105476000D03*
D17*
X134620000Y-124422000D03*
X134620000Y-126022000D03*
X136652000Y-124422000D03*
X136652000Y-126022000D03*
D16*
X134620000Y-127828000D03*
X134620000Y-129728000D03*
X136652000Y-127828000D03*
X136652000Y-129728000D03*
D11*
X134366000Y-116078000D03*
X136144000Y-117602000D03*
X147066000Y-108458000D03*
X153162000Y-115316000D03*
X149860000Y-116840000D03*
D18*
X138065000Y-116719000D02*
X134741000Y-116719000D01*
X134741000Y-116719000D02*
X134366000Y-117094000D01*
X146812000Y-119904000D02*
X147844000Y-119904000D01*
X149606000Y-123444000D02*
X157226000Y-123444000D01*
X148336000Y-122174000D02*
X149606000Y-123444000D01*
X148336000Y-120396000D02*
X148336000Y-122174000D01*
X147844000Y-119904000D02*
X148336000Y-120396000D01*
X145034000Y-119904000D02*
X145034000Y-118618000D01*
X145034000Y-118618000D02*
X144435000Y-118019000D01*
X144435000Y-118019000D02*
X143965000Y-118019000D01*
X145034000Y-119904000D02*
X146812000Y-119904000D01*
D19*
X146812000Y-119904000D02*
X146812000Y-120396000D01*
X149606000Y-118380000D02*
X149606000Y-121412000D01*
X155194000Y-120904000D02*
X157226000Y-120904000D01*
X153670000Y-122428000D02*
X155194000Y-120904000D01*
X150622000Y-122428000D02*
X153670000Y-122428000D01*
X149606000Y-121412000D02*
X150622000Y-122428000D01*
X151638000Y-118380000D02*
X149606000Y-118380000D01*
X149606000Y-118380000D02*
X148352000Y-118380000D01*
X147341000Y-117369000D02*
X143965000Y-117369000D01*
X148352000Y-118380000D02*
X147341000Y-117369000D01*
X143965000Y-116069000D02*
X143011000Y-116069000D01*
X142494000Y-119142000D02*
X143256000Y-119904000D01*
X142494000Y-116586000D02*
X142494000Y-119142000D01*
X143011000Y-116069000D02*
X142494000Y-116586000D01*
X143965000Y-116069000D02*
X156981000Y-116069000D01*
X156981000Y-116069000D02*
X157226000Y-115824000D01*
X136673000Y-117369000D02*
X136652000Y-117348000D01*
X136652000Y-117348000D02*
X136398000Y-117348000D01*
X136398000Y-117348000D02*
X136144000Y-117602000D01*
X138065000Y-117369000D02*
X136673000Y-117369000D01*
X148148000Y-107376000D02*
X148844000Y-107376000D01*
X147066000Y-108458000D02*
X148148000Y-107376000D01*
X157226000Y-113284000D02*
X152908000Y-113284000D01*
X152908000Y-113284000D02*
X148844000Y-109220000D01*
X148844000Y-109220000D02*
X148844000Y-107376000D01*
X153059000Y-115419000D02*
X143965000Y-115419000D01*
X153162000Y-115316000D02*
X153059000Y-115419000D01*
X157226000Y-110744000D02*
X151892000Y-110744000D01*
X150876000Y-109728000D02*
X150876000Y-107376000D01*
X151892000Y-110744000D02*
X150876000Y-109728000D01*
X149739000Y-116719000D02*
X143965000Y-116719000D01*
X149860000Y-116840000D02*
X149739000Y-116719000D01*
X153416000Y-108204000D02*
X157226000Y-108204000D01*
X152908000Y-107376000D02*
X152908000Y-107696000D01*
X152908000Y-107696000D02*
X153416000Y-108204000D01*
X145073000Y-114769000D02*
X147066000Y-112776000D01*
X147066000Y-112776000D02*
X147066000Y-110744000D01*
X145073000Y-114769000D02*
X143965000Y-114769000D01*
X147066000Y-110744000D02*
X142240000Y-105918000D01*
X128270000Y-105918000D02*
X142240000Y-105918000D01*
X143965000Y-114119000D02*
X144707000Y-114119000D01*
X144707000Y-114119000D02*
X145542000Y-113284000D01*
X145542000Y-113284000D02*
X145542000Y-110998000D01*
X145542000Y-110998000D02*
X143002000Y-108458000D01*
X143002000Y-108458000D02*
X128270000Y-108458000D01*
X143965000Y-112977000D02*
X142240000Y-111252000D01*
X143965000Y-112977000D02*
X143965000Y-113469000D01*
X141986000Y-110998000D02*
X142240000Y-111252000D01*
X128270000Y-110998000D02*
X141986000Y-110998000D01*
X138065000Y-113469000D02*
X128339000Y-113469000D01*
X128339000Y-113469000D02*
X128270000Y-113538000D01*
X138065000Y-114119000D02*
X133023000Y-114119000D01*
X131064000Y-116078000D02*
X128270000Y-116078000D01*
X133023000Y-114119000D02*
X131064000Y-116078000D01*
X129540000Y-118618000D02*
X128270000Y-118618000D01*
X133389000Y-114769000D02*
X129540000Y-118618000D01*
X138065000Y-114769000D02*
X133389000Y-114769000D01*
X128270000Y-121158000D02*
X131826000Y-121158000D01*
X131826000Y-121158000D02*
X132588000Y-121920000D01*
X132588000Y-121920000D02*
X136398000Y-121920000D01*
X137922000Y-120396000D02*
X137922000Y-118162000D01*
X136398000Y-121920000D02*
X137922000Y-120396000D01*
X137922000Y-118162000D02*
X138065000Y-118019000D01*
X131064000Y-126238000D02*
X132842000Y-128016000D01*
X132842000Y-128016000D02*
X132842000Y-128270000D01*
X128270000Y-126238000D02*
X131064000Y-126238000D01*
X131064000Y-126238000D02*
X132880000Y-124422000D01*
X132842000Y-128270000D02*
X133350000Y-128778000D01*
X140057000Y-115419000D02*
X138065000Y-115419000D01*
X140716000Y-116078000D02*
X140057000Y-115419000D01*
X140716000Y-125984000D02*
X140716000Y-116078000D01*
X137922000Y-128778000D02*
X140716000Y-125984000D01*
X133350000Y-128778000D02*
X137922000Y-128778000D01*
X132880000Y-124422000D02*
X134620000Y-124422000D01*
X128270000Y-123698000D02*
X131826000Y-123698000D01*
X131826000Y-123698000D02*
X132588000Y-122936000D01*
X132588000Y-122936000D02*
X135890000Y-122936000D01*
X136652000Y-124422000D02*
X137452000Y-124422000D01*
X139437000Y-116069000D02*
X138065000Y-116069000D01*
X139954000Y-116586000D02*
X139437000Y-116069000D01*
X139954000Y-121920000D02*
X139954000Y-116586000D01*
X137452000Y-124422000D02*
X139954000Y-121920000D01*
X136652000Y-123698000D02*
X136652000Y-124422000D01*
X135890000Y-122936000D02*
X136652000Y-123698000D01*
X134620000Y-126022000D02*
X134620000Y-127828000D01*
X136652000Y-126022000D02*
X136652000Y-127828000D01*
D20*
G36*
X161596000Y-101259092D02*
X161596000Y-131277908D01*
X156169908Y-136704000D01*
X125770092Y-136704000D01*
X121229146Y-132163054D01*
X122787528Y-132163054D01*
X123201814Y-133165703D01*
X123968262Y-133933490D01*
X124970186Y-134349526D01*
X126055054Y-134350472D01*
X127057703Y-133936186D01*
X127825490Y-133169738D01*
X128241526Y-132167814D01*
X128241530Y-132163054D01*
X153787528Y-132163054D01*
X154201814Y-133165703D01*
X154968262Y-133933490D01*
X155970186Y-134349526D01*
X157055054Y-134350472D01*
X158057703Y-133936186D01*
X158825490Y-133169738D01*
X159241526Y-132167814D01*
X159242472Y-131082946D01*
X158828186Y-130080297D01*
X158061738Y-129312510D01*
X157059814Y-128896474D01*
X155974946Y-128895528D01*
X154972297Y-129309814D01*
X154204510Y-130076262D01*
X153788474Y-131078186D01*
X153787528Y-132163054D01*
X128241530Y-132163054D01*
X128242472Y-131082946D01*
X127828186Y-130080297D01*
X127761756Y-130013750D01*
X133335000Y-130013750D01*
X133335000Y-130204309D01*
X133431673Y-130437698D01*
X133610301Y-130616327D01*
X133843690Y-130713000D01*
X134334250Y-130713000D01*
X134493000Y-130554250D01*
X134493000Y-129855000D01*
X134747000Y-129855000D01*
X134747000Y-130554250D01*
X134905750Y-130713000D01*
X135396310Y-130713000D01*
X135629699Y-130616327D01*
X135636000Y-130610026D01*
X135642301Y-130616327D01*
X135875690Y-130713000D01*
X136366250Y-130713000D01*
X136525000Y-130554250D01*
X136525000Y-129855000D01*
X136779000Y-129855000D01*
X136779000Y-130554250D01*
X136937750Y-130713000D01*
X137428310Y-130713000D01*
X137661699Y-130616327D01*
X137840327Y-130437698D01*
X137937000Y-130204309D01*
X137937000Y-130013750D01*
X137778250Y-129855000D01*
X136779000Y-129855000D01*
X136525000Y-129855000D01*
X134747000Y-129855000D01*
X134493000Y-129855000D01*
X133493750Y-129855000D01*
X133335000Y-130013750D01*
X127761756Y-130013750D01*
X127061738Y-129312510D01*
X126059814Y-128896474D01*
X124974946Y-128895528D01*
X123972297Y-129309814D01*
X123204510Y-130076262D01*
X122788474Y-131078186D01*
X122787528Y-132163054D01*
X121229146Y-132163054D01*
X120852000Y-131785908D01*
X120852000Y-108458000D01*
X126755907Y-108458000D01*
X126868946Y-109026285D01*
X127190853Y-109508054D01*
X127520026Y-109728000D01*
X127190853Y-109947946D01*
X126868946Y-110429715D01*
X126755907Y-110998000D01*
X126868946Y-111566285D01*
X127190853Y-112048054D01*
X127520026Y-112268000D01*
X127190853Y-112487946D01*
X126868946Y-112969715D01*
X126755907Y-113538000D01*
X126868946Y-114106285D01*
X127190853Y-114588054D01*
X127520026Y-114808000D01*
X127190853Y-115027946D01*
X126868946Y-115509715D01*
X126755907Y-116078000D01*
X126868946Y-116646285D01*
X127190853Y-117128054D01*
X127520026Y-117348000D01*
X127190853Y-117567946D01*
X126868946Y-118049715D01*
X126755907Y-118618000D01*
X126868946Y-119186285D01*
X127190853Y-119668054D01*
X127520026Y-119888000D01*
X127190853Y-120107946D01*
X126868946Y-120589715D01*
X126755907Y-121158000D01*
X126868946Y-121726285D01*
X127190853Y-122208054D01*
X127520026Y-122428000D01*
X127190853Y-122647946D01*
X126868946Y-123129715D01*
X126755907Y-123698000D01*
X126868946Y-124266285D01*
X127190853Y-124748054D01*
X127520026Y-124968000D01*
X127190853Y-125187946D01*
X126868946Y-125669715D01*
X126755907Y-126238000D01*
X126868946Y-126806285D01*
X127190853Y-127288054D01*
X127672622Y-127609961D01*
X128240907Y-127723000D01*
X128299093Y-127723000D01*
X128867378Y-127609961D01*
X129349147Y-127288054D01*
X129542954Y-126998000D01*
X130749198Y-126998000D01*
X132097097Y-128345899D01*
X132139852Y-128560839D01*
X132304599Y-128807401D01*
X132812599Y-129315401D01*
X133059161Y-129480148D01*
X133350000Y-129538000D01*
X133430750Y-129538000D01*
X133493750Y-129601000D01*
X134493000Y-129601000D01*
X134493000Y-129581000D01*
X134747000Y-129581000D01*
X134747000Y-129601000D01*
X136525000Y-129601000D01*
X136525000Y-129581000D01*
X136779000Y-129581000D01*
X136779000Y-129601000D01*
X137778250Y-129601000D01*
X137841250Y-129538000D01*
X137922000Y-129538000D01*
X138212839Y-129480148D01*
X138459401Y-129315401D01*
X141253401Y-126521401D01*
X141418148Y-126274839D01*
X141476000Y-125984000D01*
X141476000Y-122189750D01*
X141996000Y-122189750D01*
X141996000Y-122530309D01*
X142092673Y-122763698D01*
X142271301Y-122942327D01*
X142504690Y-123039000D01*
X142970250Y-123039000D01*
X143129000Y-122880250D01*
X143129000Y-122031000D01*
X143383000Y-122031000D01*
X143383000Y-122880250D01*
X143541750Y-123039000D01*
X144007310Y-123039000D01*
X144145000Y-122981967D01*
X144282690Y-123039000D01*
X144748250Y-123039000D01*
X144907000Y-122880250D01*
X144907000Y-122031000D01*
X145161000Y-122031000D01*
X145161000Y-122880250D01*
X145319750Y-123039000D01*
X145785310Y-123039000D01*
X145923000Y-122981967D01*
X146060690Y-123039000D01*
X146526250Y-123039000D01*
X146685000Y-122880250D01*
X146685000Y-122031000D01*
X145161000Y-122031000D01*
X144907000Y-122031000D01*
X143383000Y-122031000D01*
X143129000Y-122031000D01*
X142154750Y-122031000D01*
X141996000Y-122189750D01*
X141476000Y-122189750D01*
X141476000Y-116078000D01*
X141418148Y-115787161D01*
X141253401Y-115540599D01*
X140594401Y-114881599D01*
X140347839Y-114716852D01*
X140057000Y-114659000D01*
X139462440Y-114659000D01*
X139462440Y-114544000D01*
X139442933Y-114440329D01*
X139462440Y-114344000D01*
X139462440Y-113894000D01*
X139442933Y-113790329D01*
X139462440Y-113694000D01*
X139462440Y-113244000D01*
X139418162Y-113008683D01*
X139279090Y-112792559D01*
X139066890Y-112647569D01*
X138815000Y-112596560D01*
X137315000Y-112596560D01*
X137079683Y-112640838D01*
X136973756Y-112709000D01*
X129496850Y-112709000D01*
X129349147Y-112487946D01*
X129019974Y-112268000D01*
X129349147Y-112048054D01*
X129542954Y-111758000D01*
X141671198Y-111758000D01*
X142734962Y-112821764D01*
X142618569Y-112992110D01*
X142567560Y-113244000D01*
X142567560Y-113694000D01*
X142587067Y-113797671D01*
X142567560Y-113894000D01*
X142567560Y-114344000D01*
X142587067Y-114447671D01*
X142567560Y-114544000D01*
X142567560Y-114994000D01*
X142587067Y-115097671D01*
X142567560Y-115194000D01*
X142567560Y-115468816D01*
X142473599Y-115531599D01*
X141956599Y-116048599D01*
X141791852Y-116295161D01*
X141734000Y-116586000D01*
X141734000Y-119142000D01*
X141791852Y-119432839D01*
X141956599Y-119679401D01*
X141983560Y-119706362D01*
X141983560Y-120404000D01*
X142027838Y-120639317D01*
X142166910Y-120855441D01*
X142235006Y-120901969D01*
X142092673Y-121044302D01*
X141996000Y-121277691D01*
X141996000Y-121618250D01*
X142154750Y-121777000D01*
X143129000Y-121777000D01*
X143129000Y-121757000D01*
X143383000Y-121757000D01*
X143383000Y-121777000D01*
X144907000Y-121777000D01*
X144907000Y-121757000D01*
X145161000Y-121757000D01*
X145161000Y-121777000D01*
X146685000Y-121777000D01*
X146685000Y-121757000D01*
X146939000Y-121757000D01*
X146939000Y-121777000D01*
X146959000Y-121777000D01*
X146959000Y-122031000D01*
X146939000Y-122031000D01*
X146939000Y-122880250D01*
X147097750Y-123039000D01*
X147563310Y-123039000D01*
X147796699Y-122942327D01*
X147824723Y-122914303D01*
X148980208Y-124069787D01*
X148980210Y-124069790D01*
X149228066Y-124235401D01*
X149267325Y-124261633D01*
X149606000Y-124329001D01*
X149606005Y-124329000D01*
X155735146Y-124329000D01*
X155772838Y-124529317D01*
X155911910Y-124745441D01*
X156124110Y-124890431D01*
X156376000Y-124941440D01*
X158076000Y-124941440D01*
X158311317Y-124897162D01*
X158527441Y-124758090D01*
X158672431Y-124545890D01*
X158723440Y-124294000D01*
X158723440Y-122594000D01*
X158679162Y-122358683D01*
X158540090Y-122142559D01*
X158327890Y-121997569D01*
X158260459Y-121983914D01*
X158305147Y-121954054D01*
X158627054Y-121472285D01*
X158740093Y-120904000D01*
X158627054Y-120335715D01*
X158305147Y-119853946D01*
X157964447Y-119626298D01*
X158107358Y-119559183D01*
X158497645Y-119130924D01*
X158667476Y-118720890D01*
X158546155Y-118491000D01*
X157353000Y-118491000D01*
X157353000Y-118511000D01*
X157099000Y-118511000D01*
X157099000Y-118491000D01*
X155905845Y-118491000D01*
X155784524Y-118720890D01*
X155954355Y-119130924D01*
X156344642Y-119559183D01*
X156487553Y-119626298D01*
X156146853Y-119853946D01*
X155953046Y-120144000D01*
X155194000Y-120144000D01*
X154951414Y-120192254D01*
X154903160Y-120201852D01*
X154656599Y-120366599D01*
X153355198Y-121668000D01*
X150936802Y-121668000D01*
X150711049Y-121442247D01*
X150886690Y-121515000D01*
X151352250Y-121515000D01*
X151511000Y-121356250D01*
X151511000Y-120507000D01*
X151765000Y-120507000D01*
X151765000Y-121356250D01*
X151923750Y-121515000D01*
X152389310Y-121515000D01*
X152622699Y-121418327D01*
X152801327Y-121239698D01*
X152898000Y-121006309D01*
X152898000Y-120665750D01*
X152739250Y-120507000D01*
X151765000Y-120507000D01*
X151511000Y-120507000D01*
X150536750Y-120507000D01*
X150378000Y-120665750D01*
X150378000Y-121006309D01*
X150450754Y-121181952D01*
X150366000Y-121097198D01*
X150366000Y-119140000D01*
X150425721Y-119140000D01*
X150548910Y-119331441D01*
X150617006Y-119377969D01*
X150474673Y-119520302D01*
X150378000Y-119753691D01*
X150378000Y-120094250D01*
X150536750Y-120253000D01*
X151511000Y-120253000D01*
X151511000Y-120233000D01*
X151765000Y-120233000D01*
X151765000Y-120253000D01*
X152739250Y-120253000D01*
X152898000Y-120094250D01*
X152898000Y-119753691D01*
X152801327Y-119520302D01*
X152660090Y-119379064D01*
X152714441Y-119344090D01*
X152859431Y-119131890D01*
X152910440Y-118880000D01*
X152910440Y-117880000D01*
X152866162Y-117644683D01*
X152727090Y-117428559D01*
X152514890Y-117283569D01*
X152263000Y-117232560D01*
X151013000Y-117232560D01*
X150777683Y-117276838D01*
X150659410Y-117352945D01*
X150794838Y-117026799D01*
X150795010Y-116829000D01*
X156116749Y-116829000D01*
X156146853Y-116874054D01*
X156487553Y-117101702D01*
X156344642Y-117168817D01*
X155954355Y-117597076D01*
X155784524Y-118007110D01*
X155905845Y-118237000D01*
X157099000Y-118237000D01*
X157099000Y-118217000D01*
X157353000Y-118217000D01*
X157353000Y-118237000D01*
X158546155Y-118237000D01*
X158667476Y-118007110D01*
X158497645Y-117597076D01*
X158107358Y-117168817D01*
X157964447Y-117101702D01*
X158305147Y-116874054D01*
X158627054Y-116392285D01*
X158740093Y-115824000D01*
X158627054Y-115255715D01*
X158305147Y-114773946D01*
X157975974Y-114554000D01*
X158305147Y-114334054D01*
X158627054Y-113852285D01*
X158740093Y-113284000D01*
X158627054Y-112715715D01*
X158305147Y-112233946D01*
X157975974Y-112014000D01*
X158305147Y-111794054D01*
X158627054Y-111312285D01*
X158740093Y-110744000D01*
X158627054Y-110175715D01*
X158305147Y-109693946D01*
X157975974Y-109474000D01*
X158305147Y-109254054D01*
X158627054Y-108772285D01*
X158740093Y-108204000D01*
X158627054Y-107635715D01*
X158305147Y-107153946D01*
X157823378Y-106832039D01*
X157255093Y-106719000D01*
X157196907Y-106719000D01*
X156628622Y-106832039D01*
X156146853Y-107153946D01*
X155953046Y-107444000D01*
X154205440Y-107444000D01*
X154205440Y-107026000D01*
X154161162Y-106790683D01*
X154022090Y-106574559D01*
X153809890Y-106429569D01*
X153776510Y-106422809D01*
X153917699Y-106364327D01*
X154096327Y-106185698D01*
X154193000Y-105952309D01*
X154193000Y-105761750D01*
X154034250Y-105603000D01*
X153035000Y-105603000D01*
X153035000Y-105623000D01*
X152781000Y-105623000D01*
X152781000Y-105603000D01*
X151003000Y-105603000D01*
X151003000Y-105623000D01*
X150749000Y-105623000D01*
X150749000Y-105603000D01*
X148971000Y-105603000D01*
X148971000Y-105623000D01*
X148717000Y-105623000D01*
X148717000Y-105603000D01*
X147717750Y-105603000D01*
X147559000Y-105761750D01*
X147559000Y-105952309D01*
X147655673Y-106185698D01*
X147834301Y-106364327D01*
X147970287Y-106420654D01*
X147958683Y-106422838D01*
X147742559Y-106561910D01*
X147597569Y-106774110D01*
X147577885Y-106871313D01*
X146926320Y-107522878D01*
X146880833Y-107522838D01*
X146537057Y-107664883D01*
X146273808Y-107927673D01*
X146131162Y-108271201D01*
X146130838Y-108643167D01*
X146194822Y-108798020D01*
X142777401Y-105380599D01*
X142530839Y-105215852D01*
X142240000Y-105158000D01*
X129767440Y-105158000D01*
X129767440Y-105068000D01*
X129754587Y-104999691D01*
X147559000Y-104999691D01*
X147559000Y-105190250D01*
X147717750Y-105349000D01*
X148717000Y-105349000D01*
X148717000Y-104649750D01*
X148971000Y-104649750D01*
X148971000Y-105349000D01*
X150749000Y-105349000D01*
X150749000Y-104649750D01*
X151003000Y-104649750D01*
X151003000Y-105349000D01*
X152781000Y-105349000D01*
X152781000Y-104649750D01*
X153035000Y-104649750D01*
X153035000Y-105349000D01*
X154034250Y-105349000D01*
X154193000Y-105190250D01*
X154193000Y-104999691D01*
X154096327Y-104766302D01*
X153917699Y-104587673D01*
X153684310Y-104491000D01*
X153193750Y-104491000D01*
X153035000Y-104649750D01*
X152781000Y-104649750D01*
X152622250Y-104491000D01*
X152131690Y-104491000D01*
X151898301Y-104587673D01*
X151892000Y-104593974D01*
X151885699Y-104587673D01*
X151652310Y-104491000D01*
X151161750Y-104491000D01*
X151003000Y-104649750D01*
X150749000Y-104649750D01*
X150590250Y-104491000D01*
X150099690Y-104491000D01*
X149866301Y-104587673D01*
X149860000Y-104593974D01*
X149853699Y-104587673D01*
X149620310Y-104491000D01*
X149129750Y-104491000D01*
X148971000Y-104649750D01*
X148717000Y-104649750D01*
X148558250Y-104491000D01*
X148067690Y-104491000D01*
X147834301Y-104587673D01*
X147655673Y-104766302D01*
X147559000Y-104999691D01*
X129754587Y-104999691D01*
X129723162Y-104832683D01*
X129584090Y-104616559D01*
X129371890Y-104471569D01*
X129120000Y-104420560D01*
X127420000Y-104420560D01*
X127184683Y-104464838D01*
X126968559Y-104603910D01*
X126823569Y-104816110D01*
X126772560Y-105068000D01*
X126772560Y-106768000D01*
X126816838Y-107003317D01*
X126955910Y-107219441D01*
X127168110Y-107364431D01*
X127235541Y-107378086D01*
X127190853Y-107407946D01*
X126868946Y-107889715D01*
X126755907Y-108458000D01*
X120852000Y-108458000D01*
X120852000Y-101163054D01*
X122787528Y-101163054D01*
X123201814Y-102165703D01*
X123968262Y-102933490D01*
X124970186Y-103349526D01*
X126055054Y-103350472D01*
X127057703Y-102936186D01*
X127825490Y-102169738D01*
X128241526Y-101167814D01*
X128241530Y-101163054D01*
X153787528Y-101163054D01*
X154201814Y-102165703D01*
X154968262Y-102933490D01*
X155970186Y-103349526D01*
X157055054Y-103350472D01*
X158057703Y-102936186D01*
X158825490Y-102169738D01*
X159241526Y-101167814D01*
X159242472Y-100082946D01*
X158828186Y-99080297D01*
X158061738Y-98312510D01*
X157059814Y-97896474D01*
X155974946Y-97895528D01*
X154972297Y-98309814D01*
X154204510Y-99076262D01*
X153788474Y-100078186D01*
X153787528Y-101163054D01*
X128241530Y-101163054D01*
X128242472Y-100082946D01*
X127828186Y-99080297D01*
X127061738Y-98312510D01*
X126059814Y-97896474D01*
X124974946Y-97895528D01*
X123972297Y-98309814D01*
X123204510Y-99076262D01*
X122788474Y-100078186D01*
X122787528Y-101163054D01*
X120852000Y-101163054D01*
X120852000Y-100878092D01*
X125770092Y-95960000D01*
X156296908Y-95960000D01*
X161596000Y-101259092D01*
X161596000Y-101259092D01*
G37*
X161596000Y-101259092D02*
X161596000Y-131277908D01*
X156169908Y-136704000D01*
X125770092Y-136704000D01*
X121229146Y-132163054D01*
X122787528Y-132163054D01*
X123201814Y-133165703D01*
X123968262Y-133933490D01*
X124970186Y-134349526D01*
X126055054Y-134350472D01*
X127057703Y-133936186D01*
X127825490Y-133169738D01*
X128241526Y-132167814D01*
X128241530Y-132163054D01*
X153787528Y-132163054D01*
X154201814Y-133165703D01*
X154968262Y-133933490D01*
X155970186Y-134349526D01*
X157055054Y-134350472D01*
X158057703Y-133936186D01*
X158825490Y-133169738D01*
X159241526Y-132167814D01*
X159242472Y-131082946D01*
X158828186Y-130080297D01*
X158061738Y-129312510D01*
X157059814Y-128896474D01*
X155974946Y-128895528D01*
X154972297Y-129309814D01*
X154204510Y-130076262D01*
X153788474Y-131078186D01*
X153787528Y-132163054D01*
X128241530Y-132163054D01*
X128242472Y-131082946D01*
X127828186Y-130080297D01*
X127761756Y-130013750D01*
X133335000Y-130013750D01*
X133335000Y-130204309D01*
X133431673Y-130437698D01*
X133610301Y-130616327D01*
X133843690Y-130713000D01*
X134334250Y-130713000D01*
X134493000Y-130554250D01*
X134493000Y-129855000D01*
X134747000Y-129855000D01*
X134747000Y-130554250D01*
X134905750Y-130713000D01*
X135396310Y-130713000D01*
X135629699Y-130616327D01*
X135636000Y-130610026D01*
X135642301Y-130616327D01*
X135875690Y-130713000D01*
X136366250Y-130713000D01*
X136525000Y-130554250D01*
X136525000Y-129855000D01*
X136779000Y-129855000D01*
X136779000Y-130554250D01*
X136937750Y-130713000D01*
X137428310Y-130713000D01*
X137661699Y-130616327D01*
X137840327Y-130437698D01*
X137937000Y-130204309D01*
X137937000Y-130013750D01*
X137778250Y-129855000D01*
X136779000Y-129855000D01*
X136525000Y-129855000D01*
X134747000Y-129855000D01*
X134493000Y-129855000D01*
X133493750Y-129855000D01*
X133335000Y-130013750D01*
X127761756Y-130013750D01*
X127061738Y-129312510D01*
X126059814Y-128896474D01*
X124974946Y-128895528D01*
X123972297Y-129309814D01*
X123204510Y-130076262D01*
X122788474Y-131078186D01*
X122787528Y-132163054D01*
X121229146Y-132163054D01*
X120852000Y-131785908D01*
X120852000Y-108458000D01*
X126755907Y-108458000D01*
X126868946Y-109026285D01*
X127190853Y-109508054D01*
X127520026Y-109728000D01*
X127190853Y-109947946D01*
X126868946Y-110429715D01*
X126755907Y-110998000D01*
X126868946Y-111566285D01*
X127190853Y-112048054D01*
X127520026Y-112268000D01*
X127190853Y-112487946D01*
X126868946Y-112969715D01*
X126755907Y-113538000D01*
X126868946Y-114106285D01*
X127190853Y-114588054D01*
X127520026Y-114808000D01*
X127190853Y-115027946D01*
X126868946Y-115509715D01*
X126755907Y-116078000D01*
X126868946Y-116646285D01*
X127190853Y-117128054D01*
X127520026Y-117348000D01*
X127190853Y-117567946D01*
X126868946Y-118049715D01*
X126755907Y-118618000D01*
X126868946Y-119186285D01*
X127190853Y-119668054D01*
X127520026Y-119888000D01*
X127190853Y-120107946D01*
X126868946Y-120589715D01*
X126755907Y-121158000D01*
X126868946Y-121726285D01*
X127190853Y-122208054D01*
X127520026Y-122428000D01*
X127190853Y-122647946D01*
X126868946Y-123129715D01*
X126755907Y-123698000D01*
X126868946Y-124266285D01*
X127190853Y-124748054D01*
X127520026Y-124968000D01*
X127190853Y-125187946D01*
X126868946Y-125669715D01*
X126755907Y-126238000D01*
X126868946Y-126806285D01*
X127190853Y-127288054D01*
X127672622Y-127609961D01*
X128240907Y-127723000D01*
X128299093Y-127723000D01*
X128867378Y-127609961D01*
X129349147Y-127288054D01*
X129542954Y-126998000D01*
X130749198Y-126998000D01*
X132097097Y-128345899D01*
X132139852Y-128560839D01*
X132304599Y-128807401D01*
X132812599Y-129315401D01*
X133059161Y-129480148D01*
X133350000Y-129538000D01*
X133430750Y-129538000D01*
X133493750Y-129601000D01*
X134493000Y-129601000D01*
X134493000Y-129581000D01*
X134747000Y-129581000D01*
X134747000Y-129601000D01*
X136525000Y-129601000D01*
X136525000Y-129581000D01*
X136779000Y-129581000D01*
X136779000Y-129601000D01*
X137778250Y-129601000D01*
X137841250Y-129538000D01*
X137922000Y-129538000D01*
X138212839Y-129480148D01*
X138459401Y-129315401D01*
X141253401Y-126521401D01*
X141418148Y-126274839D01*
X141476000Y-125984000D01*
X141476000Y-122189750D01*
X141996000Y-122189750D01*
X141996000Y-122530309D01*
X142092673Y-122763698D01*
X142271301Y-122942327D01*
X142504690Y-123039000D01*
X142970250Y-123039000D01*
X143129000Y-122880250D01*
X143129000Y-122031000D01*
X143383000Y-122031000D01*
X143383000Y-122880250D01*
X143541750Y-123039000D01*
X144007310Y-123039000D01*
X144145000Y-122981967D01*
X144282690Y-123039000D01*
X144748250Y-123039000D01*
X144907000Y-122880250D01*
X144907000Y-122031000D01*
X145161000Y-122031000D01*
X145161000Y-122880250D01*
X145319750Y-123039000D01*
X145785310Y-123039000D01*
X145923000Y-122981967D01*
X146060690Y-123039000D01*
X146526250Y-123039000D01*
X146685000Y-122880250D01*
X146685000Y-122031000D01*
X145161000Y-122031000D01*
X144907000Y-122031000D01*
X143383000Y-122031000D01*
X143129000Y-122031000D01*
X142154750Y-122031000D01*
X141996000Y-122189750D01*
X141476000Y-122189750D01*
X141476000Y-116078000D01*
X141418148Y-115787161D01*
X141253401Y-115540599D01*
X140594401Y-114881599D01*
X140347839Y-114716852D01*
X140057000Y-114659000D01*
X139462440Y-114659000D01*
X139462440Y-114544000D01*
X139442933Y-114440329D01*
X139462440Y-114344000D01*
X139462440Y-113894000D01*
X139442933Y-113790329D01*
X139462440Y-113694000D01*
X139462440Y-113244000D01*
X139418162Y-113008683D01*
X139279090Y-112792559D01*
X139066890Y-112647569D01*
X138815000Y-112596560D01*
X137315000Y-112596560D01*
X137079683Y-112640838D01*
X136973756Y-112709000D01*
X129496850Y-112709000D01*
X129349147Y-112487946D01*
X129019974Y-112268000D01*
X129349147Y-112048054D01*
X129542954Y-111758000D01*
X141671198Y-111758000D01*
X142734962Y-112821764D01*
X142618569Y-112992110D01*
X142567560Y-113244000D01*
X142567560Y-113694000D01*
X142587067Y-113797671D01*
X142567560Y-113894000D01*
X142567560Y-114344000D01*
X142587067Y-114447671D01*
X142567560Y-114544000D01*
X142567560Y-114994000D01*
X142587067Y-115097671D01*
X142567560Y-115194000D01*
X142567560Y-115468816D01*
X142473599Y-115531599D01*
X141956599Y-116048599D01*
X141791852Y-116295161D01*
X141734000Y-116586000D01*
X141734000Y-119142000D01*
X141791852Y-119432839D01*
X141956599Y-119679401D01*
X141983560Y-119706362D01*
X141983560Y-120404000D01*
X142027838Y-120639317D01*
X142166910Y-120855441D01*
X142235006Y-120901969D01*
X142092673Y-121044302D01*
X141996000Y-121277691D01*
X141996000Y-121618250D01*
X142154750Y-121777000D01*
X143129000Y-121777000D01*
X143129000Y-121757000D01*
X143383000Y-121757000D01*
X143383000Y-121777000D01*
X144907000Y-121777000D01*
X144907000Y-121757000D01*
X145161000Y-121757000D01*
X145161000Y-121777000D01*
X146685000Y-121777000D01*
X146685000Y-121757000D01*
X146939000Y-121757000D01*
X146939000Y-121777000D01*
X146959000Y-121777000D01*
X146959000Y-122031000D01*
X146939000Y-122031000D01*
X146939000Y-122880250D01*
X147097750Y-123039000D01*
X147563310Y-123039000D01*
X147796699Y-122942327D01*
X147824723Y-122914303D01*
X148980208Y-124069787D01*
X148980210Y-124069790D01*
X149228066Y-124235401D01*
X149267325Y-124261633D01*
X149606000Y-124329001D01*
X149606005Y-124329000D01*
X155735146Y-124329000D01*
X155772838Y-124529317D01*
X155911910Y-124745441D01*
X156124110Y-124890431D01*
X156376000Y-124941440D01*
X158076000Y-124941440D01*
X158311317Y-124897162D01*
X158527441Y-124758090D01*
X158672431Y-124545890D01*
X158723440Y-124294000D01*
X158723440Y-122594000D01*
X158679162Y-122358683D01*
X158540090Y-122142559D01*
X158327890Y-121997569D01*
X158260459Y-121983914D01*
X158305147Y-121954054D01*
X158627054Y-121472285D01*
X158740093Y-120904000D01*
X158627054Y-120335715D01*
X158305147Y-119853946D01*
X157964447Y-119626298D01*
X158107358Y-119559183D01*
X158497645Y-119130924D01*
X158667476Y-118720890D01*
X158546155Y-118491000D01*
X157353000Y-118491000D01*
X157353000Y-118511000D01*
X157099000Y-118511000D01*
X157099000Y-118491000D01*
X155905845Y-118491000D01*
X155784524Y-118720890D01*
X155954355Y-119130924D01*
X156344642Y-119559183D01*
X156487553Y-119626298D01*
X156146853Y-119853946D01*
X155953046Y-120144000D01*
X155194000Y-120144000D01*
X154951414Y-120192254D01*
X154903160Y-120201852D01*
X154656599Y-120366599D01*
X153355198Y-121668000D01*
X150936802Y-121668000D01*
X150711049Y-121442247D01*
X150886690Y-121515000D01*
X151352250Y-121515000D01*
X151511000Y-121356250D01*
X151511000Y-120507000D01*
X151765000Y-120507000D01*
X151765000Y-121356250D01*
X151923750Y-121515000D01*
X152389310Y-121515000D01*
X152622699Y-121418327D01*
X152801327Y-121239698D01*
X152898000Y-121006309D01*
X152898000Y-120665750D01*
X152739250Y-120507000D01*
X151765000Y-120507000D01*
X151511000Y-120507000D01*
X150536750Y-120507000D01*
X150378000Y-120665750D01*
X150378000Y-121006309D01*
X150450754Y-121181952D01*
X150366000Y-121097198D01*
X150366000Y-119140000D01*
X150425721Y-119140000D01*
X150548910Y-119331441D01*
X150617006Y-119377969D01*
X150474673Y-119520302D01*
X150378000Y-119753691D01*
X150378000Y-120094250D01*
X150536750Y-120253000D01*
X151511000Y-120253000D01*
X151511000Y-120233000D01*
X151765000Y-120233000D01*
X151765000Y-120253000D01*
X152739250Y-120253000D01*
X152898000Y-120094250D01*
X152898000Y-119753691D01*
X152801327Y-119520302D01*
X152660090Y-119379064D01*
X152714441Y-119344090D01*
X152859431Y-119131890D01*
X152910440Y-118880000D01*
X152910440Y-117880000D01*
X152866162Y-117644683D01*
X152727090Y-117428559D01*
X152514890Y-117283569D01*
X152263000Y-117232560D01*
X151013000Y-117232560D01*
X150777683Y-117276838D01*
X150659410Y-117352945D01*
X150794838Y-117026799D01*
X150795010Y-116829000D01*
X156116749Y-116829000D01*
X156146853Y-116874054D01*
X156487553Y-117101702D01*
X156344642Y-117168817D01*
X155954355Y-117597076D01*
X155784524Y-118007110D01*
X155905845Y-118237000D01*
X157099000Y-118237000D01*
X157099000Y-118217000D01*
X157353000Y-118217000D01*
X157353000Y-118237000D01*
X158546155Y-118237000D01*
X158667476Y-118007110D01*
X158497645Y-117597076D01*
X158107358Y-117168817D01*
X157964447Y-117101702D01*
X158305147Y-116874054D01*
X158627054Y-116392285D01*
X158740093Y-115824000D01*
X158627054Y-115255715D01*
X158305147Y-114773946D01*
X157975974Y-114554000D01*
X158305147Y-114334054D01*
X158627054Y-113852285D01*
X158740093Y-113284000D01*
X158627054Y-112715715D01*
X158305147Y-112233946D01*
X157975974Y-112014000D01*
X158305147Y-111794054D01*
X158627054Y-111312285D01*
X158740093Y-110744000D01*
X158627054Y-110175715D01*
X158305147Y-109693946D01*
X157975974Y-109474000D01*
X158305147Y-109254054D01*
X158627054Y-108772285D01*
X158740093Y-108204000D01*
X158627054Y-107635715D01*
X158305147Y-107153946D01*
X157823378Y-106832039D01*
X157255093Y-106719000D01*
X157196907Y-106719000D01*
X156628622Y-106832039D01*
X156146853Y-107153946D01*
X155953046Y-107444000D01*
X154205440Y-107444000D01*
X154205440Y-107026000D01*
X154161162Y-106790683D01*
X154022090Y-106574559D01*
X153809890Y-106429569D01*
X153776510Y-106422809D01*
X153917699Y-106364327D01*
X154096327Y-106185698D01*
X154193000Y-105952309D01*
X154193000Y-105761750D01*
X154034250Y-105603000D01*
X153035000Y-105603000D01*
X153035000Y-105623000D01*
X152781000Y-105623000D01*
X152781000Y-105603000D01*
X151003000Y-105603000D01*
X151003000Y-105623000D01*
X150749000Y-105623000D01*
X150749000Y-105603000D01*
X148971000Y-105603000D01*
X148971000Y-105623000D01*
X148717000Y-105623000D01*
X148717000Y-105603000D01*
X147717750Y-105603000D01*
X147559000Y-105761750D01*
X147559000Y-105952309D01*
X147655673Y-106185698D01*
X147834301Y-106364327D01*
X147970287Y-106420654D01*
X147958683Y-106422838D01*
X147742559Y-106561910D01*
X147597569Y-106774110D01*
X147577885Y-106871313D01*
X146926320Y-107522878D01*
X146880833Y-107522838D01*
X146537057Y-107664883D01*
X146273808Y-107927673D01*
X146131162Y-108271201D01*
X146130838Y-108643167D01*
X146194822Y-108798020D01*
X142777401Y-105380599D01*
X142530839Y-105215852D01*
X142240000Y-105158000D01*
X129767440Y-105158000D01*
X129767440Y-105068000D01*
X129754587Y-104999691D01*
X147559000Y-104999691D01*
X147559000Y-105190250D01*
X147717750Y-105349000D01*
X148717000Y-105349000D01*
X148717000Y-104649750D01*
X148971000Y-104649750D01*
X148971000Y-105349000D01*
X150749000Y-105349000D01*
X150749000Y-104649750D01*
X151003000Y-104649750D01*
X151003000Y-105349000D01*
X152781000Y-105349000D01*
X152781000Y-104649750D01*
X153035000Y-104649750D01*
X153035000Y-105349000D01*
X154034250Y-105349000D01*
X154193000Y-105190250D01*
X154193000Y-104999691D01*
X154096327Y-104766302D01*
X153917699Y-104587673D01*
X153684310Y-104491000D01*
X153193750Y-104491000D01*
X153035000Y-104649750D01*
X152781000Y-104649750D01*
X152622250Y-104491000D01*
X152131690Y-104491000D01*
X151898301Y-104587673D01*
X151892000Y-104593974D01*
X151885699Y-104587673D01*
X151652310Y-104491000D01*
X151161750Y-104491000D01*
X151003000Y-104649750D01*
X150749000Y-104649750D01*
X150590250Y-104491000D01*
X150099690Y-104491000D01*
X149866301Y-104587673D01*
X149860000Y-104593974D01*
X149853699Y-104587673D01*
X149620310Y-104491000D01*
X149129750Y-104491000D01*
X148971000Y-104649750D01*
X148717000Y-104649750D01*
X148558250Y-104491000D01*
X148067690Y-104491000D01*
X147834301Y-104587673D01*
X147655673Y-104766302D01*
X147559000Y-104999691D01*
X129754587Y-104999691D01*
X129723162Y-104832683D01*
X129584090Y-104616559D01*
X129371890Y-104471569D01*
X129120000Y-104420560D01*
X127420000Y-104420560D01*
X127184683Y-104464838D01*
X126968559Y-104603910D01*
X126823569Y-104816110D01*
X126772560Y-105068000D01*
X126772560Y-106768000D01*
X126816838Y-107003317D01*
X126955910Y-107219441D01*
X127168110Y-107364431D01*
X127235541Y-107378086D01*
X127190853Y-107407946D01*
X126868946Y-107889715D01*
X126755907Y-108458000D01*
X120852000Y-108458000D01*
X120852000Y-101163054D01*
X122787528Y-101163054D01*
X123201814Y-102165703D01*
X123968262Y-102933490D01*
X124970186Y-103349526D01*
X126055054Y-103350472D01*
X127057703Y-102936186D01*
X127825490Y-102169738D01*
X128241526Y-101167814D01*
X128241530Y-101163054D01*
X153787528Y-101163054D01*
X154201814Y-102165703D01*
X154968262Y-102933490D01*
X155970186Y-103349526D01*
X157055054Y-103350472D01*
X158057703Y-102936186D01*
X158825490Y-102169738D01*
X159241526Y-101167814D01*
X159242472Y-100082946D01*
X158828186Y-99080297D01*
X158061738Y-98312510D01*
X157059814Y-97896474D01*
X155974946Y-97895528D01*
X154972297Y-98309814D01*
X154204510Y-99076262D01*
X153788474Y-100078186D01*
X153787528Y-101163054D01*
X128241530Y-101163054D01*
X128242472Y-100082946D01*
X127828186Y-99080297D01*
X127061738Y-98312510D01*
X126059814Y-97896474D01*
X124974946Y-97895528D01*
X123972297Y-98309814D01*
X123204510Y-99076262D01*
X122788474Y-100078186D01*
X122787528Y-101163054D01*
X120852000Y-101163054D01*
X120852000Y-100878092D01*
X125770092Y-95960000D01*
X156296908Y-95960000D01*
X161596000Y-101259092D01*
G36*
X136667560Y-115644000D02*
X136687067Y-115747671D01*
X136667560Y-115844000D01*
X136667560Y-116294000D01*
X136680980Y-116365323D01*
X136680000Y-116367690D01*
X136680000Y-116447750D01*
X136700312Y-116468062D01*
X136711838Y-116529317D01*
X136752172Y-116591998D01*
X136680000Y-116591998D01*
X136680000Y-116593570D01*
X136652000Y-116588000D01*
X136398000Y-116588000D01*
X136107160Y-116645852D01*
X136075600Y-116666940D01*
X135958833Y-116666838D01*
X135615057Y-116808883D01*
X135351808Y-117071673D01*
X135209162Y-117415201D01*
X135208838Y-117787167D01*
X135350883Y-118130943D01*
X135613673Y-118394192D01*
X135957201Y-118536838D01*
X136329167Y-118537162D01*
X136672943Y-118395117D01*
X136692349Y-118375744D01*
X136711838Y-118479317D01*
X136850910Y-118695441D01*
X137063110Y-118840431D01*
X137162000Y-118860457D01*
X137162000Y-120081198D01*
X136083198Y-121160000D01*
X132902802Y-121160000D01*
X132363401Y-120620599D01*
X132116839Y-120455852D01*
X131826000Y-120398000D01*
X129542954Y-120398000D01*
X129349147Y-120107946D01*
X129019974Y-119888000D01*
X129349147Y-119668054D01*
X129543407Y-119377322D01*
X129830839Y-119320148D01*
X130077401Y-119155401D01*
X133703802Y-115529000D01*
X136667560Y-115529000D01*
X136667560Y-115644000D01*
X136667560Y-115644000D01*
G37*
X136667560Y-115644000D02*
X136687067Y-115747671D01*
X136667560Y-115844000D01*
X136667560Y-116294000D01*
X136680980Y-116365323D01*
X136680000Y-116367690D01*
X136680000Y-116447750D01*
X136700312Y-116468062D01*
X136711838Y-116529317D01*
X136752172Y-116591998D01*
X136680000Y-116591998D01*
X136680000Y-116593570D01*
X136652000Y-116588000D01*
X136398000Y-116588000D01*
X136107160Y-116645852D01*
X136075600Y-116666940D01*
X135958833Y-116666838D01*
X135615057Y-116808883D01*
X135351808Y-117071673D01*
X135209162Y-117415201D01*
X135208838Y-117787167D01*
X135350883Y-118130943D01*
X135613673Y-118394192D01*
X135957201Y-118536838D01*
X136329167Y-118537162D01*
X136672943Y-118395117D01*
X136692349Y-118375744D01*
X136711838Y-118479317D01*
X136850910Y-118695441D01*
X137063110Y-118840431D01*
X137162000Y-118860457D01*
X137162000Y-120081198D01*
X136083198Y-121160000D01*
X132902802Y-121160000D01*
X132363401Y-120620599D01*
X132116839Y-120455852D01*
X131826000Y-120398000D01*
X129542954Y-120398000D01*
X129349147Y-120107946D01*
X129019974Y-119888000D01*
X129349147Y-119668054D01*
X129543407Y-119377322D01*
X129830839Y-119320148D01*
X130077401Y-119155401D01*
X133703802Y-115529000D01*
X136667560Y-115529000D01*
X136667560Y-115644000D01*
M02*
