G04 #@! TF.FileFunction,Soldermask,Top*
%FSLAX46Y46*%
G04 Gerber Fmt 4.6, Leading zero omitted, Abs format (unit mm)*
G04 Created by KiCad (PCBNEW 4.0.7) date 08/21/18 13:31:30*
%MOMM*%
%LPD*%
G01*
G04 APERTURE LIST*
%ADD10C,0.100000*%
%ADD11C,3.600000*%
%ADD12R,1.900000X0.850000*%
%ADD13R,1.650000X1.400000*%
%ADD14R,2.100000X2.100000*%
%ADD15O,2.100000X2.100000*%
%ADD16R,1.700000X1.100000*%
%ADD17R,1.200000X1.200000*%
G04 APERTURE END LIST*
D10*
D11*
X125515000Y-100623000D03*
D12*
X138065000Y-113469000D03*
X138065000Y-114119000D03*
X138065000Y-114769000D03*
X138065000Y-115419000D03*
X138065000Y-116069000D03*
X138065000Y-116719000D03*
X138065000Y-117369000D03*
X138065000Y-118019000D03*
X143965000Y-118019000D03*
X143965000Y-117369000D03*
X143965000Y-116719000D03*
X143965000Y-116069000D03*
X143965000Y-115419000D03*
X143965000Y-114769000D03*
X143965000Y-114119000D03*
X143965000Y-113469000D03*
D11*
X156515000Y-100623000D03*
X125515000Y-131623000D03*
X156515000Y-131623000D03*
D13*
X145034000Y-119904000D03*
X145034000Y-121904000D03*
X146812000Y-119904000D03*
X146812000Y-121904000D03*
X151638000Y-118380000D03*
X151638000Y-120380000D03*
X143256000Y-121904000D03*
X143256000Y-119904000D03*
D14*
X157226000Y-123444000D03*
D15*
X157226000Y-120904000D03*
X157226000Y-118364000D03*
X157226000Y-115824000D03*
X157226000Y-113284000D03*
X157226000Y-110744000D03*
X157226000Y-108204000D03*
D14*
X128270000Y-105918000D03*
D15*
X128270000Y-108458000D03*
X128270000Y-110998000D03*
X128270000Y-113538000D03*
X128270000Y-116078000D03*
X128270000Y-118618000D03*
X128270000Y-121158000D03*
X128270000Y-123698000D03*
X128270000Y-126238000D03*
D16*
X148844000Y-107376000D03*
X148844000Y-105476000D03*
X150876000Y-107376000D03*
X150876000Y-105476000D03*
X152908000Y-107376000D03*
X152908000Y-105476000D03*
D17*
X134620000Y-124422000D03*
X134620000Y-126022000D03*
X136652000Y-124422000D03*
X136652000Y-126022000D03*
D16*
X134620000Y-127828000D03*
X134620000Y-129728000D03*
X136652000Y-127828000D03*
X136652000Y-129728000D03*
M02*
