M48
;DRILL file {KiCad 4.0.7} date 08/21/18 13:31:46
;FORMAT={3:3/ absolute / metric / suppress trailing zeros}
FMAT,2
METRIC,LZ
T1C0.300
T2C0.400
T3C1.000
T4C3.200
%
G90
G05
M71
T1
X132588Y-099822
X134366Y-116078
X134366Y-117094
X134366Y-11811
X148082Y-12827
X149098Y-099822
T2
X136144Y-117602
X147066Y-108458
X14986Y-11684
X153162Y-115316
T3
X12827Y-105918
X12827Y-108458
X12827Y-110998
X12827Y-113538
X12827Y-116078
X12827Y-118618
X12827Y-121158
X12827Y-123698
X12827Y-126238
X157226Y-108204
X157226Y-110744
X157226Y-113284
X157226Y-115824
X157226Y-118364
X157226Y-120904
X157226Y-123444
T4
X125515Y-100623
X125515Y-131623
X156515Y-100623
X156515Y-131623
T0
M30
