solid ascii
  facet normal 9.986296e-001 5.233407e-002 0.000000e+000
    outer loop
      vertex   -5.698904e+001 5.479094e+001 3.000000e+000
      vertex   -5.698904e+001 5.479094e+001 5.551115e-016
      vertex   -5.700000e+001 5.500000e+001 3.000000e+000
    endloop
  endfacet
  facet normal 6.951657e-002 3.643078e-003 0.000000e+000
    outer loop
      vertex   -5.700000e+001 5.500000e+001 3.000000e+000
      vertex   -5.698904e+001 5.479094e+001 5.551115e-016
      vertex   -5.700000e+001 5.500000e+001 5.551115e-016
    endloop
  endfacet
  facet normal 9.986296e-001 -5.233407e-002 0.000000e+000
    outer loop
      vertex   -5.700000e+001 5.500000e+001 3.000000e+000
      vertex   -5.700000e+001 5.500000e+001 5.551115e-016
      vertex   -5.698904e+001 5.520906e+001 3.000000e+000
    endloop
  endfacet
  facet normal 6.951657e-002 -3.643078e-003 0.000000e+000
    outer loop
      vertex   -5.698904e+001 5.520906e+001 3.000000e+000
      vertex   -5.700000e+001 5.500000e+001 5.551115e-016
      vertex   -5.698904e+001 5.520906e+001 5.551115e-016
    endloop
  endfacet
  facet normal 6.875548e-002 -1.088991e-002 0.000000e+000
    outer loop
      vertex   -5.698904e+001 5.520906e+001 3.000000e+000
      vertex   -5.698904e+001 5.520906e+001 5.551115e-016
      vertex   -5.695630e+001 5.541582e+001 5.551115e-016
    endloop
  endfacet
  facet normal 9.876881e-001 1.564360e-001 0.000000e+000
    outer loop
      vertex   -5.698904e+001 5.479094e+001 3.000000e+000
      vertex   -5.695630e+001 5.458418e+001 3.000000e+000
      vertex   -5.698904e+001 5.479094e+001 5.551115e-016
    endloop
  endfacet
  facet normal 9.852921e-001 1.560565e-001 0.000000e+000
    outer loop
      vertex   -5.698904e+001 5.479094e+001 5.551115e-016
      vertex   -5.695630e+001 5.458418e+001 3.000000e+000
      vertex   -5.695630e+001 5.458418e+001 5.551115e-016
    endloop
  endfacet
  facet normal 6.723965e-002 1.801624e-002 -0.000000e+000
    outer loop
      vertex   -5.695630e+001 5.458418e+001 5.551115e-016
      vertex   -5.695630e+001 5.458418e+001 3.000000e+000
      vertex   -5.690211e+001 5.438197e+001 3.000000e+000
    endloop
  endfacet
  facet normal 9.635847e-001 2.581835e-001 0.000000e+000
    outer loop
      vertex   -5.695630e+001 5.458418e+001 5.551115e-016
      vertex   -5.690211e+001 5.438197e+001 3.000000e+000
      vertex   -5.690211e+001 5.438197e+001 5.551115e-016
    endloop
  endfacet
  facet normal 6.498809e-002 2.494722e-002 -0.000000e+000
    outer loop
      vertex   -5.690211e+001 5.438197e+001 5.551115e-016
      vertex   -5.690211e+001 5.438197e+001 3.000000e+000
      vertex   -5.682709e+001 5.418653e+001 3.000000e+000
    endloop
  endfacet
  facet normal 9.313127e-001 3.575064e-001 -3.469447e-018
    outer loop
      vertex   -5.690211e+001 5.438197e+001 5.551115e-016
      vertex   -5.682709e+001 5.418653e+001 3.000000e+000
      vertex   -5.682709e+001 5.418653e+001 5.551115e-016
    endloop
  endfacet
  facet normal 6.202492e-002 3.160294e-002 -0.000000e+000
    outer loop
      vertex   -5.682709e+001 5.418653e+001 5.551115e-016
      vertex   -5.682709e+001 5.418653e+001 3.000000e+000
      vertex   -5.673205e+001 5.400000e+001 3.000000e+000
    endloop
  endfacet
  facet normal 8.888470e-001 4.528854e-001 0.000000e+000
    outer loop
      vertex   -5.682709e+001 5.418653e+001 5.551115e-016
      vertex   -5.673205e+001 5.400000e+001 3.000000e+000
      vertex   -5.673205e+001 5.400000e+001 5.551115e-016
    endloop
  endfacet
  facet normal 5.838184e-002 3.791363e-002 -0.000000e+000
    outer loop
      vertex   -5.673205e+001 5.400000e+001 5.551115e-016
      vertex   -5.673205e+001 5.400000e+001 3.000000e+000
      vertex   -5.661803e+001 5.382443e+001 3.000000e+000
    endloop
  endfacet
  facet normal 8.366359e-001 5.433180e-001 0.000000e+000
    outer loop
      vertex   -5.673205e+001 5.400000e+001 5.551115e-016
      vertex   -5.661803e+001 5.382443e+001 3.000000e+000
      vertex   -5.661803e+001 5.382443e+001 5.551115e-016
    endloop
  endfacet
  facet normal 5.409819e-002 4.380827e-002 -0.000000e+000
    outer loop
      vertex   -5.661803e+001 5.382443e+001 5.551115e-016
      vertex   -5.661803e+001 5.382443e+001 3.000000e+000
      vertex   -5.648629e+001 5.366174e+001 3.000000e+000
    endloop
  endfacet
  facet normal 7.752578e-001 6.277974e-001 0.000000e+000
    outer loop
      vertex   -5.661803e+001 5.382443e+001 5.551115e-016
      vertex   -5.648629e+001 5.366174e+001 3.000000e+000
      vertex   -5.648629e+001 5.366174e+001 5.551115e-016
    endloop
  endfacet
  facet normal 4.922341e-002 4.922341e-002 -0.000000e+000
    outer loop
      vertex   -5.648629e+001 5.366174e+001 5.551115e-016
      vertex   -5.648629e+001 5.366174e+001 3.000000e+000
      vertex   -5.633826e+001 5.351371e+001 3.000000e+000
    endloop
  endfacet
  facet normal 7.053914e-001 7.053914e-001 0.000000e+000
    outer loop
      vertex   -5.648629e+001 5.366174e+001 5.551115e-016
      vertex   -5.633826e+001 5.351371e+001 3.000000e+000
      vertex   -5.633826e+001 5.351371e+001 5.551115e-016
    endloop
  endfacet
  facet normal 4.380827e-002 5.409819e-002 -0.000000e+000
    outer loop
      vertex   -5.633826e+001 5.351371e+001 5.551115e-016
      vertex   -5.633826e+001 5.351371e+001 3.000000e+000
      vertex   -5.617557e+001 5.338197e+001 3.000000e+000
    endloop
  endfacet
  facet normal 6.277974e-001 7.752578e-001 0.000000e+000
    outer loop
      vertex   -5.633826e+001 5.351371e+001 5.551115e-016
      vertex   -5.617557e+001 5.338197e+001 3.000000e+000
      vertex   -5.617557e+001 5.338197e+001 5.551115e-016
    endloop
  endfacet
  facet normal 3.791363e-002 5.838184e-002 -0.000000e+000
    outer loop
      vertex   -5.617557e+001 5.338197e+001 5.551115e-016
      vertex   -5.617557e+001 5.338197e+001 3.000000e+000
      vertex   -5.600000e+001 5.326795e+001 3.000000e+000
    endloop
  endfacet
  facet normal 5.433180e-001 8.366359e-001 0.000000e+000
    outer loop
      vertex   -5.617557e+001 5.338197e+001 5.551115e-016
      vertex   -5.600000e+001 5.326795e+001 3.000000e+000
      vertex   -5.600000e+001 5.326795e+001 5.551115e-016
    endloop
  endfacet
  facet normal 3.160294e-002 6.202492e-002 -0.000000e+000
    outer loop
      vertex   -5.600000e+001 5.326795e+001 5.551115e-016
      vertex   -5.600000e+001 5.326795e+001 3.000000e+000
      vertex   -5.581347e+001 5.317291e+001 3.000000e+000
    endloop
  endfacet
  facet normal 4.528854e-001 8.888470e-001 0.000000e+000
    outer loop
      vertex   -5.600000e+001 5.326795e+001 5.551115e-016
      vertex   -5.581347e+001 5.317291e+001 3.000000e+000
      vertex   -5.581347e+001 5.317291e+001 5.551115e-016
    endloop
  endfacet
  facet normal 2.494722e-002 6.498809e-002 -0.000000e+000
    outer loop
      vertex   -5.581347e+001 5.317291e+001 5.551115e-016
      vertex   -5.581347e+001 5.317291e+001 3.000000e+000
      vertex   -5.561803e+001 5.309789e+001 3.000000e+000
    endloop
  endfacet
  facet normal 3.575064e-001 9.313127e-001 3.469447e-018
    outer loop
      vertex   -5.581347e+001 5.317291e+001 5.551115e-016
      vertex   -5.561803e+001 5.309789e+001 3.000000e+000
      vertex   -5.561803e+001 5.309789e+001 5.551115e-016
    endloop
  endfacet
  facet normal 1.801624e-002 6.723965e-002 -0.000000e+000
    outer loop
      vertex   -5.561803e+001 5.309789e+001 5.551115e-016
      vertex   -5.561803e+001 5.309789e+001 3.000000e+000
      vertex   -5.541582e+001 5.304370e+001 3.000000e+000
    endloop
  endfacet
  facet normal 2.581835e-001 9.635847e-001 0.000000e+000
    outer loop
      vertex   -5.561803e+001 5.309789e+001 5.551115e-016
      vertex   -5.541582e+001 5.304370e+001 3.000000e+000
      vertex   -5.541582e+001 5.304370e+001 5.551115e-016
    endloop
  endfacet
  facet normal 1.088991e-002 6.875548e-002 -0.000000e+000
    outer loop
      vertex   -5.541582e+001 5.304370e+001 5.551115e-016
      vertex   -5.541582e+001 5.304370e+001 3.000000e+000
      vertex   -5.520906e+001 5.301096e+001 3.000000e+000
    endloop
  endfacet
  facet normal 1.560565e-001 9.852921e-001 0.000000e+000
    outer loop
      vertex   -5.541582e+001 5.304370e+001 5.551115e-016
      vertex   -5.520906e+001 5.301096e+001 3.000000e+000
      vertex   -5.520906e+001 5.301096e+001 5.551115e-016
    endloop
  endfacet
  facet normal 3.643078e-003 6.951657e-002 -0.000000e+000
    outer loop
      vertex   -5.520906e+001 5.301096e+001 5.551115e-016
      vertex   -5.520906e+001 5.301096e+001 3.000000e+000
      vertex   -5.500000e+001 5.300000e+001 3.000000e+000
    endloop
  endfacet
  facet normal 5.220712e-002 9.962071e-001 4.336809e-019
    outer loop
      vertex   -5.520906e+001 5.301096e+001 5.551115e-016
      vertex   -5.500000e+001 5.300000e+001 3.000000e+000
      vertex   -5.500000e+001 5.300000e+001 5.551115e-016
    endloop
  endfacet
  facet normal -3.643078e-003 6.951657e-002 0.000000e+000
    outer loop
      vertex   -5.500000e+001 5.300000e+001 5.551115e-016
      vertex   -5.500000e+001 5.300000e+001 3.000000e+000
      vertex   -5.479094e+001 5.301096e+001 3.000000e+000
    endloop
  endfacet
  facet normal -5.220712e-002 9.962071e-001 -4.336809e-019
    outer loop
      vertex   -5.500000e+001 5.300000e+001 5.551115e-016
      vertex   -5.479094e+001 5.301096e+001 3.000000e+000
      vertex   -5.479094e+001 5.301096e+001 5.551115e-016
    endloop
  endfacet
  facet normal -1.088991e-002 6.875548e-002 0.000000e+000
    outer loop
      vertex   -5.479094e+001 5.301096e+001 5.551115e-016
      vertex   -5.479094e+001 5.301096e+001 3.000000e+000
      vertex   -5.458418e+001 5.304370e+001 3.000000e+000
    endloop
  endfacet
  facet normal -1.560565e-001 9.852921e-001 0.000000e+000
    outer loop
      vertex   -5.479094e+001 5.301096e+001 5.551115e-016
      vertex   -5.458418e+001 5.304370e+001 3.000000e+000
      vertex   -5.458418e+001 5.304370e+001 5.551115e-016
    endloop
  endfacet
  facet normal -1.801624e-002 6.723965e-002 0.000000e+000
    outer loop
      vertex   -5.458418e+001 5.304370e+001 5.551115e-016
      vertex   -5.458418e+001 5.304370e+001 3.000000e+000
      vertex   -5.438197e+001 5.309789e+001 3.000000e+000
    endloop
  endfacet
  facet normal -2.581835e-001 9.635847e-001 0.000000e+000
    outer loop
      vertex   -5.458418e+001 5.304370e+001 5.551115e-016
      vertex   -5.438197e+001 5.309789e+001 3.000000e+000
      vertex   -5.438197e+001 5.309789e+001 5.551115e-016
    endloop
  endfacet
  facet normal -2.494722e-002 6.498809e-002 0.000000e+000
    outer loop
      vertex   -5.438197e+001 5.309789e+001 5.551115e-016
      vertex   -5.438197e+001 5.309789e+001 3.000000e+000
      vertex   -5.418653e+001 5.317291e+001 3.000000e+000
    endloop
  endfacet
  facet normal -3.575064e-001 9.313127e-001 -3.469447e-018
    outer loop
      vertex   -5.438197e+001 5.309789e+001 5.551115e-016
      vertex   -5.418653e+001 5.317291e+001 3.000000e+000
      vertex   -5.418653e+001 5.317291e+001 5.551115e-016
    endloop
  endfacet
  facet normal -3.160294e-002 6.202492e-002 0.000000e+000
    outer loop
      vertex   -5.418653e+001 5.317291e+001 5.551115e-016
      vertex   -5.418653e+001 5.317291e+001 3.000000e+000
      vertex   -5.400000e+001 5.326795e+001 3.000000e+000
    endloop
  endfacet
  facet normal -4.528854e-001 8.888470e-001 0.000000e+000
    outer loop
      vertex   -5.418653e+001 5.317291e+001 5.551115e-016
      vertex   -5.400000e+001 5.326795e+001 3.000000e+000
      vertex   -5.400000e+001 5.326795e+001 5.551115e-016
    endloop
  endfacet
  facet normal -3.791363e-002 5.838184e-002 0.000000e+000
    outer loop
      vertex   -5.400000e+001 5.326795e+001 5.551115e-016
      vertex   -5.400000e+001 5.326795e+001 3.000000e+000
      vertex   -5.382443e+001 5.338197e+001 3.000000e+000
    endloop
  endfacet
  facet normal -5.433180e-001 8.366359e-001 0.000000e+000
    outer loop
      vertex   -5.400000e+001 5.326795e+001 5.551115e-016
      vertex   -5.382443e+001 5.338197e+001 3.000000e+000
      vertex   -5.382443e+001 5.338197e+001 5.551115e-016
    endloop
  endfacet
  facet normal -4.380827e-002 5.409819e-002 0.000000e+000
    outer loop
      vertex   -5.382443e+001 5.338197e+001 5.551115e-016
      vertex   -5.382443e+001 5.338197e+001 3.000000e+000
      vertex   -5.366174e+001 5.351371e+001 3.000000e+000
    endloop
  endfacet
  facet normal -6.277974e-001 7.752578e-001 0.000000e+000
    outer loop
      vertex   -5.382443e+001 5.338197e+001 5.551115e-016
      vertex   -5.366174e+001 5.351371e+001 3.000000e+000
      vertex   -5.366174e+001 5.351371e+001 5.551115e-016
    endloop
  endfacet
  facet normal -4.922341e-002 4.922341e-002 0.000000e+000
    outer loop
      vertex   -5.366174e+001 5.351371e+001 5.551115e-016
      vertex   -5.366174e+001 5.351371e+001 3.000000e+000
      vertex   -5.351371e+001 5.366174e+001 3.000000e+000
    endloop
  endfacet
  facet normal -7.053914e-001 7.053914e-001 0.000000e+000
    outer loop
      vertex   -5.366174e+001 5.351371e+001 5.551115e-016
      vertex   -5.351371e+001 5.366174e+001 3.000000e+000
      vertex   -5.351371e+001 5.366174e+001 5.551115e-016
    endloop
  endfacet
  facet normal -5.409819e-002 4.380827e-002 0.000000e+000
    outer loop
      vertex   -5.351371e+001 5.366174e+001 5.551115e-016
      vertex   -5.351371e+001 5.366174e+001 3.000000e+000
      vertex   -5.338197e+001 5.382443e+001 3.000000e+000
    endloop
  endfacet
  facet normal -7.752578e-001 6.277974e-001 0.000000e+000
    outer loop
      vertex   -5.351371e+001 5.366174e+001 5.551115e-016
      vertex   -5.338197e+001 5.382443e+001 3.000000e+000
      vertex   -5.338197e+001 5.382443e+001 5.551115e-016
    endloop
  endfacet
  facet normal -5.838184e-002 3.791363e-002 0.000000e+000
    outer loop
      vertex   -5.338197e+001 5.382443e+001 5.551115e-016
      vertex   -5.338197e+001 5.382443e+001 3.000000e+000
      vertex   -5.326795e+001 5.400000e+001 3.000000e+000
    endloop
  endfacet
  facet normal -8.366359e-001 5.433180e-001 0.000000e+000
    outer loop
      vertex   -5.338197e+001 5.382443e+001 5.551115e-016
      vertex   -5.326795e+001 5.400000e+001 3.000000e+000
      vertex   -5.326795e+001 5.400000e+001 5.551115e-016
    endloop
  endfacet
  facet normal -6.202492e-002 3.160294e-002 0.000000e+000
    outer loop
      vertex   -5.326795e+001 5.400000e+001 5.551115e-016
      vertex   -5.326795e+001 5.400000e+001 3.000000e+000
      vertex   -5.317291e+001 5.418653e+001 3.000000e+000
    endloop
  endfacet
  facet normal -8.888470e-001 4.528854e-001 0.000000e+000
    outer loop
      vertex   -5.326795e+001 5.400000e+001 5.551115e-016
      vertex   -5.317291e+001 5.418653e+001 3.000000e+000
      vertex   -5.317291e+001 5.418653e+001 5.551115e-016
    endloop
  endfacet
  facet normal -6.498809e-002 2.494722e-002 0.000000e+000
    outer loop
      vertex   -5.317291e+001 5.418653e+001 5.551115e-016
      vertex   -5.317291e+001 5.418653e+001 3.000000e+000
      vertex   -5.309789e+001 5.438197e+001 3.000000e+000
    endloop
  endfacet
  facet normal -9.313127e-001 3.575064e-001 3.469447e-018
    outer loop
      vertex   -5.317291e+001 5.418653e+001 5.551115e-016
      vertex   -5.309789e+001 5.438197e+001 3.000000e+000
      vertex   -5.309789e+001 5.438197e+001 5.551115e-016
    endloop
  endfacet
  facet normal -6.723965e-002 1.801624e-002 0.000000e+000
    outer loop
      vertex   -5.309789e+001 5.438197e+001 5.551115e-016
      vertex   -5.309789e+001 5.438197e+001 3.000000e+000
      vertex   -5.304370e+001 5.458418e+001 3.000000e+000
    endloop
  endfacet
  facet normal -9.635847e-001 2.581835e-001 0.000000e+000
    outer loop
      vertex   -5.309789e+001 5.438197e+001 5.551115e-016
      vertex   -5.304370e+001 5.458418e+001 3.000000e+000
      vertex   -5.304370e+001 5.458418e+001 5.551115e-016
    endloop
  endfacet
  facet normal -6.875548e-002 1.088991e-002 0.000000e+000
    outer loop
      vertex   -5.304370e+001 5.458418e+001 5.551115e-016
      vertex   -5.304370e+001 5.458418e+001 3.000000e+000
      vertex   -5.301096e+001 5.479094e+001 3.000000e+000
    endloop
  endfacet
  facet normal -9.852921e-001 1.560565e-001 0.000000e+000
    outer loop
      vertex   -5.304370e+001 5.458418e+001 5.551115e-016
      vertex   -5.301096e+001 5.479094e+001 3.000000e+000
      vertex   -5.301096e+001 5.479094e+001 5.551115e-016
    endloop
  endfacet
  facet normal -6.951657e-002 3.643078e-003 0.000000e+000
    outer loop
      vertex   -5.301096e+001 5.479094e+001 5.551115e-016
      vertex   -5.301096e+001 5.479094e+001 3.000000e+000
      vertex   -5.300000e+001 5.500000e+001 3.000000e+000
    endloop
  endfacet
  facet normal -9.962071e-001 5.220712e-002 4.336809e-019
    outer loop
      vertex   -5.301096e+001 5.479094e+001 5.551115e-016
      vertex   -5.300000e+001 5.500000e+001 3.000000e+000
      vertex   -5.300000e+001 5.500000e+001 5.551115e-016
    endloop
  endfacet
  facet normal -6.951657e-002 -3.643078e-003 0.000000e+000
    outer loop
      vertex   -5.300000e+001 5.500000e+001 5.551115e-016
      vertex   -5.300000e+001 5.500000e+001 3.000000e+000
      vertex   -5.301096e+001 5.520906e+001 3.000000e+000
    endloop
  endfacet
  facet normal -9.962071e-001 -5.220712e-002 -4.336809e-019
    outer loop
      vertex   -5.300000e+001 5.500000e+001 5.551115e-016
      vertex   -5.301096e+001 5.520906e+001 3.000000e+000
      vertex   -5.301096e+001 5.520906e+001 5.551115e-016
    endloop
  endfacet
  facet normal -6.875548e-002 -1.088991e-002 0.000000e+000
    outer loop
      vertex   -5.301096e+001 5.520906e+001 5.551115e-016
      vertex   -5.301096e+001 5.520906e+001 3.000000e+000
      vertex   -5.304370e+001 5.541582e+001 3.000000e+000
    endloop
  endfacet
  facet normal -9.852921e-001 -1.560565e-001 0.000000e+000
    outer loop
      vertex   -5.301096e+001 5.520906e+001 5.551115e-016
      vertex   -5.304370e+001 5.541582e+001 3.000000e+000
      vertex   -5.304370e+001 5.541582e+001 5.551115e-016
    endloop
  endfacet
  facet normal -6.723965e-002 -1.801624e-002 0.000000e+000
    outer loop
      vertex   -5.304370e+001 5.541582e+001 5.551115e-016
      vertex   -5.304370e+001 5.541582e+001 3.000000e+000
      vertex   -5.309789e+001 5.561803e+001 3.000000e+000
    endloop
  endfacet
  facet normal -9.635847e-001 -2.581835e-001 0.000000e+000
    outer loop
      vertex   -5.304370e+001 5.541582e+001 5.551115e-016
      vertex   -5.309789e+001 5.561803e+001 3.000000e+000
      vertex   -5.309789e+001 5.561803e+001 5.551115e-016
    endloop
  endfacet
  facet normal -6.498809e-002 -2.494722e-002 0.000000e+000
    outer loop
      vertex   -5.309789e+001 5.561803e+001 5.551115e-016
      vertex   -5.309789e+001 5.561803e+001 3.000000e+000
      vertex   -5.317291e+001 5.581347e+001 3.000000e+000
    endloop
  endfacet
  facet normal -9.313127e-001 -3.575064e-001 -3.469447e-018
    outer loop
      vertex   -5.309789e+001 5.561803e+001 5.551115e-016
      vertex   -5.317291e+001 5.581347e+001 3.000000e+000
      vertex   -5.317291e+001 5.581347e+001 5.551115e-016
    endloop
  endfacet
  facet normal -6.202492e-002 -3.160294e-002 0.000000e+000
    outer loop
      vertex   -5.317291e+001 5.581347e+001 5.551115e-016
      vertex   -5.317291e+001 5.581347e+001 3.000000e+000
      vertex   -5.326795e+001 5.600000e+001 3.000000e+000
    endloop
  endfacet
  facet normal -8.888470e-001 -4.528854e-001 0.000000e+000
    outer loop
      vertex   -5.317291e+001 5.581347e+001 5.551115e-016
      vertex   -5.326795e+001 5.600000e+001 3.000000e+000
      vertex   -5.326795e+001 5.600000e+001 5.551115e-016
    endloop
  endfacet
  facet normal -5.838184e-002 -3.791363e-002 0.000000e+000
    outer loop
      vertex   -5.326795e+001 5.600000e+001 5.551115e-016
      vertex   -5.326795e+001 5.600000e+001 3.000000e+000
      vertex   -5.338197e+001 5.617557e+001 3.000000e+000
    endloop
  endfacet
  facet normal -8.366359e-001 -5.433180e-001 0.000000e+000
    outer loop
      vertex   -5.326795e+001 5.600000e+001 5.551115e-016
      vertex   -5.338197e+001 5.617557e+001 3.000000e+000
      vertex   -5.338197e+001 5.617557e+001 5.551115e-016
    endloop
  endfacet
  facet normal -5.409819e-002 -4.380827e-002 0.000000e+000
    outer loop
      vertex   -5.338197e+001 5.617557e+001 5.551115e-016
      vertex   -5.338197e+001 5.617557e+001 3.000000e+000
      vertex   -5.351371e+001 5.633826e+001 3.000000e+000
    endloop
  endfacet
  facet normal -7.752578e-001 -6.277974e-001 0.000000e+000
    outer loop
      vertex   -5.338197e+001 5.617557e+001 5.551115e-016
      vertex   -5.351371e+001 5.633826e+001 3.000000e+000
      vertex   -5.351371e+001 5.633826e+001 5.551115e-016
    endloop
  endfacet
  facet normal -4.922341e-002 -4.922341e-002 0.000000e+000
    outer loop
      vertex   -5.351371e+001 5.633826e+001 5.551115e-016
      vertex   -5.351371e+001 5.633826e+001 3.000000e+000
      vertex   -5.366174e+001 5.648629e+001 3.000000e+000
    endloop
  endfacet
  facet normal -7.053914e-001 -7.053914e-001 0.000000e+000
    outer loop
      vertex   -5.351371e+001 5.633826e+001 5.551115e-016
      vertex   -5.366174e+001 5.648629e+001 3.000000e+000
      vertex   -5.366174e+001 5.648629e+001 5.551115e-016
    endloop
  endfacet
  facet normal -4.380827e-002 -5.409819e-002 0.000000e+000
    outer loop
      vertex   -5.366174e+001 5.648629e+001 5.551115e-016
      vertex   -5.366174e+001 5.648629e+001 3.000000e+000
      vertex   -5.382443e+001 5.661803e+001 3.000000e+000
    endloop
  endfacet
  facet normal -6.277974e-001 -7.752578e-001 0.000000e+000
    outer loop
      vertex   -5.366174e+001 5.648629e+001 5.551115e-016
      vertex   -5.382443e+001 5.661803e+001 3.000000e+000
      vertex   -5.382443e+001 5.661803e+001 5.551115e-016
    endloop
  endfacet
  facet normal -3.791363e-002 -5.838184e-002 0.000000e+000
    outer loop
      vertex   -5.382443e+001 5.661803e+001 5.551115e-016
      vertex   -5.382443e+001 5.661803e+001 3.000000e+000
      vertex   -5.400000e+001 5.673205e+001 3.000000e+000
    endloop
  endfacet
  facet normal -5.433180e-001 -8.366359e-001 0.000000e+000
    outer loop
      vertex   -5.382443e+001 5.661803e+001 5.551115e-016
      vertex   -5.400000e+001 5.673205e+001 3.000000e+000
      vertex   -5.400000e+001 5.673205e+001 5.551115e-016
    endloop
  endfacet
  facet normal -3.160294e-002 -6.202492e-002 0.000000e+000
    outer loop
      vertex   -5.400000e+001 5.673205e+001 5.551115e-016
      vertex   -5.400000e+001 5.673205e+001 3.000000e+000
      vertex   -5.418653e+001 5.682709e+001 3.000000e+000
    endloop
  endfacet
  facet normal -4.528854e-001 -8.888470e-001 0.000000e+000
    outer loop
      vertex   -5.400000e+001 5.673205e+001 5.551115e-016
      vertex   -5.418653e+001 5.682709e+001 3.000000e+000
      vertex   -5.418653e+001 5.682709e+001 5.551115e-016
    endloop
  endfacet
  facet normal -2.494722e-002 -6.498809e-002 0.000000e+000
    outer loop
      vertex   -5.418653e+001 5.682709e+001 5.551115e-016
      vertex   -5.418653e+001 5.682709e+001 3.000000e+000
      vertex   -5.438197e+001 5.690211e+001 3.000000e+000
    endloop
  endfacet
  facet normal -3.575064e-001 -9.313127e-001 3.469447e-018
    outer loop
      vertex   -5.418653e+001 5.682709e+001 5.551115e-016
      vertex   -5.438197e+001 5.690211e+001 3.000000e+000
      vertex   -5.438197e+001 5.690211e+001 5.551115e-016
    endloop
  endfacet
  facet normal -1.801624e-002 -6.723965e-002 0.000000e+000
    outer loop
      vertex   -5.438197e+001 5.690211e+001 5.551115e-016
      vertex   -5.438197e+001 5.690211e+001 3.000000e+000
      vertex   -5.458418e+001 5.695630e+001 3.000000e+000
    endloop
  endfacet
  facet normal -2.581835e-001 -9.635847e-001 0.000000e+000
    outer loop
      vertex   -5.438197e+001 5.690211e+001 5.551115e-016
      vertex   -5.458418e+001 5.695630e+001 3.000000e+000
      vertex   -5.458418e+001 5.695630e+001 5.551115e-016
    endloop
  endfacet
  facet normal -1.088991e-002 -6.875548e-002 0.000000e+000
    outer loop
      vertex   -5.458418e+001 5.695630e+001 5.551115e-016
      vertex   -5.458418e+001 5.695630e+001 3.000000e+000
      vertex   -5.479094e+001 5.698904e+001 3.000000e+000
    endloop
  endfacet
  facet normal -1.560565e-001 -9.852921e-001 0.000000e+000
    outer loop
      vertex   -5.458418e+001 5.695630e+001 5.551115e-016
      vertex   -5.479094e+001 5.698904e+001 3.000000e+000
      vertex   -5.479094e+001 5.698904e+001 5.551115e-016
    endloop
  endfacet
  facet normal -3.643078e-003 -6.951657e-002 0.000000e+000
    outer loop
      vertex   -5.479094e+001 5.698904e+001 5.551115e-016
      vertex   -5.479094e+001 5.698904e+001 3.000000e+000
      vertex   -5.500000e+001 5.700000e+001 3.000000e+000
    endloop
  endfacet
  facet normal -5.220712e-002 -9.962071e-001 4.336809e-019
    outer loop
      vertex   -5.479094e+001 5.698904e+001 5.551115e-016
      vertex   -5.500000e+001 5.700000e+001 3.000000e+000
      vertex   -5.500000e+001 5.700000e+001 5.551115e-016
    endloop
  endfacet
  facet normal 3.643078e-003 -6.951657e-002 0.000000e+000
    outer loop
      vertex   -5.500000e+001 5.700000e+001 5.551115e-016
      vertex   -5.500000e+001 5.700000e+001 3.000000e+000
      vertex   -5.520906e+001 5.698904e+001 3.000000e+000
    endloop
  endfacet
  facet normal 5.220712e-002 -9.962071e-001 -4.336809e-019
    outer loop
      vertex   -5.500000e+001 5.700000e+001 5.551115e-016
      vertex   -5.520906e+001 5.698904e+001 3.000000e+000
      vertex   -5.520906e+001 5.698904e+001 5.551115e-016
    endloop
  endfacet
  facet normal 1.088991e-002 -6.875548e-002 0.000000e+000
    outer loop
      vertex   -5.520906e+001 5.698904e+001 5.551115e-016
      vertex   -5.520906e+001 5.698904e+001 3.000000e+000
      vertex   -5.541582e+001 5.695630e+001 3.000000e+000
    endloop
  endfacet
  facet normal 1.560565e-001 -9.852921e-001 0.000000e+000
    outer loop
      vertex   -5.520906e+001 5.698904e+001 5.551115e-016
      vertex   -5.541582e+001 5.695630e+001 3.000000e+000
      vertex   -5.541582e+001 5.695630e+001 5.551115e-016
    endloop
  endfacet
  facet normal 1.801624e-002 -6.723965e-002 0.000000e+000
    outer loop
      vertex   -5.541582e+001 5.695630e+001 5.551115e-016
      vertex   -5.541582e+001 5.695630e+001 3.000000e+000
      vertex   -5.561803e+001 5.690211e+001 3.000000e+000
    endloop
  endfacet
  facet normal 2.581835e-001 -9.635847e-001 0.000000e+000
    outer loop
      vertex   -5.541582e+001 5.695630e+001 5.551115e-016
      vertex   -5.561803e+001 5.690211e+001 3.000000e+000
      vertex   -5.561803e+001 5.690211e+001 5.551115e-016
    endloop
  endfacet
  facet normal 2.494722e-002 -6.498809e-002 0.000000e+000
    outer loop
      vertex   -5.561803e+001 5.690211e+001 5.551115e-016
      vertex   -5.561803e+001 5.690211e+001 3.000000e+000
      vertex   -5.581347e+001 5.682709e+001 3.000000e+000
    endloop
  endfacet
  facet normal 3.575064e-001 -9.313127e-001 -3.469447e-018
    outer loop
      vertex   -5.561803e+001 5.690211e+001 5.551115e-016
      vertex   -5.581347e+001 5.682709e+001 3.000000e+000
      vertex   -5.581347e+001 5.682709e+001 5.551115e-016
    endloop
  endfacet
  facet normal 3.160294e-002 -6.202492e-002 0.000000e+000
    outer loop
      vertex   -5.581347e+001 5.682709e+001 5.551115e-016
      vertex   -5.581347e+001 5.682709e+001 3.000000e+000
      vertex   -5.600000e+001 5.673205e+001 3.000000e+000
    endloop
  endfacet
  facet normal 4.528854e-001 -8.888470e-001 0.000000e+000
    outer loop
      vertex   -5.581347e+001 5.682709e+001 5.551115e-016
      vertex   -5.600000e+001 5.673205e+001 3.000000e+000
      vertex   -5.600000e+001 5.673205e+001 5.551115e-016
    endloop
  endfacet
  facet normal 3.791363e-002 -5.838184e-002 0.000000e+000
    outer loop
      vertex   -5.600000e+001 5.673205e+001 5.551115e-016
      vertex   -5.600000e+001 5.673205e+001 3.000000e+000
      vertex   -5.617557e+001 5.661803e+001 3.000000e+000
    endloop
  endfacet
  facet normal 5.433180e-001 -8.366359e-001 0.000000e+000
    outer loop
      vertex   -5.600000e+001 5.673205e+001 5.551115e-016
      vertex   -5.617557e+001 5.661803e+001 3.000000e+000
      vertex   -5.617557e+001 5.661803e+001 5.551115e-016
    endloop
  endfacet
  facet normal 4.380827e-002 -5.409819e-002 0.000000e+000
    outer loop
      vertex   -5.617557e+001 5.661803e+001 5.551115e-016
      vertex   -5.617557e+001 5.661803e+001 3.000000e+000
      vertex   -5.633826e+001 5.648629e+001 3.000000e+000
    endloop
  endfacet
  facet normal 6.277974e-001 -7.752578e-001 0.000000e+000
    outer loop
      vertex   -5.617557e+001 5.661803e+001 5.551115e-016
      vertex   -5.633826e+001 5.648629e+001 3.000000e+000
      vertex   -5.633826e+001 5.648629e+001 5.551115e-016
    endloop
  endfacet
  facet normal 4.922341e-002 -4.922341e-002 0.000000e+000
    outer loop
      vertex   -5.633826e+001 5.648629e+001 5.551115e-016
      vertex   -5.633826e+001 5.648629e+001 3.000000e+000
      vertex   -5.648629e+001 5.633826e+001 3.000000e+000
    endloop
  endfacet
  facet normal 7.053914e-001 -7.053914e-001 0.000000e+000
    outer loop
      vertex   -5.633826e+001 5.648629e+001 5.551115e-016
      vertex   -5.648629e+001 5.633826e+001 3.000000e+000
      vertex   -5.648629e+001 5.633826e+001 5.551115e-016
    endloop
  endfacet
  facet normal 5.409819e-002 -4.380827e-002 0.000000e+000
    outer loop
      vertex   -5.648629e+001 5.633826e+001 5.551115e-016
      vertex   -5.648629e+001 5.633826e+001 3.000000e+000
      vertex   -5.661803e+001 5.617557e+001 3.000000e+000
    endloop
  endfacet
  facet normal 7.752578e-001 -6.277974e-001 0.000000e+000
    outer loop
      vertex   -5.648629e+001 5.633826e+001 5.551115e-016
      vertex   -5.661803e+001 5.617557e+001 3.000000e+000
      vertex   -5.661803e+001 5.617557e+001 5.551115e-016
    endloop
  endfacet
  facet normal 5.838184e-002 -3.791363e-002 0.000000e+000
    outer loop
      vertex   -5.661803e+001 5.617557e+001 5.551115e-016
      vertex   -5.661803e+001 5.617557e+001 3.000000e+000
      vertex   -5.673205e+001 5.600000e+001 3.000000e+000
    endloop
  endfacet
  facet normal 8.366359e-001 -5.433180e-001 0.000000e+000
    outer loop
      vertex   -5.661803e+001 5.617557e+001 5.551115e-016
      vertex   -5.673205e+001 5.600000e+001 3.000000e+000
      vertex   -5.673205e+001 5.600000e+001 5.551115e-016
    endloop
  endfacet
  facet normal 6.202492e-002 -3.160294e-002 0.000000e+000
    outer loop
      vertex   -5.673205e+001 5.600000e+001 5.551115e-016
      vertex   -5.673205e+001 5.600000e+001 3.000000e+000
      vertex   -5.682709e+001 5.581347e+001 3.000000e+000
    endloop
  endfacet
  facet normal 8.888470e-001 -4.528854e-001 0.000000e+000
    outer loop
      vertex   -5.673205e+001 5.600000e+001 5.551115e-016
      vertex   -5.682709e+001 5.581347e+001 3.000000e+000
      vertex   -5.682709e+001 5.581347e+001 5.551115e-016
    endloop
  endfacet
  facet normal 6.498809e-002 -2.494722e-002 0.000000e+000
    outer loop
      vertex   -5.682709e+001 5.581347e+001 5.551115e-016
      vertex   -5.682709e+001 5.581347e+001 3.000000e+000
      vertex   -5.690211e+001 5.561803e+001 3.000000e+000
    endloop
  endfacet
  facet normal 9.313127e-001 -3.575064e-001 3.469447e-018
    outer loop
      vertex   -5.682709e+001 5.581347e+001 5.551115e-016
      vertex   -5.690211e+001 5.561803e+001 3.000000e+000
      vertex   -5.690211e+001 5.561803e+001 5.551115e-016
    endloop
  endfacet
  facet normal 6.723965e-002 -1.801624e-002 0.000000e+000
    outer loop
      vertex   -5.690211e+001 5.561803e+001 5.551115e-016
      vertex   -5.690211e+001 5.561803e+001 3.000000e+000
      vertex   -5.695630e+001 5.541582e+001 3.000000e+000
    endloop
  endfacet
  facet normal 9.635847e-001 -2.581835e-001 0.000000e+000
    outer loop
      vertex   -5.690211e+001 5.561803e+001 5.551115e-016
      vertex   -5.695630e+001 5.541582e+001 3.000000e+000
      vertex   -5.695630e+001 5.541582e+001 5.551115e-016
    endloop
  endfacet
  facet normal 6.875548e-002 -1.088991e-002 0.000000e+000
    outer loop
      vertex   -5.695630e+001 5.541582e+001 5.551115e-016
      vertex   -5.695630e+001 5.541582e+001 3.000000e+000
      vertex   -5.698904e+001 5.520906e+001 3.000000e+000
    endloop
  endfacet
  facet normal -1.000000e+000 0.000000e+000 0.000000e+000
    outer loop
      vertex   -3.385000e+001 4.500000e+001 3.000000e+000
      vertex   -3.385000e+001 4.500000e+001 7.000000e+000
      vertex   -3.385000e+001 6.500000e+001 3.000000e+000
    endloop
  endfacet
  facet normal -9.805807e-001 0.000000e+000 0.000000e+000
    outer loop
      vertex   -3.385000e+001 6.500000e+001 3.000000e+000
      vertex   -3.385000e+001 4.500000e+001 7.000000e+000
      vertex   -3.385000e+001 6.500000e+001 7.000000e+000
    endloop
  endfacet
  facet normal 0.000000e+000 0.000000e+000 1.000000e+000
    outer loop
      vertex   -3.085000e+001 6.500000e+001 7.000000e+000
      vertex   -3.385000e+001 6.500000e+001 7.000000e+000
      vertex   -3.085000e+001 4.500000e+001 7.000000e+000
    endloop
  endfacet
  facet normal 0.000000e+000 0.000000e+000 9.889364e-001
    outer loop
      vertex   -3.085000e+001 4.500000e+001 7.000000e+000
      vertex   -3.385000e+001 6.500000e+001 7.000000e+000
      vertex   -3.385000e+001 4.500000e+001 7.000000e+000
    endloop
  endfacet
  facet normal 1.000000e+000 -0.000000e+000 0.000000e+000
    outer loop
      vertex   -3.085000e+001 4.500000e+001 7.000000e+000
      vertex   -3.085000e+001 4.500000e+001 2.775558e-016
      vertex   -3.085000e+001 6.500000e+001 7.000000e+000
    endloop
  endfacet
  facet normal 9.438584e-001 0.000000e+000 0.000000e+000
    outer loop
      vertex   -3.085000e+001 6.500000e+001 7.000000e+000
      vertex   -3.085000e+001 4.500000e+001 2.775558e-016
      vertex   -3.085000e+001 6.500000e+001 2.775558e-016
    endloop
  endfacet
  facet normal 0.000000e+000 -1.000000e+000 0.000000e+000
    outer loop
      vertex   -4.500000e+001 4.500000e+001 3.000000e+000
      vertex   -4.500000e+001 4.500000e+001 0.000000e+000
      vertex   -3.385000e+001 4.500000e+001 3.000000e+000
    endloop
  endfacet
  facet normal 0.000000e+000 -8.665423e-001 -0.000000e+000
    outer loop
      vertex   -3.385000e+001 4.500000e+001 3.000000e+000
      vertex   -4.500000e+001 4.500000e+001 0.000000e+000
      vertex   -3.085000e+001 4.500000e+001 2.775558e-016
    endloop
  endfacet
  facet normal 0.000000e+000 -9.899494e-001 0.000000e+000
    outer loop
      vertex   -3.385000e+001 4.500000e+001 3.000000e+000
      vertex   -3.085000e+001 4.500000e+001 2.775558e-016
      vertex   -3.085000e+001 4.500000e+001 7.000000e+000
    endloop
  endfacet
  facet normal -0.000000e+000 -8.000002e-001 0.000000e+000
    outer loop
      vertex   -3.085000e+001 4.500000e+001 7.000000e+000
      vertex   -3.385000e+001 4.500000e+001 7.000000e+000
      vertex   -3.385000e+001 4.500000e+001 3.000000e+000
    endloop
  endfacet
  facet normal -0.000000e+000 1.000000e+000 0.000000e+000
    outer loop
      vertex   -4.500000e+001 6.500000e+001 3.000000e+000
      vertex   -3.385000e+001 6.500000e+001 3.000000e+000
      vertex   -4.500000e+001 6.500000e+001 0.000000e+000
    endloop
  endfacet
  facet normal 0.000000e+000 2.598181e-001 0.000000e+000
    outer loop
      vertex   -4.500000e+001 6.500000e+001 0.000000e+000
      vertex   -3.385000e+001 6.500000e+001 3.000000e+000
      vertex   -3.085000e+001 6.500000e+001 2.775558e-016
    endloop
  endfacet
  facet normal 0.000000e+000 7.071065e-001 -0.000000e+000
    outer loop
      vertex   -3.085000e+001 6.500000e+001 2.775558e-016
      vertex   -3.385000e+001 6.500000e+001 3.000000e+000
      vertex   -3.085000e+001 6.500000e+001 7.000000e+000
    endloop
  endfacet
  facet normal 0.000000e+000 8.000002e-001 0.000000e+000
    outer loop
      vertex   -3.085000e+001 6.500000e+001 7.000000e+000
      vertex   -3.385000e+001 6.500000e+001 3.000000e+000
      vertex   -3.385000e+001 6.500000e+001 7.000000e+000
    endloop
  endfacet
  facet normal 0.000000e+000 0.000000e+000 6.728827e-001
    outer loop
      vertex   -5.698904e+001 5.520906e+001 3.000000e+000
      vertex   -6.500000e+001 6.500000e+001 3.000000e+000
      vertex   -5.700000e+001 5.500000e+001 3.000000e+000
    endloop
  endfacet
  facet normal 0.000000e+000 0.000000e+000 9.756098e-001
    outer loop
      vertex   -5.700000e+001 5.500000e+001 3.000000e+000
      vertex   -6.500000e+001 6.500000e+001 3.000000e+000
      vertex   -6.500000e+001 4.500000e+001 3.000000e+000
    endloop
  endfacet
  facet normal 0.000000e+000 0.000000e+000 6.647050e-001
    outer loop
      vertex   -5.700000e+001 5.500000e+001 3.000000e+000
      vertex   -6.500000e+001 4.500000e+001 3.000000e+000
      vertex   -5.698904e+001 5.479094e+001 3.000000e+000
    endloop
  endfacet
  facet normal 0.000000e+000 0.000000e+000 7.465237e-001
    outer loop
      vertex   -5.698904e+001 5.479094e+001 3.000000e+000
      vertex   -6.500000e+001 4.500000e+001 3.000000e+000
      vertex   -5.695630e+001 5.458418e+001 3.000000e+000
    endloop
  endfacet
  facet normal 0.000000e+000 0.000000e+000 8.192046e-001
    outer loop
      vertex   -5.695630e+001 5.458418e+001 3.000000e+000
      vertex   -6.500000e+001 4.500000e+001 3.000000e+000
      vertex   -5.690211e+001 5.438197e+001 3.000000e+000
    endloop
  endfacet
  facet normal 0.000000e+000 0.000000e+000 8.812956e-001
    outer loop
      vertex   -5.690211e+001 5.438197e+001 3.000000e+000
      vertex   -6.500000e+001 4.500000e+001 3.000000e+000
      vertex   -5.682709e+001 5.418653e+001 3.000000e+000
    endloop
  endfacet
  facet normal 0.000000e+000 0.000000e+000 9.314250e-001
    outer loop
      vertex   -5.682709e+001 5.418653e+001 3.000000e+000
      vertex   -6.500000e+001 4.500000e+001 3.000000e+000
      vertex   -5.673205e+001 5.400000e+001 3.000000e+000
    endloop
  endfacet
  facet normal 0.000000e+000 0.000000e+000 9.684637e-001
    outer loop
      vertex   -5.673205e+001 5.400000e+001 3.000000e+000
      vertex   -6.500000e+001 4.500000e+001 3.000000e+000
      vertex   -5.661803e+001 5.382443e+001 3.000000e+000
    endloop
  endfacet
  facet normal 0.000000e+000 0.000000e+000 9.915068e-001
    outer loop
      vertex   -5.661803e+001 5.382443e+001 3.000000e+000
      vertex   -6.500000e+001 4.500000e+001 3.000000e+000
      vertex   -5.648629e+001 5.366174e+001 3.000000e+000
    endloop
  endfacet
  facet normal 0.000000e+000 0.000000e+000 9.999629e-001
    outer loop
      vertex   -5.648629e+001 5.366174e+001 3.000000e+000
      vertex   -6.500000e+001 4.500000e+001 3.000000e+000
      vertex   -5.633826e+001 5.351371e+001 3.000000e+000
    endloop
  endfacet
  facet normal 0.000000e+000 0.000000e+000 9.935846e-001
    outer loop
      vertex   -5.633826e+001 5.351371e+001 3.000000e+000
      vertex   -6.500000e+001 4.500000e+001 3.000000e+000
      vertex   -5.617557e+001 5.338197e+001 3.000000e+000
    endloop
  endfacet
  facet normal 0.000000e+000 0.000000e+000 9.724797e-001
    outer loop
      vertex   -5.617557e+001 5.338197e+001 3.000000e+000
      vertex   -6.500000e+001 4.500000e+001 3.000000e+000
      vertex   -5.600000e+001 5.326795e+001 3.000000e+000
    endloop
  endfacet
  facet normal 0.000000e+000 0.000000e+000 9.371129e-001
    outer loop
      vertex   -5.600000e+001 5.326795e+001 3.000000e+000
      vertex   -6.500000e+001 4.500000e+001 3.000000e+000
      vertex   -5.581347e+001 5.317291e+001 3.000000e+000
    endloop
  endfacet
  facet normal 0.000000e+000 0.000000e+000 8.882869e-001
    outer loop
      vertex   -5.581347e+001 5.317291e+001 3.000000e+000
      vertex   -6.500000e+001 4.500000e+001 3.000000e+000
      vertex   -5.561803e+001 5.309789e+001 3.000000e+000
    endloop
  endfacet
  facet normal 0.000000e+000 0.000000e+000 8.270620e-001
    outer loop
      vertex   -5.561803e+001 5.309789e+001 3.000000e+000
      vertex   -6.500000e+001 4.500000e+001 3.000000e+000
      vertex   -5.541582e+001 5.304370e+001 3.000000e+000
    endloop
  endfacet
  facet normal 0.000000e+000 0.000000e+000 7.547760e-001
    outer loop
      vertex   -5.541582e+001 5.304370e+001 3.000000e+000
      vertex   -6.500000e+001 4.500000e+001 3.000000e+000
      vertex   -5.520906e+001 5.301096e+001 3.000000e+000
    endloop
  endfacet
  facet normal 0.000000e+000 0.000000e+000 6.728827e-001
    outer loop
      vertex   -5.520906e+001 5.301096e+001 3.000000e+000
      vertex   -6.500000e+001 4.500000e+001 3.000000e+000
      vertex   -5.500000e+001 5.300000e+001 3.000000e+000
    endloop
  endfacet
  facet normal 0.000000e+000 0.000000e+000 9.756098e-001
    outer loop
      vertex   -5.500000e+001 5.300000e+001 3.000000e+000
      vertex   -6.500000e+001 4.500000e+001 3.000000e+000
      vertex   -4.500000e+001 4.500000e+001 3.000000e+000
    endloop
  endfacet
  facet normal -0.000000e+000 0.000000e+000 6.647050e-001
    outer loop
      vertex   -5.500000e+001 5.300000e+001 3.000000e+000
      vertex   -4.500000e+001 4.500000e+001 3.000000e+000
      vertex   -5.479094e+001 5.301096e+001 3.000000e+000
    endloop
  endfacet
  facet normal -0.000000e+000 0.000000e+000 7.465237e-001
    outer loop
      vertex   -5.479094e+001 5.301096e+001 3.000000e+000
      vertex   -4.500000e+001 4.500000e+001 3.000000e+000
      vertex   -5.458418e+001 5.304370e+001 3.000000e+000
    endloop
  endfacet
  facet normal -0.000000e+000 0.000000e+000 8.192046e-001
    outer loop
      vertex   -5.458418e+001 5.304370e+001 3.000000e+000
      vertex   -4.500000e+001 4.500000e+001 3.000000e+000
      vertex   -5.438197e+001 5.309789e+001 3.000000e+000
    endloop
  endfacet
  facet normal -0.000000e+000 0.000000e+000 8.812956e-001
    outer loop
      vertex   -5.438197e+001 5.309789e+001 3.000000e+000
      vertex   -4.500000e+001 4.500000e+001 3.000000e+000
      vertex   -5.418653e+001 5.317291e+001 3.000000e+000
    endloop
  endfacet
  facet normal -0.000000e+000 0.000000e+000 9.314250e-001
    outer loop
      vertex   -5.418653e+001 5.317291e+001 3.000000e+000
      vertex   -4.500000e+001 4.500000e+001 3.000000e+000
      vertex   -5.400000e+001 5.326795e+001 3.000000e+000
    endloop
  endfacet
  facet normal -0.000000e+000 0.000000e+000 9.684637e-001
    outer loop
      vertex   -5.400000e+001 5.326795e+001 3.000000e+000
      vertex   -4.500000e+001 4.500000e+001 3.000000e+000
      vertex   -5.382443e+001 5.338197e+001 3.000000e+000
    endloop
  endfacet
  facet normal -0.000000e+000 0.000000e+000 9.915068e-001
    outer loop
      vertex   -5.382443e+001 5.338197e+001 3.000000e+000
      vertex   -4.500000e+001 4.500000e+001 3.000000e+000
      vertex   -5.366174e+001 5.351371e+001 3.000000e+000
    endloop
  endfacet
  facet normal -0.000000e+000 0.000000e+000 9.999629e-001
    outer loop
      vertex   -5.366174e+001 5.351371e+001 3.000000e+000
      vertex   -4.500000e+001 4.500000e+001 3.000000e+000
      vertex   -5.351371e+001 5.366174e+001 3.000000e+000
    endloop
  endfacet
  facet normal -0.000000e+000 0.000000e+000 9.935846e-001
    outer loop
      vertex   -5.351371e+001 5.366174e+001 3.000000e+000
      vertex   -4.500000e+001 4.500000e+001 3.000000e+000
      vertex   -5.338197e+001 5.382443e+001 3.000000e+000
    endloop
  endfacet
  facet normal -0.000000e+000 0.000000e+000 9.724797e-001
    outer loop
      vertex   -5.338197e+001 5.382443e+001 3.000000e+000
      vertex   -4.500000e+001 4.500000e+001 3.000000e+000
      vertex   -5.326795e+001 5.400000e+001 3.000000e+000
    endloop
  endfacet
  facet normal -0.000000e+000 0.000000e+000 9.371129e-001
    outer loop
      vertex   -5.326795e+001 5.400000e+001 3.000000e+000
      vertex   -4.500000e+001 4.500000e+001 3.000000e+000
      vertex   -5.317291e+001 5.418653e+001 3.000000e+000
    endloop
  endfacet
  facet normal -0.000000e+000 0.000000e+000 8.882869e-001
    outer loop
      vertex   -5.317291e+001 5.418653e+001 3.000000e+000
      vertex   -4.500000e+001 4.500000e+001 3.000000e+000
      vertex   -5.309789e+001 5.438197e+001 3.000000e+000
    endloop
  endfacet
  facet normal -0.000000e+000 0.000000e+000 8.270620e-001
    outer loop
      vertex   -5.309789e+001 5.438197e+001 3.000000e+000
      vertex   -4.500000e+001 4.500000e+001 3.000000e+000
      vertex   -5.304370e+001 5.458418e+001 3.000000e+000
    endloop
  endfacet
  facet normal -0.000000e+000 0.000000e+000 7.547760e-001
    outer loop
      vertex   -5.304370e+001 5.458418e+001 3.000000e+000
      vertex   -4.500000e+001 4.500000e+001 3.000000e+000
      vertex   -5.301096e+001 5.479094e+001 3.000000e+000
    endloop
  endfacet
  facet normal -0.000000e+000 0.000000e+000 6.728827e-001
    outer loop
      vertex   -5.301096e+001 5.479094e+001 3.000000e+000
      vertex   -4.500000e+001 4.500000e+001 3.000000e+000
      vertex   -5.300000e+001 5.500000e+001 3.000000e+000
    endloop
  endfacet
  facet normal -0.000000e+000 0.000000e+000 9.756098e-001
    outer loop
      vertex   -5.300000e+001 5.500000e+001 3.000000e+000
      vertex   -4.500000e+001 4.500000e+001 3.000000e+000
      vertex   -4.500000e+001 6.500000e+001 3.000000e+000
    endloop
  endfacet
  facet normal 0.000000e+000 -0.000000e+000 6.647050e-001
    outer loop
      vertex   -5.300000e+001 5.500000e+001 3.000000e+000
      vertex   -4.500000e+001 6.500000e+001 3.000000e+000
      vertex   -5.301096e+001 5.520906e+001 3.000000e+000
    endloop
  endfacet
  facet normal 0.000000e+000 -0.000000e+000 7.465237e-001
    outer loop
      vertex   -5.301096e+001 5.520906e+001 3.000000e+000
      vertex   -4.500000e+001 6.500000e+001 3.000000e+000
      vertex   -5.304370e+001 5.541582e+001 3.000000e+000
    endloop
  endfacet
  facet normal 0.000000e+000 -0.000000e+000 8.192046e-001
    outer loop
      vertex   -5.304370e+001 5.541582e+001 3.000000e+000
      vertex   -4.500000e+001 6.500000e+001 3.000000e+000
      vertex   -5.309789e+001 5.561803e+001 3.000000e+000
    endloop
  endfacet
  facet normal 0.000000e+000 -0.000000e+000 8.812956e-001
    outer loop
      vertex   -5.309789e+001 5.561803e+001 3.000000e+000
      vertex   -4.500000e+001 6.500000e+001 3.000000e+000
      vertex   -5.317291e+001 5.581347e+001 3.000000e+000
    endloop
  endfacet
  facet normal 0.000000e+000 -0.000000e+000 9.314250e-001
    outer loop
      vertex   -5.317291e+001 5.581347e+001 3.000000e+000
      vertex   -4.500000e+001 6.500000e+001 3.000000e+000
      vertex   -5.326795e+001 5.600000e+001 3.000000e+000
    endloop
  endfacet
  facet normal 0.000000e+000 -0.000000e+000 9.684637e-001
    outer loop
      vertex   -5.326795e+001 5.600000e+001 3.000000e+000
      vertex   -4.500000e+001 6.500000e+001 3.000000e+000
      vertex   -5.338197e+001 5.617557e+001 3.000000e+000
    endloop
  endfacet
  facet normal 0.000000e+000 -0.000000e+000 9.915068e-001
    outer loop
      vertex   -5.338197e+001 5.617557e+001 3.000000e+000
      vertex   -4.500000e+001 6.500000e+001 3.000000e+000
      vertex   -5.351371e+001 5.633826e+001 3.000000e+000
    endloop
  endfacet
  facet normal 0.000000e+000 -0.000000e+000 9.999629e-001
    outer loop
      vertex   -5.351371e+001 5.633826e+001 3.000000e+000
      vertex   -4.500000e+001 6.500000e+001 3.000000e+000
      vertex   -5.366174e+001 5.648629e+001 3.000000e+000
    endloop
  endfacet
  facet normal 0.000000e+000 -0.000000e+000 9.935846e-001
    outer loop
      vertex   -5.366174e+001 5.648629e+001 3.000000e+000
      vertex   -4.500000e+001 6.500000e+001 3.000000e+000
      vertex   -5.382443e+001 5.661803e+001 3.000000e+000
    endloop
  endfacet
  facet normal 0.000000e+000 -0.000000e+000 9.724797e-001
    outer loop
      vertex   -5.382443e+001 5.661803e+001 3.000000e+000
      vertex   -4.500000e+001 6.500000e+001 3.000000e+000
      vertex   -5.400000e+001 5.673205e+001 3.000000e+000
    endloop
  endfacet
  facet normal 0.000000e+000 -0.000000e+000 9.371129e-001
    outer loop
      vertex   -5.400000e+001 5.673205e+001 3.000000e+000
      vertex   -4.500000e+001 6.500000e+001 3.000000e+000
      vertex   -5.418653e+001 5.682709e+001 3.000000e+000
    endloop
  endfacet
  facet normal 0.000000e+000 -0.000000e+000 8.882869e-001
    outer loop
      vertex   -5.418653e+001 5.682709e+001 3.000000e+000
      vertex   -4.500000e+001 6.500000e+001 3.000000e+000
      vertex   -5.438197e+001 5.690211e+001 3.000000e+000
    endloop
  endfacet
  facet normal 0.000000e+000 -0.000000e+000 8.270620e-001
    outer loop
      vertex   -5.438197e+001 5.690211e+001 3.000000e+000
      vertex   -4.500000e+001 6.500000e+001 3.000000e+000
      vertex   -5.458418e+001 5.695630e+001 3.000000e+000
    endloop
  endfacet
  facet normal 0.000000e+000 -0.000000e+000 7.547760e-001
    outer loop
      vertex   -5.458418e+001 5.695630e+001 3.000000e+000
      vertex   -4.500000e+001 6.500000e+001 3.000000e+000
      vertex   -5.479094e+001 5.698904e+001 3.000000e+000
    endloop
  endfacet
  facet normal 0.000000e+000 -0.000000e+000 6.728827e-001
    outer loop
      vertex   -5.479094e+001 5.698904e+001 3.000000e+000
      vertex   -4.500000e+001 6.500000e+001 3.000000e+000
      vertex   -5.500000e+001 5.700000e+001 3.000000e+000
    endloop
  endfacet
  facet normal 0.000000e+000 -0.000000e+000 9.756098e-001
    outer loop
      vertex   -5.500000e+001 5.700000e+001 3.000000e+000
      vertex   -4.500000e+001 6.500000e+001 3.000000e+000
      vertex   -6.500000e+001 6.500000e+001 3.000000e+000
    endloop
  endfacet
  facet normal 0.000000e+000 0.000000e+000 6.647050e-001
    outer loop
      vertex   -5.500000e+001 5.700000e+001 3.000000e+000
      vertex   -6.500000e+001 6.500000e+001 3.000000e+000
      vertex   -5.520906e+001 5.698904e+001 3.000000e+000
    endloop
  endfacet
  facet normal 0.000000e+000 0.000000e+000 7.465237e-001
    outer loop
      vertex   -5.520906e+001 5.698904e+001 3.000000e+000
      vertex   -6.500000e+001 6.500000e+001 3.000000e+000
      vertex   -5.541582e+001 5.695630e+001 3.000000e+000
    endloop
  endfacet
  facet normal 0.000000e+000 0.000000e+000 8.192046e-001
    outer loop
      vertex   -5.541582e+001 5.695630e+001 3.000000e+000
      vertex   -6.500000e+001 6.500000e+001 3.000000e+000
      vertex   -5.561803e+001 5.690211e+001 3.000000e+000
    endloop
  endfacet
  facet normal 0.000000e+000 0.000000e+000 8.812956e-001
    outer loop
      vertex   -5.561803e+001 5.690211e+001 3.000000e+000
      vertex   -6.500000e+001 6.500000e+001 3.000000e+000
      vertex   -5.581347e+001 5.682709e+001 3.000000e+000
    endloop
  endfacet
  facet normal 0.000000e+000 0.000000e+000 9.314250e-001
    outer loop
      vertex   -5.581347e+001 5.682709e+001 3.000000e+000
      vertex   -6.500000e+001 6.500000e+001 3.000000e+000
      vertex   -5.600000e+001 5.673205e+001 3.000000e+000
    endloop
  endfacet
  facet normal 0.000000e+000 0.000000e+000 9.684637e-001
    outer loop
      vertex   -5.600000e+001 5.673205e+001 3.000000e+000
      vertex   -6.500000e+001 6.500000e+001 3.000000e+000
      vertex   -5.617557e+001 5.661803e+001 3.000000e+000
    endloop
  endfacet
  facet normal 0.000000e+000 0.000000e+000 9.915068e-001
    outer loop
      vertex   -5.617557e+001 5.661803e+001 3.000000e+000
      vertex   -6.500000e+001 6.500000e+001 3.000000e+000
      vertex   -5.633826e+001 5.648629e+001 3.000000e+000
    endloop
  endfacet
  facet normal 0.000000e+000 0.000000e+000 9.999629e-001
    outer loop
      vertex   -5.633826e+001 5.648629e+001 3.000000e+000
      vertex   -6.500000e+001 6.500000e+001 3.000000e+000
      vertex   -5.648629e+001 5.633826e+001 3.000000e+000
    endloop
  endfacet
  facet normal 0.000000e+000 0.000000e+000 9.935846e-001
    outer loop
      vertex   -5.648629e+001 5.633826e+001 3.000000e+000
      vertex   -6.500000e+001 6.500000e+001 3.000000e+000
      vertex   -5.661803e+001 5.617557e+001 3.000000e+000
    endloop
  endfacet
  facet normal 0.000000e+000 0.000000e+000 9.724797e-001
    outer loop
      vertex   -5.661803e+001 5.617557e+001 3.000000e+000
      vertex   -6.500000e+001 6.500000e+001 3.000000e+000
      vertex   -5.673205e+001 5.600000e+001 3.000000e+000
    endloop
  endfacet
  facet normal 0.000000e+000 0.000000e+000 9.371129e-001
    outer loop
      vertex   -5.673205e+001 5.600000e+001 3.000000e+000
      vertex   -6.500000e+001 6.500000e+001 3.000000e+000
      vertex   -5.682709e+001 5.581347e+001 3.000000e+000
    endloop
  endfacet
  facet normal 0.000000e+000 0.000000e+000 8.882869e-001
    outer loop
      vertex   -5.682709e+001 5.581347e+001 3.000000e+000
      vertex   -6.500000e+001 6.500000e+001 3.000000e+000
      vertex   -5.690211e+001 5.561803e+001 3.000000e+000
    endloop
  endfacet
  facet normal 0.000000e+000 0.000000e+000 8.270620e-001
    outer loop
      vertex   -5.690211e+001 5.561803e+001 3.000000e+000
      vertex   -6.500000e+001 6.500000e+001 3.000000e+000
      vertex   -5.695630e+001 5.541582e+001 3.000000e+000
    endloop
  endfacet
  facet normal 0.000000e+000 0.000000e+000 7.547760e-001
    outer loop
      vertex   -5.695630e+001 5.541582e+001 3.000000e+000
      vertex   -6.500000e+001 6.500000e+001 3.000000e+000
      vertex   -5.698904e+001 5.520906e+001 3.000000e+000
    endloop
  endfacet
  facet normal -0.000000e+000 0.000000e+000 1.000000e+000
    outer loop
      vertex   -6.500000e+001 4.500000e+001 3.000000e+000
      vertex   -6.500000e+001 3.385000e+001 3.000000e+000
      vertex   -4.500000e+001 4.500000e+001 3.000000e+000
    endloop
  endfacet
  facet normal 0.000000e+000 0.000000e+000 8.734353e-001
    outer loop
      vertex   -4.500000e+001 4.500000e+001 3.000000e+000
      vertex   -6.500000e+001 3.385000e+001 3.000000e+000
      vertex   -4.500000e+001 3.385000e+001 3.000000e+000
    endloop
  endfacet
  facet normal 0.000000e+000 -0.000000e+000 1.000000e+000
    outer loop
      vertex   -3.385000e+001 4.500000e+001 3.000000e+000
      vertex   -3.385000e+001 6.500000e+001 3.000000e+000
      vertex   -4.500000e+001 4.500000e+001 3.000000e+000
    endloop
  endfacet
  facet normal 0.000000e+000 0.000000e+000 4.869402e-001
    outer loop
      vertex   -4.500000e+001 4.500000e+001 3.000000e+000
      vertex   -3.385000e+001 6.500000e+001 3.000000e+000
      vertex   -4.500000e+001 6.500000e+001 3.000000e+000
    endloop
  endfacet
  facet normal 0.000000e+000 -0.000000e+000 1.000000e+000
    outer loop
      vertex   -4.500000e+001 6.500000e+001 3.000000e+000
      vertex   -4.500000e+001 7.615000e+001 3.000000e+000
      vertex   -6.500000e+001 6.500000e+001 3.000000e+000
    endloop
  endfacet
  facet normal 0.000000e+000 0.000000e+000 8.734353e-001
    outer loop
      vertex   -6.500000e+001 6.500000e+001 3.000000e+000
      vertex   -4.500000e+001 7.615000e+001 3.000000e+000
      vertex   -6.500000e+001 7.615000e+001 3.000000e+000
    endloop
  endfacet
  facet normal -0.000000e+000 0.000000e+000 1.000000e+000
    outer loop
      vertex   -7.615000e+001 6.500000e+001 3.000000e+000
      vertex   -7.615000e+001 4.500000e+001 3.000000e+000
      vertex   -6.500000e+001 6.500000e+001 3.000000e+000
    endloop
  endfacet
  facet normal 0.000000e+000 0.000000e+000 4.869402e-001
    outer loop
      vertex   -6.500000e+001 6.500000e+001 3.000000e+000
      vertex   -7.615000e+001 4.500000e+001 3.000000e+000
      vertex   -6.500000e+001 4.500000e+001 3.000000e+000
    endloop
  endfacet
  facet normal 0.000000e+000 -0.000000e+000 1.000000e+000
    outer loop
      vertex   -4.500000e+001 3.085000e+001 7.000000e+000
      vertex   -4.500000e+001 3.385000e+001 7.000000e+000
      vertex   -6.500000e+001 3.085000e+001 7.000000e+000
    endloop
  endfacet
  facet normal 0.000000e+000 0.000000e+000 9.889364e-001
    outer loop
      vertex   -6.500000e+001 3.085000e+001 7.000000e+000
      vertex   -4.500000e+001 3.385000e+001 7.000000e+000
      vertex   -6.500000e+001 3.385000e+001 7.000000e+000
    endloop
  endfacet
  facet normal -1.000000e+000 -0.000000e+000 -0.000000e+000
    outer loop
      vertex   -6.500000e+001 3.385000e+001 7.000000e+000
      vertex   -6.500000e+001 3.385000e+001 3.000000e+000
      vertex   -6.500000e+001 3.085000e+001 7.000000e+000
    endloop
  endfacet
  facet normal -5.999998e-001 0.000000e+000 0.000000e+000
    outer loop
      vertex   -6.500000e+001 3.085000e+001 7.000000e+000
      vertex   -6.500000e+001 3.385000e+001 3.000000e+000
      vertex   -6.500000e+001 3.085000e+001 2.775558e-016
    endloop
  endfacet
  facet normal -7.071070e-001 0.000000e+000 0.000000e+000
    outer loop
      vertex   -6.500000e+001 3.085000e+001 2.775558e-016
      vertex   -6.500000e+001 3.385000e+001 3.000000e+000
      vertex   -6.500000e+001 4.500000e+001 0.000000e+000
    endloop
  endfacet
  facet normal -9.656576e-001 0.000000e+000 0.000000e+000
    outer loop
      vertex   -6.500000e+001 4.500000e+001 0.000000e+000
      vertex   -6.500000e+001 3.385000e+001 3.000000e+000
      vertex   -6.500000e+001 4.500000e+001 3.000000e+000
    endloop
  endfacet
  facet normal 0.000000e+000 1.000000e+000 0.000000e+000
    outer loop
      vertex   -6.500000e+001 3.385000e+001 3.000000e+000
      vertex   -6.500000e+001 3.385000e+001 7.000000e+000
      vertex   -4.500000e+001 3.385000e+001 3.000000e+000
    endloop
  endfacet
  facet normal 0.000000e+000 9.805807e-001 -0.000000e+000
    outer loop
      vertex   -4.500000e+001 3.385000e+001 3.000000e+000
      vertex   -6.500000e+001 3.385000e+001 7.000000e+000
      vertex   -4.500000e+001 3.385000e+001 7.000000e+000
    endloop
  endfacet
  facet normal 1.000000e+000 0.000000e+000 0.000000e+000
    outer loop
      vertex   -4.500000e+001 3.385000e+001 7.000000e+000
      vertex   -4.500000e+001 3.085000e+001 7.000000e+000
      vertex   -4.500000e+001 3.385000e+001 3.000000e+000
    endloop
  endfacet
  facet normal 9.899494e-001 0.000000e+000 0.000000e+000
    outer loop
      vertex   -4.500000e+001 3.385000e+001 3.000000e+000
      vertex   -4.500000e+001 3.085000e+001 7.000000e+000
      vertex   -4.500000e+001 3.085000e+001 2.775558e-016
    endloop
  endfacet
  facet normal 8.665423e-001 0.000000e+000 0.000000e+000
    outer loop
      vertex   -4.500000e+001 3.385000e+001 3.000000e+000
      vertex   -4.500000e+001 3.085000e+001 2.775558e-016
      vertex   -4.500000e+001 4.500000e+001 0.000000e+000
    endloop
  endfacet
  facet normal 9.656576e-001 0.000000e+000 -0.000000e+000
    outer loop
      vertex   -4.500000e+001 4.500000e+001 0.000000e+000
      vertex   -4.500000e+001 4.500000e+001 3.000000e+000
      vertex   -4.500000e+001 3.385000e+001 3.000000e+000
    endloop
  endfacet
  facet normal 0.000000e+000 -1.000000e+000 0.000000e+000
    outer loop
      vertex   -6.500000e+001 3.085000e+001 7.000000e+000
      vertex   -6.500000e+001 3.085000e+001 2.775558e-016
      vertex   -4.500000e+001 3.085000e+001 7.000000e+000
    endloop
  endfacet
  facet normal 0.000000e+000 -9.438584e-001 -0.000000e+000
    outer loop
      vertex   -4.500000e+001 3.085000e+001 7.000000e+000
      vertex   -6.500000e+001 3.085000e+001 2.775558e-016
      vertex   -4.500000e+001 3.085000e+001 2.775558e-016
    endloop
  endfacet
  facet normal -0.000000e+000 0.000000e+000 1.000000e+000
    outer loop
      vertex   -6.500000e+001 7.915000e+001 7.000000e+000
      vertex   -6.500000e+001 7.615000e+001 7.000000e+000
      vertex   -4.500000e+001 7.915000e+001 7.000000e+000
    endloop
  endfacet
  facet normal 0.000000e+000 0.000000e+000 9.889364e-001
    outer loop
      vertex   -4.500000e+001 7.915000e+001 7.000000e+000
      vertex   -6.500000e+001 7.615000e+001 7.000000e+000
      vertex   -4.500000e+001 7.615000e+001 7.000000e+000
    endloop
  endfacet
  facet normal 1.000000e+000 -0.000000e+000 0.000000e+000
    outer loop
      vertex   -4.500000e+001 7.615000e+001 7.000000e+000
      vertex   -4.500000e+001 7.615000e+001 3.000000e+000
      vertex   -4.500000e+001 7.915000e+001 7.000000e+000
    endloop
  endfacet
  facet normal 6.000000e-001 0.000000e+000 0.000000e+000
    outer loop
      vertex   -4.500000e+001 7.915000e+001 7.000000e+000
      vertex   -4.500000e+001 7.615000e+001 3.000000e+000
      vertex   -4.500000e+001 7.915000e+001 2.775558e-016
    endloop
  endfacet
  facet normal 7.071068e-001 0.000000e+000 0.000000e+000
    outer loop
      vertex   -4.500000e+001 7.915000e+001 2.775558e-016
      vertex   -4.500000e+001 7.615000e+001 3.000000e+000
      vertex   -4.500000e+001 6.500000e+001 0.000000e+000
    endloop
  endfacet
  facet normal 9.656576e-001 0.000000e+000 0.000000e+000
    outer loop
      vertex   -4.500000e+001 6.500000e+001 0.000000e+000
      vertex   -4.500000e+001 7.615000e+001 3.000000e+000
      vertex   -4.500000e+001 6.500000e+001 3.000000e+000
    endloop
  endfacet
  facet normal 0.000000e+000 -1.000000e+000 0.000000e+000
    outer loop
      vertex   -4.500000e+001 7.615000e+001 3.000000e+000
      vertex   -4.500000e+001 7.615000e+001 7.000000e+000
      vertex   -6.500000e+001 7.615000e+001 3.000000e+000
    endloop
  endfacet
  facet normal 0.000000e+000 -9.805807e-001 0.000000e+000
    outer loop
      vertex   -6.500000e+001 7.615000e+001 3.000000e+000
      vertex   -4.500000e+001 7.615000e+001 7.000000e+000
      vertex   -6.500000e+001 7.615000e+001 7.000000e+000
    endloop
  endfacet
  facet normal -1.000000e+000 0.000000e+000 0.000000e+000
    outer loop
      vertex   -6.500000e+001 7.615000e+001 7.000000e+000
      vertex   -6.500000e+001 7.915000e+001 7.000000e+000
      vertex   -6.500000e+001 7.615000e+001 3.000000e+000
    endloop
  endfacet
  facet normal -9.899495e-001 0.000000e+000 0.000000e+000
    outer loop
      vertex   -6.500000e+001 7.615000e+001 3.000000e+000
      vertex   -6.500000e+001 7.915000e+001 7.000000e+000
      vertex   -6.500000e+001 7.915000e+001 2.775558e-016
    endloop
  endfacet
  facet normal -8.665422e-001 0.000000e+000 -0.000000e+000
    outer loop
      vertex   -6.500000e+001 7.615000e+001 3.000000e+000
      vertex   -6.500000e+001 7.915000e+001 2.775558e-016
      vertex   -6.500000e+001 6.500000e+001 0.000000e+000
    endloop
  endfacet
  facet normal -9.656576e-001 0.000000e+000 0.000000e+000
    outer loop
      vertex   -6.500000e+001 6.500000e+001 0.000000e+000
      vertex   -6.500000e+001 6.500000e+001 3.000000e+000
      vertex   -6.500000e+001 7.615000e+001 3.000000e+000
    endloop
  endfacet
  facet normal 0.000000e+000 1.000000e+000 0.000000e+000
    outer loop
      vertex   -4.500000e+001 7.915000e+001 7.000000e+000
      vertex   -4.500000e+001 7.915000e+001 2.775558e-016
      vertex   -6.500000e+001 7.915000e+001 7.000000e+000
    endloop
  endfacet
  facet normal 0.000000e+000 9.438584e-001 0.000000e+000
    outer loop
      vertex   -6.500000e+001 7.915000e+001 7.000000e+000
      vertex   -4.500000e+001 7.915000e+001 2.775558e-016
      vertex   -6.500000e+001 7.915000e+001 2.775558e-016
    endloop
  endfacet
  facet normal 4.382008e-017 2.296430e-018 -6.728827e-001
    outer loop
      vertex   -5.698904e+001 5.479094e+001 5.551115e-016
      vertex   -6.500000e+001 4.500000e+001 0.000000e+000
      vertex   -5.700000e+001 5.500000e+001 5.551115e-016
    endloop
  endfacet
  facet normal 6.769653e-017 0.000000e+000 -9.756098e-001
    outer loop
      vertex   -5.700000e+001 5.500000e+001 5.551115e-016
      vertex   -6.500000e+001 4.500000e+001 0.000000e+000
      vertex   -6.500000e+001 6.500000e+001 0.000000e+000
    endloop
  endfacet
  facet normal 4.328753e-017 -2.268521e-018 -6.647050e-001
    outer loop
      vertex   -5.700000e+001 5.500000e+001 5.551115e-016
      vertex   -6.500000e+001 6.500000e+001 0.000000e+000
      vertex   -5.698904e+001 5.520906e+001 5.551115e-016
    endloop
  endfacet
  facet normal 4.333996e-017 -6.864446e-018 -7.465237e-001
    outer loop
      vertex   -5.698904e+001 5.520906e+001 5.551115e-016
      vertex   -6.500000e+001 6.500000e+001 0.000000e+000
      vertex   -5.695630e+001 5.541582e+001 5.551115e-016
    endloop
  endfacet
  facet normal 4.285365e-017 -1.148224e-017 -8.192046e-001
    outer loop
      vertex   -5.695630e+001 5.541582e+001 5.551115e-016
      vertex   -6.500000e+001 6.500000e+001 0.000000e+000
      vertex   -5.690211e+001 5.561803e+001 5.551115e-016
    endloop
  endfacet
  facet normal 4.181568e-017 -1.605194e-017 -8.812956e-001
    outer loop
      vertex   -5.690211e+001 5.561803e+001 5.551115e-016
      vertex   -6.500000e+001 6.500000e+001 0.000000e+000
      vertex   -5.682709e+001 5.581347e+001 5.551115e-016
    endloop
  endfacet
  facet normal 4.022558e-017 -2.049574e-017 -9.314250e-001
    outer loop
      vertex   -5.682709e+001 5.581347e+001 5.551115e-016
      vertex   -6.500000e+001 6.500000e+001 0.000000e+000
      vertex   -5.673205e+001 5.600000e+001 5.551115e-016
    endloop
  endfacet
  facet normal 3.809394e-017 -2.473851e-017 -9.684637e-001
    outer loop
      vertex   -5.673205e+001 5.600000e+001 5.551115e-016
      vertex   -6.500000e+001 6.500000e+001 0.000000e+000
      vertex   -5.661803e+001 5.617557e+001 5.551115e-016
    endloop
  endfacet
  facet normal 3.544564e-017 -2.870358e-017 -9.915068e-001
    outer loop
      vertex   -5.661803e+001 5.617557e+001 5.551115e-016
      vertex   -6.500000e+001 6.500000e+001 0.000000e+000
      vertex   -5.648629e+001 5.633826e+001 5.551115e-016
    endloop
  endfacet
  facet normal 3.231886e-017 -3.231886e-017 -9.999629e-001
    outer loop
      vertex   -5.648629e+001 5.633826e+001 5.551115e-016
      vertex   -6.500000e+001 6.500000e+001 0.000000e+000
      vertex   -5.633826e+001 5.648629e+001 5.551115e-016
    endloop
  endfacet
  facet normal 2.876374e-017 -3.551992e-017 -9.935846e-001
    outer loop
      vertex   -5.633826e+001 5.648629e+001 5.551115e-016
      vertex   -6.500000e+001 6.500000e+001 0.000000e+000
      vertex   -5.617557e+001 5.661803e+001 5.551115e-016
    endloop
  endfacet
  facet normal 2.484110e-017 -3.825191e-017 -9.724797e-001
    outer loop
      vertex   -5.617557e+001 5.661803e+001 5.551115e-016
      vertex   -6.500000e+001 6.500000e+001 0.000000e+000
      vertex   -5.600000e+001 5.673205e+001 5.551115e-016
    endloop
  endfacet
  facet normal 2.062090e-017 -4.047123e-017 -9.371129e-001
    outer loop
      vertex   -5.600000e+001 5.673205e+001 5.551115e-016
      vertex   -6.500000e+001 6.500000e+001 0.000000e+000
      vertex   -5.581347e+001 5.682709e+001 5.551115e-016
    endloop
  endfacet
  facet normal 1.617928e-017 -4.214741e-017 -8.882869e-001
    outer loop
      vertex   -5.581347e+001 5.682709e+001 5.551115e-016
      vertex   -6.500000e+001 6.500000e+001 0.000000e+000
      vertex   -5.561803e+001 5.690211e+001 5.551115e-016
    endloop
  endfacet
  facet normal 1.159237e-017 -4.326468e-017 -8.270620e-001
    outer loop
      vertex   -5.561803e+001 5.690211e+001 5.551115e-016
      vertex   -6.500000e+001 6.500000e+001 0.000000e+000
      vertex   -5.541582e+001 5.695630e+001 5.551115e-016
    endloop
  endfacet
  facet normal 6.940327e-018 -4.381905e-017 -7.547760e-001
    outer loop
      vertex   -5.541582e+001 5.695630e+001 5.551115e-016
      vertex   -6.500000e+001 6.500000e+001 0.000000e+000
      vertex   -5.520906e+001 5.698904e+001 5.551115e-016
    endloop
  endfacet
  facet normal 2.296430e-018 -4.382008e-017 -6.728827e-001
    outer loop
      vertex   -5.520906e+001 5.698904e+001 5.551115e-016
      vertex   -6.500000e+001 6.500000e+001 0.000000e+000
      vertex   -5.500000e+001 5.700000e+001 5.551115e-016
    endloop
  endfacet
  facet normal 0.000000e+000 -6.769653e-017 -9.756098e-001
    outer loop
      vertex   -5.500000e+001 5.700000e+001 5.551115e-016
      vertex   -6.500000e+001 6.500000e+001 0.000000e+000
      vertex   -4.500000e+001 6.500000e+001 0.000000e+000
    endloop
  endfacet
  facet normal -2.268521e-018 -4.328753e-017 -6.647050e-001
    outer loop
      vertex   -5.500000e+001 5.700000e+001 5.551115e-016
      vertex   -4.500000e+001 6.500000e+001 0.000000e+000
      vertex   -5.479094e+001 5.698904e+001 5.551115e-016
    endloop
  endfacet
  facet normal -6.864446e-018 -4.333996e-017 -7.465237e-001
    outer loop
      vertex   -5.479094e+001 5.698904e+001 5.551115e-016
      vertex   -4.500000e+001 6.500000e+001 0.000000e+000
      vertex   -5.458418e+001 5.695630e+001 5.551115e-016
    endloop
  endfacet
  facet normal -1.148224e-017 -4.285365e-017 -8.192046e-001
    outer loop
      vertex   -5.458418e+001 5.695630e+001 5.551115e-016
      vertex   -4.500000e+001 6.500000e+001 0.000000e+000
      vertex   -5.438197e+001 5.690211e+001 5.551115e-016
    endloop
  endfacet
  facet normal -1.605194e-017 -4.181568e-017 -8.812956e-001
    outer loop
      vertex   -5.438197e+001 5.690211e+001 5.551115e-016
      vertex   -4.500000e+001 6.500000e+001 0.000000e+000
      vertex   -5.418653e+001 5.682709e+001 5.551115e-016
    endloop
  endfacet
  facet normal -2.049574e-017 -4.022558e-017 -9.314250e-001
    outer loop
      vertex   -5.418653e+001 5.682709e+001 5.551115e-016
      vertex   -4.500000e+001 6.500000e+001 0.000000e+000
      vertex   -5.400000e+001 5.673205e+001 5.551115e-016
    endloop
  endfacet
  facet normal -2.473851e-017 -3.809394e-017 -9.684637e-001
    outer loop
      vertex   -5.400000e+001 5.673205e+001 5.551115e-016
      vertex   -4.500000e+001 6.500000e+001 0.000000e+000
      vertex   -5.382443e+001 5.661803e+001 5.551115e-016
    endloop
  endfacet
  facet normal -2.870358e-017 -3.544564e-017 -9.915068e-001
    outer loop
      vertex   -5.382443e+001 5.661803e+001 5.551115e-016
      vertex   -4.500000e+001 6.500000e+001 0.000000e+000
      vertex   -5.366174e+001 5.648629e+001 5.551115e-016
    endloop
  endfacet
  facet normal -3.231886e-017 -3.231886e-017 -9.999629e-001
    outer loop
      vertex   -5.366174e+001 5.648629e+001 5.551115e-016
      vertex   -4.500000e+001 6.500000e+001 0.000000e+000
      vertex   -5.351371e+001 5.633826e+001 5.551115e-016
    endloop
  endfacet
  facet normal -3.551992e-017 -2.876374e-017 -9.935846e-001
    outer loop
      vertex   -5.351371e+001 5.633826e+001 5.551115e-016
      vertex   -4.500000e+001 6.500000e+001 0.000000e+000
      vertex   -5.338197e+001 5.617557e+001 5.551115e-016
    endloop
  endfacet
  facet normal -3.825191e-017 -2.484110e-017 -9.724797e-001
    outer loop
      vertex   -5.338197e+001 5.617557e+001 5.551115e-016
      vertex   -4.500000e+001 6.500000e+001 0.000000e+000
      vertex   -5.326795e+001 5.600000e+001 5.551115e-016
    endloop
  endfacet
  facet normal -4.047123e-017 -2.062090e-017 -9.371129e-001
    outer loop
      vertex   -5.326795e+001 5.600000e+001 5.551115e-016
      vertex   -4.500000e+001 6.500000e+001 0.000000e+000
      vertex   -5.317291e+001 5.581347e+001 5.551115e-016
    endloop
  endfacet
  facet normal -4.214741e-017 -1.617928e-017 -8.882869e-001
    outer loop
      vertex   -5.317291e+001 5.581347e+001 5.551115e-016
      vertex   -4.500000e+001 6.500000e+001 0.000000e+000
      vertex   -5.309789e+001 5.561803e+001 5.551115e-016
    endloop
  endfacet
  facet normal -4.326468e-017 -1.159237e-017 -8.270620e-001
    outer loop
      vertex   -5.309789e+001 5.561803e+001 5.551115e-016
      vertex   -4.500000e+001 6.500000e+001 0.000000e+000
      vertex   -5.304370e+001 5.541582e+001 5.551115e-016
    endloop
  endfacet
  facet normal -4.381905e-017 -6.940327e-018 -7.547760e-001
    outer loop
      vertex   -5.304370e+001 5.541582e+001 5.551115e-016
      vertex   -4.500000e+001 6.500000e+001 0.000000e+000
      vertex   -5.301096e+001 5.520906e+001 5.551115e-016
    endloop
  endfacet
  facet normal -4.382008e-017 -2.296430e-018 -6.728827e-001
    outer loop
      vertex   -5.301096e+001 5.520906e+001 5.551115e-016
      vertex   -4.500000e+001 6.500000e+001 0.000000e+000
      vertex   -5.300000e+001 5.500000e+001 5.551115e-016
    endloop
  endfacet
  facet normal -6.769653e-017 0.000000e+000 -9.756098e-001
    outer loop
      vertex   -5.300000e+001 5.500000e+001 5.551115e-016
      vertex   -4.500000e+001 6.500000e+001 0.000000e+000
      vertex   -4.500000e+001 4.500000e+001 0.000000e+000
    endloop
  endfacet
  facet normal -4.328753e-017 2.268521e-018 -6.647050e-001
    outer loop
      vertex   -5.300000e+001 5.500000e+001 5.551115e-016
      vertex   -4.500000e+001 4.500000e+001 0.000000e+000
      vertex   -5.301096e+001 5.479094e+001 5.551115e-016
    endloop
  endfacet
  facet normal -4.333996e-017 6.864446e-018 -7.465237e-001
    outer loop
      vertex   -5.301096e+001 5.479094e+001 5.551115e-016
      vertex   -4.500000e+001 4.500000e+001 0.000000e+000
      vertex   -5.304370e+001 5.458418e+001 5.551115e-016
    endloop
  endfacet
  facet normal -4.285365e-017 1.148224e-017 -8.192046e-001
    outer loop
      vertex   -5.304370e+001 5.458418e+001 5.551115e-016
      vertex   -4.500000e+001 4.500000e+001 0.000000e+000
      vertex   -5.309789e+001 5.438197e+001 5.551115e-016
    endloop
  endfacet
  facet normal -4.181568e-017 1.605194e-017 -8.812956e-001
    outer loop
      vertex   -5.309789e+001 5.438197e+001 5.551115e-016
      vertex   -4.500000e+001 4.500000e+001 0.000000e+000
      vertex   -5.317291e+001 5.418653e+001 5.551115e-016
    endloop
  endfacet
  facet normal -4.022558e-017 2.049574e-017 -9.314250e-001
    outer loop
      vertex   -5.317291e+001 5.418653e+001 5.551115e-016
      vertex   -4.500000e+001 4.500000e+001 0.000000e+000
      vertex   -5.326795e+001 5.400000e+001 5.551115e-016
    endloop
  endfacet
  facet normal -3.809394e-017 2.473851e-017 -9.684637e-001
    outer loop
      vertex   -5.326795e+001 5.400000e+001 5.551115e-016
      vertex   -4.500000e+001 4.500000e+001 0.000000e+000
      vertex   -5.338197e+001 5.382443e+001 5.551115e-016
    endloop
  endfacet
  facet normal -3.544564e-017 2.870358e-017 -9.915068e-001
    outer loop
      vertex   -5.338197e+001 5.382443e+001 5.551115e-016
      vertex   -4.500000e+001 4.500000e+001 0.000000e+000
      vertex   -5.351371e+001 5.366174e+001 5.551115e-016
    endloop
  endfacet
  facet normal -3.231886e-017 3.231886e-017 -9.999629e-001
    outer loop
      vertex   -5.351371e+001 5.366174e+001 5.551115e-016
      vertex   -4.500000e+001 4.500000e+001 0.000000e+000
      vertex   -5.366174e+001 5.351371e+001 5.551115e-016
    endloop
  endfacet
  facet normal -2.876374e-017 3.551992e-017 -9.935846e-001
    outer loop
      vertex   -5.366174e+001 5.351371e+001 5.551115e-016
      vertex   -4.500000e+001 4.500000e+001 0.000000e+000
      vertex   -5.382443e+001 5.338197e+001 5.551115e-016
    endloop
  endfacet
  facet normal -2.484110e-017 3.825191e-017 -9.724797e-001
    outer loop
      vertex   -5.382443e+001 5.338197e+001 5.551115e-016
      vertex   -4.500000e+001 4.500000e+001 0.000000e+000
      vertex   -5.400000e+001 5.326795e+001 5.551115e-016
    endloop
  endfacet
  facet normal -2.062090e-017 4.047123e-017 -9.371129e-001
    outer loop
      vertex   -5.400000e+001 5.326795e+001 5.551115e-016
      vertex   -4.500000e+001 4.500000e+001 0.000000e+000
      vertex   -5.418653e+001 5.317291e+001 5.551115e-016
    endloop
  endfacet
  facet normal -1.617928e-017 4.214741e-017 -8.882869e-001
    outer loop
      vertex   -5.418653e+001 5.317291e+001 5.551115e-016
      vertex   -4.500000e+001 4.500000e+001 0.000000e+000
      vertex   -5.438197e+001 5.309789e+001 5.551115e-016
    endloop
  endfacet
  facet normal -1.159237e-017 4.326468e-017 -8.270620e-001
    outer loop
      vertex   -5.438197e+001 5.309789e+001 5.551115e-016
      vertex   -4.500000e+001 4.500000e+001 0.000000e+000
      vertex   -5.458418e+001 5.304370e+001 5.551115e-016
    endloop
  endfacet
  facet normal -6.940327e-018 4.381905e-017 -7.547760e-001
    outer loop
      vertex   -5.458418e+001 5.304370e+001 5.551115e-016
      vertex   -4.500000e+001 4.500000e+001 0.000000e+000
      vertex   -5.479094e+001 5.301096e+001 5.551115e-016
    endloop
  endfacet
  facet normal -2.296430e-018 4.382008e-017 -6.728827e-001
    outer loop
      vertex   -5.479094e+001 5.301096e+001 5.551115e-016
      vertex   -4.500000e+001 4.500000e+001 0.000000e+000
      vertex   -5.500000e+001 5.300000e+001 5.551115e-016
    endloop
  endfacet
  facet normal 0.000000e+000 6.769653e-017 -9.756098e-001
    outer loop
      vertex   -5.500000e+001 5.300000e+001 5.551115e-016
      vertex   -4.500000e+001 4.500000e+001 0.000000e+000
      vertex   -6.500000e+001 4.500000e+001 0.000000e+000
    endloop
  endfacet
  facet normal 2.268521e-018 4.328753e-017 -6.647050e-001
    outer loop
      vertex   -5.500000e+001 5.300000e+001 5.551115e-016
      vertex   -6.500000e+001 4.500000e+001 0.000000e+000
      vertex   -5.520906e+001 5.301096e+001 5.551115e-016
    endloop
  endfacet
  facet normal 6.864446e-018 4.333996e-017 -7.465237e-001
    outer loop
      vertex   -5.520906e+001 5.301096e+001 5.551115e-016
      vertex   -6.500000e+001 4.500000e+001 0.000000e+000
      vertex   -5.541582e+001 5.304370e+001 5.551115e-016
    endloop
  endfacet
  facet normal 1.148224e-017 4.285365e-017 -8.192046e-001
    outer loop
      vertex   -5.541582e+001 5.304370e+001 5.551115e-016
      vertex   -6.500000e+001 4.500000e+001 0.000000e+000
      vertex   -5.561803e+001 5.309789e+001 5.551115e-016
    endloop
  endfacet
  facet normal 1.605194e-017 4.181568e-017 -8.812956e-001
    outer loop
      vertex   -5.561803e+001 5.309789e+001 5.551115e-016
      vertex   -6.500000e+001 4.500000e+001 0.000000e+000
      vertex   -5.581347e+001 5.317291e+001 5.551115e-016
    endloop
  endfacet
  facet normal 2.049574e-017 4.022558e-017 -9.314250e-001
    outer loop
      vertex   -5.581347e+001 5.317291e+001 5.551115e-016
      vertex   -6.500000e+001 4.500000e+001 0.000000e+000
      vertex   -5.600000e+001 5.326795e+001 5.551115e-016
    endloop
  endfacet
  facet normal 2.473851e-017 3.809394e-017 -9.684637e-001
    outer loop
      vertex   -5.600000e+001 5.326795e+001 5.551115e-016
      vertex   -6.500000e+001 4.500000e+001 0.000000e+000
      vertex   -5.617557e+001 5.338197e+001 5.551115e-016
    endloop
  endfacet
  facet normal 2.870358e-017 3.544564e-017 -9.915068e-001
    outer loop
      vertex   -5.617557e+001 5.338197e+001 5.551115e-016
      vertex   -6.500000e+001 4.500000e+001 0.000000e+000
      vertex   -5.633826e+001 5.351371e+001 5.551115e-016
    endloop
  endfacet
  facet normal 3.231886e-017 3.231886e-017 -9.999629e-001
    outer loop
      vertex   -5.633826e+001 5.351371e+001 5.551115e-016
      vertex   -6.500000e+001 4.500000e+001 0.000000e+000
      vertex   -5.648629e+001 5.366174e+001 5.551115e-016
    endloop
  endfacet
  facet normal 3.551992e-017 2.876374e-017 -9.935846e-001
    outer loop
      vertex   -5.648629e+001 5.366174e+001 5.551115e-016
      vertex   -6.500000e+001 4.500000e+001 0.000000e+000
      vertex   -5.661803e+001 5.382443e+001 5.551115e-016
    endloop
  endfacet
  facet normal 3.825191e-017 2.484110e-017 -9.724797e-001
    outer loop
      vertex   -5.661803e+001 5.382443e+001 5.551115e-016
      vertex   -6.500000e+001 4.500000e+001 0.000000e+000
      vertex   -5.673205e+001 5.400000e+001 5.551115e-016
    endloop
  endfacet
  facet normal 4.047123e-017 2.062090e-017 -9.371129e-001
    outer loop
      vertex   -5.673205e+001 5.400000e+001 5.551115e-016
      vertex   -6.500000e+001 4.500000e+001 0.000000e+000
      vertex   -5.682709e+001 5.418653e+001 5.551115e-016
    endloop
  endfacet
  facet normal 4.214741e-017 1.617928e-017 -8.882869e-001
    outer loop
      vertex   -5.682709e+001 5.418653e+001 5.551115e-016
      vertex   -6.500000e+001 4.500000e+001 0.000000e+000
      vertex   -5.690211e+001 5.438197e+001 5.551115e-016
    endloop
  endfacet
  facet normal 4.326468e-017 1.159237e-017 -8.270620e-001
    outer loop
      vertex   -5.690211e+001 5.438197e+001 5.551115e-016
      vertex   -6.500000e+001 4.500000e+001 0.000000e+000
      vertex   -5.695630e+001 5.458418e+001 5.551115e-016
    endloop
  endfacet
  facet normal 4.381905e-017 6.940327e-018 -7.547760e-001
    outer loop
      vertex   -5.695630e+001 5.458418e+001 5.551115e-016
      vertex   -6.500000e+001 4.500000e+001 0.000000e+000
      vertex   -5.698904e+001 5.479094e+001 5.551115e-016
    endloop
  endfacet
  facet normal -3.923049e-017 -0.000000e+000 -1.000000e+000
    outer loop
      vertex   -7.915000e+001 6.500000e+001 5.551115e-016
      vertex   -6.500000e+001 6.500000e+001 0.000000e+000
      vertex   -7.915000e+001 4.500000e+001 5.551115e-016
    endloop
  endfacet
  facet normal -3.202562e-017 0.000000e+000 -8.163452e-001
    outer loop
      vertex   -7.915000e+001 4.500000e+001 5.551115e-016
      vertex   -6.500000e+001 6.500000e+001 0.000000e+000
      vertex   -6.500000e+001 4.500000e+001 0.000000e+000
    endloop
  endfacet
  facet normal 0.000000e+000 1.961524e-017 -1.000000e+000
    outer loop
      vertex   -6.500000e+001 7.915000e+001 2.775558e-016
      vertex   -4.500000e+001 7.915000e+001 2.775558e-016
      vertex   -6.500000e+001 6.500000e+001 0.000000e+000
    endloop
  endfacet
  facet normal 0.000000e+000 1.132907e-017 -5.775643e-001
    outer loop
      vertex   -6.500000e+001 6.500000e+001 0.000000e+000
      vertex   -4.500000e+001 7.915000e+001 2.775558e-016
      vertex   -4.500000e+001 6.500000e+001 0.000000e+000
    endloop
  endfacet
  facet normal 1.961525e-017 0.000000e+000 -1.000000e+000
    outer loop
      vertex   -4.500000e+001 6.500000e+001 0.000000e+000
      vertex   -3.085000e+001 6.500000e+001 2.775558e-016
      vertex   -4.500000e+001 4.500000e+001 0.000000e+000
    endloop
  endfacet
  facet normal 1.601281e-017 0.000000e+000 -8.163452e-001
    outer loop
      vertex   -4.500000e+001 4.500000e+001 0.000000e+000
      vertex   -3.085000e+001 6.500000e+001 2.775558e-016
      vertex   -3.085000e+001 4.500000e+001 2.775558e-016
    endloop
  endfacet
  facet normal -0.000000e+000 -1.961525e-017 -1.000000e+000
    outer loop
      vertex   -4.500000e+001 3.085000e+001 2.775558e-016
      vertex   -6.500000e+001 3.085000e+001 2.775558e-016
      vertex   -4.500000e+001 4.500000e+001 0.000000e+000
    endloop
  endfacet
  facet normal -0.000000e+000 -1.132907e-017 -5.775642e-001
    outer loop
      vertex   -4.500000e+001 4.500000e+001 0.000000e+000
      vertex   -6.500000e+001 3.085000e+001 2.775558e-016
      vertex   -6.500000e+001 4.500000e+001 0.000000e+000
    endloop
  endfacet
  facet normal 0.000000e+000 0.000000e+000 1.000000e+000
    outer loop
      vertex   -7.915000e+001 4.500000e+001 7.000000e+000
      vertex   -7.615000e+001 4.500000e+001 7.000000e+000
      vertex   -7.915000e+001 6.500000e+001 7.000000e+000
    endloop
  endfacet
  facet normal -0.000000e+000 0.000000e+000 9.889364e-001
    outer loop
      vertex   -7.915000e+001 6.500000e+001 7.000000e+000
      vertex   -7.615000e+001 4.500000e+001 7.000000e+000
      vertex   -7.615000e+001 6.500000e+001 7.000000e+000
    endloop
  endfacet
  facet normal -0.000000e+000 -1.000000e+000 -0.000000e+000
    outer loop
      vertex   -7.615000e+001 4.500000e+001 7.000000e+000
      vertex   -7.915000e+001 4.500000e+001 7.000000e+000
      vertex   -7.615000e+001 4.500000e+001 3.000000e+000
    endloop
  endfacet
  facet normal -0.000000e+000 -9.899495e-001 0.000000e+000
    outer loop
      vertex   -7.615000e+001 4.500000e+001 3.000000e+000
      vertex   -7.915000e+001 4.500000e+001 7.000000e+000
      vertex   -7.915000e+001 4.500000e+001 5.551115e-016
    endloop
  endfacet
  facet normal 0.000000e+000 -8.665422e-001 -0.000000e+000
    outer loop
      vertex   -7.615000e+001 4.500000e+001 3.000000e+000
      vertex   -7.915000e+001 4.500000e+001 5.551115e-016
      vertex   -6.500000e+001 4.500000e+001 0.000000e+000
    endloop
  endfacet
  facet normal 0.000000e+000 -9.656576e-001 0.000000e+000
    outer loop
      vertex   -6.500000e+001 4.500000e+001 0.000000e+000
      vertex   -6.500000e+001 4.500000e+001 3.000000e+000
      vertex   -7.615000e+001 4.500000e+001 3.000000e+000
    endloop
  endfacet
  facet normal 1.000000e+000 0.000000e+000 -0.000000e+000
    outer loop
      vertex   -7.615000e+001 6.500000e+001 3.000000e+000
      vertex   -7.615000e+001 6.500000e+001 7.000000e+000
      vertex   -7.615000e+001 4.500000e+001 3.000000e+000
    endloop
  endfacet
  facet normal 9.805807e-001 0.000000e+000 0.000000e+000
    outer loop
      vertex   -7.615000e+001 4.500000e+001 3.000000e+000
      vertex   -7.615000e+001 6.500000e+001 7.000000e+000
      vertex   -7.615000e+001 4.500000e+001 7.000000e+000
    endloop
  endfacet
  facet normal 0.000000e+000 2.598181e-001 0.000000e+000
    outer loop
      vertex   -6.500000e+001 6.500000e+001 0.000000e+000
      vertex   -7.915000e+001 6.500000e+001 5.551115e-016
      vertex   -7.615000e+001 6.500000e+001 3.000000e+000
    endloop
  endfacet
  facet normal 0.000000e+000 9.899495e-001 0.000000e+000
    outer loop
      vertex   -7.615000e+001 6.500000e+001 3.000000e+000
      vertex   -7.915000e+001 6.500000e+001 5.551115e-016
      vertex   -7.915000e+001 6.500000e+001 7.000000e+000
    endloop
  endfacet
  facet normal 0.000000e+000 6.000000e-001 -0.000000e+000
    outer loop
      vertex   -7.615000e+001 6.500000e+001 3.000000e+000
      vertex   -7.915000e+001 6.500000e+001 7.000000e+000
      vertex   -7.615000e+001 6.500000e+001 7.000000e+000
    endloop
  endfacet
  facet normal -0.000000e+000 2.598181e-001 0.000000e+000
    outer loop
      vertex   -7.615000e+001 6.500000e+001 3.000000e+000
      vertex   -6.500000e+001 6.500000e+001 3.000000e+000
      vertex   -6.500000e+001 6.500000e+001 0.000000e+000
    endloop
  endfacet
  facet normal -1.000000e+000 0.000000e+000 0.000000e+000
    outer loop
      vertex   -7.915000e+001 4.500000e+001 5.551115e-016
      vertex   -7.915000e+001 4.500000e+001 7.000000e+000
      vertex   -7.915000e+001 6.500000e+001 5.551115e-016
    endloop
  endfacet
  facet normal -9.438584e-001 0.000000e+000 0.000000e+000
    outer loop
      vertex   -7.915000e+001 6.500000e+001 5.551115e-016
      vertex   -7.915000e+001 4.500000e+001 7.000000e+000
      vertex   -7.915000e+001 6.500000e+001 7.000000e+000
    endloop
  endfacet
endsolid
